<?xml version="1.0" encoding="utf-8"?>
<svg viewBox="52.102 0 409.7 521.092" xmlns="http://www.w3.org/2000/svg" xmlns:bx="https://boxy-svg.com">
  <defs>
    <bx:grid x="157.922" y="-25.564" width="100" height="100"/>
  </defs>
  <rect x="7.442" y="7.975" width="482.048" height="362.24" style="stroke-linecap: round; stroke-linejoin: round; stroke: rgb(152, 154, 153); transform-box: fill-box; transform-origin: 50% 50%; stroke-width: 2px; fill: rgba(30, 108, 123, 0);" transform="matrix(0.000001, 1, -1, 0.000001, 2.971782, 69.88082)"/>
  <rect x="129.508" y="116.09" width="180.514" height="121.284" style="fill: rgba(255, 255, 255, 0); stroke-linecap: round; stroke-linejoin: round; stroke: rgb(152, 154, 153); transform-box: fill-box; transform-origin: 50% 50%; stroke-width: 2px;" transform="matrix(0.000001, 1, -1, 0.000001, 44.035757, 53.54282)"/>
  <rect x="151.779" y="130.595" width="134.133" height="93.635" style="fill: rgba(0, 0, 0, 0); stroke: rgb(152, 154, 153); transform-box: fill-box; transform-origin: 50% 50%; stroke-width: 2px;" transform="matrix(0.000001, 1, -1, 0.000001, 44.274744, 51.94281)"/>
  <line style="fill: rgb(216, 216, 216); stroke: rgb(250, 250, 250); stroke-width: 6px; stroke-linecap: round; transform-origin: 290.261px 162.039px;" x1="290.295" y1="164.01" x2="289.704" y2="157.913" transform="matrix(0.000001, 1, -1, 0.000001, 0.000015, -0.000012)"/>
  <line style="fill: rgb(216, 216, 216); stroke: rgb(250, 250, 250); stroke-width: 0px; transform-origin: 283.678px 163.781px;" x1="283.731" y1="171.197" x2="283.171" y2="148.259" transform="matrix(0.000001, 1, -1, 0.000001, -0.000002, -0.000011)"/>
  <line style="fill: rgb(216, 216, 216); stroke: rgb(250, 250, 250); stroke-width: 5px; stroke-linecap: round; transform-box: fill-box; transform-origin: 231.751% 73.8658%;" x1="273.168" y1="155.501" x2="272.996" y2="164.579" transform="matrix(-0.000001, -1, 1, -0.000001, 0.00001, 0.000005)"/>
  <line style="fill: rgb(216, 216, 216); stroke: rgb(250, 250, 250); stroke-width: 5px; stroke-linecap: round; transform-origin: 247.074px 161.722px;" x1="246.618" y1="159.352" x2="246.273" y2="168.417" transform="matrix(-0.000001, -1, 1, -0.000001, -0.000014, -0.000021)"/>
  <line style="fill: rgb(216, 216, 216); stroke: rgb(250, 250, 250); stroke-width: 5px; transform-origin: 294.696px 296.189px;" x1="294.609" y1="299.9" x2="294.543" y2="285.703" transform="matrix(0.000001, 1, -1, 0.000001, -0.000017, 0.000017)"/>
  <line style="fill: rgb(216, 216, 216); stroke: rgb(250, 250, 250); stroke-width: 5px; transform-origin: 225.157px 296.771px;" x1="225.07" y1="300.482" x2="225.004" y2="286.285" transform="matrix(0.000001, 1, -1, 0.000001, -0.000007, -0.000009)"/>
  <line style="fill: rgb(216, 216, 216); stroke-linecap: round; stroke-linejoin: round; stroke: rgb(152, 154, 153); stroke-width: 2px; transform-origin: 408.443px 124.005px;" x1="382.848" y1="124.004" x2="431.34" y2="124.004"/>
  <line style="fill: rgb(216, 216, 216); stroke-linecap: round; stroke-linejoin: round; transform-origin: 415.214px 143.692px; stroke: rgb(0, 0, 0);" x1="416.437" y1="124.004" x2="415.243" y2="160.05" transform="matrix(0.999391, -0.0349, 0.0349, 0.999391, 0, 0.000001)"/>
  <line style="fill: rgb(216, 216, 216); stroke-linecap: round; transform-box: fill-box; transform-origin: 50% 50%; stroke: rgb(0, 0, 0);" x1="392.608" y1="168.593" x2="392.621" y2="151.499" transform="matrix(0.000001, 1, -1, 0.000001, 0, 0.000015)"/>
  <line style="fill: rgb(216, 216, 216); stroke: rgb(152, 154, 153); transform-origin: 408.798px 300.113px;" x1="383.906" y1="299.777" x2="431.34" y2="299.777"/>
  <line style="fill: rgb(216, 216, 216); stroke: rgb(152, 154, 153); transform-origin: 409.688px 420.141px;" x1="383.906" y1="420.369" x2="431.34" y2="419.858"/>
  <line style="fill: rgb(216, 216, 216); stroke: rgb(152, 154, 153); stroke-width: 2px; transform-origin: 297.262px 469.432px;" x1="299.23" y1="497.353" x2="298.495" y2="438.864" transform="matrix(-1, 0, 0, -1, 0.000012, -0.000007)"/>
  <line style="fill: rgb(216, 216, 216); stroke: rgb(152, 154, 153); stroke-width: 2px; transform-origin: 131.661px 469.964px;" x1="131.764" y1="441.511" x2="131.408" y2="500"/>
  <line style="fill: rgb(216, 216, 216); stroke: rgb(152, 154, 153); stroke-width: 2px; transform-box: fill-box; transform-origin: 50% 50%;" x1="96.132" y1="330.114" x2="97.179" y2="377.259" transform="matrix(-0.017451, 0.999848, -0.999848, -0.017451, -0.000018, -0.00001)"/>
  <line style="fill: rgb(216, 216, 216); stroke: rgb(152, 154, 153); transform-box: fill-box; transform-origin: 50% 50%; stroke-width: 2px;" x1="95.832" y1="263.98" x2="95.8" y2="314.792" transform="matrix(0.000001, 1, -1, 0.000001, 0.000013, 0.000008)"/>
  <line style="fill: rgb(216, 216, 216); stroke: rgb(152, 154, 153); stroke-width: 2px; transform-origin: 96.807px 202.561px;" x1="121.193" y1="202.471" x2="70.409" y2="203.502" transform="matrix(0.999848, 0.017453, -0.017453, 0.999848, 0, 0)"/>
  <line style="fill: rgb(216, 216, 216); stroke: rgb(152, 154, 153); transform-box: fill-box; transform-origin: 50% 50%; stroke-width: 2px;" x1="96.631" y1="75.339" x2="96.074" y2="127.226" transform="matrix(0.000001, 1, -1, 0.000001, 0.000006, -0.000004)"/>
  <g transform="matrix(0.000004, 0.064622, -0.039856, 0, 95.909813, -45.062397)" style="transform-origin: 197.5px 197.5px;">
    <g>
      <path d="M162.595,215.213c10.282,0,18.619-8.329,18.619-18.61c0-10.28-8.337-18.617-18.619-18.617&#10;&#9;&#9;&#9;c-10.278,0-18.62,8.337-18.62,18.617C143.975,206.884,152.317,215.213,162.595,215.213z"/>
      <path d="M162.597,217.82c-22.292,0-28.766,9.367-31.487,45.558c-0.245,3.253,2.194,6.088,5.447,6.333&#10;&#9;&#9;&#9;c0.151,0.011,0.3,0.017,0.449,0.017c3.061,0,5.65-2.362,5.884-5.464c1.004-13.358,2.317-21.55,4.262-26.59&#10;&#9;&#9;&#9;c-0.198,0.997-0.306,2.026-0.306,3.082v22.722c0,1.22,0.152,2.4,0.414,3.54v49.899c0,3.806,3.085,6.891,6.891,6.891&#10;&#9;&#9;&#9;c3.806,0,6.891-3.085,6.891-6.891V279.15c0.512,0.05,1.03,0.078,1.555,0.078c0.522,0,1.038-0.028,1.547-0.078v37.767&#10;&#9;&#9;&#9;c0,3.806,3.086,6.891,6.891,6.891c3.806,0,6.891-3.085,6.891-6.891v-49.87c0.267-1.148,0.421-2.34,0.421-3.569v-22.722&#10;&#9;&#9;&#9;c0-1.054-0.108-2.082-0.305-3.077c1.943,5.04,3.255,13.23,4.258,26.584c0.245,3.253,3.085,5.69,6.332,5.448&#10;&#9;&#9;&#9;c3.253-0.245,5.692-3.08,5.448-6.333C191.362,227.188,184.888,217.82,162.597,217.82z"/>
      <path d="M232.403,215.213c10.28,0,18.622-8.329,18.622-18.61c0-10.28-8.342-18.617-18.622-18.617&#10;&#9;&#9;&#9;c-10.28,0-18.617,8.337-18.617,18.617C213.786,206.884,222.123,215.213,232.403,215.213z"/>
      <path d="M232.403,217.82c-22.291,0-28.765,9.367-31.484,45.558c-0.244,3.253,2.194,6.088,5.448,6.333&#10;&#9;&#9;&#9;c0.15,0.011,0.3,0.017,0.449,0.017c3.061,0,5.65-2.362,5.884-5.465c0.95-12.643,2.176-20.655,3.953-25.752v18.059l-5.862,26.342&#10;&#9;&#9;&#9;c-0.114,0.513,0.011,1.049,0.339,1.459c0.329,0.41,0.825,0.648,1.351,0.648h4.589v31.898c0,3.806,3.085,6.891,6.891,6.891&#10;&#9;&#9;&#9;c3.806,0,6.891-3.085,6.891-6.891v-31.898h3.104v31.898c0,3.806,3.085,6.891,6.891,6.891c3.806,0,6.891-3.085,6.891-6.891v-31.898&#10;&#9;&#9;&#9;h4.594c0.007,0,0.013,0,0.02,0c0.956,0,1.731-0.775,1.731-1.731c0-0.222-0.041-0.434-0.117-0.628l-5.812-26.111v-18.049&#10;&#9;&#9;&#9;c1.779,5.096,3.006,13.111,3.956,25.764c0.244,3.253,3.083,5.693,6.333,5.448c3.253-0.244,5.692-3.08,5.448-6.333&#10;&#9;&#9;&#9;C261.173,227.188,254.699,217.82,232.403,217.82z"/>
      <path d="M277.102,135.343H117.898c-17.925,0-32.508,14.583-32.508,32.508v159.204c0,17.925,14.583,32.509,32.508,32.509h159.204&#10;&#9;&#9;&#9;c17.925,0,32.509-14.584,32.509-32.509V167.851C309.61,149.926,295.027,135.343,277.102,135.343z M289.61,327.055&#10;&#9;&#9;&#9;c0,6.897-5.611,12.509-12.509,12.509H117.898c-6.897,0-12.508-5.611-12.508-12.509V167.851c0-6.896,5.611-12.508,12.508-12.508&#10;&#9;&#9;&#9;h159.204c6.897,0,12.509,5.611,12.509,12.508V327.055z"/>
      <path d="M149.674,72.483c0.976-0.977,1.953-1.953,2.929-2.929v36.549c0,1.647-0.051,3.267,0.445,4.87&#10;&#9;&#9;&#9;c1.341,4.338,5.583,7.275,10.113,7.026c4.511-0.248,8.398-3.633,9.258-8.068c0.267-1.376,0.184-2.821,0.184-4.217v-36.16&#10;&#9;&#9;&#9;c2.332,2.331,4.477,4.891,7.864,5.628c5.099,1.109,10.35-2.028,11.763-7.057c1.014-3.606-0.121-7.351-2.738-9.969l-19.815-19.815&#10;&#9;&#9;&#9;c-3.076-3.075-7.951-3.794-11.789-1.747c-1.587,0.85-2.783,2.174-4.038,3.429l-17.556,17.556c-0.871,0.87-1.715,1.733-2.342,2.813&#10;&#9;&#9;&#9;c-1.588,2.731-1.777,6.146-0.508,9.04C136.225,75.774,144.783,77.374,149.674,72.483z"/>
      <path d="M225.325,115.109c3.076,3.076,7.951,3.794,11.789,1.748c1.587-0.851,2.783-2.174,4.038-3.429l17.556-17.556&#10;&#9;&#9;&#9;c0.871-0.871,1.715-1.733,2.342-2.813c1.588-2.732,1.777-6.147,0.508-9.041c-2.782-6.343-11.34-7.941-16.231-3.051&#10;&#9;&#9;&#9;c-0.976,0.975-1.953,1.952-2.929,2.929V47.349c0-1.648,0.051-3.267-0.445-4.87c-1.341-4.338-5.583-7.276-10.113-7.027&#10;&#9;&#9;&#9;c-4.511,0.248-8.398,3.633-9.258,8.069c-0.267,1.375-0.184,2.821-0.184,4.217v36.16c-2.332-2.332-4.477-4.891-7.864-5.628&#10;&#9;&#9;&#9;c-5.099-1.11-10.35,2.028-11.763,7.056c-1.014,3.606,0.121,7.352,2.738,9.969L225.325,115.109z"/>
    </g>
  </g>
  <g transform="matrix(0, 0.076002, -0.063628, 0, 308.885437, 137.012924)" style=""/>
  <g transform="matrix(0, 0.076002, -0.063628, 0, 308.885437, 137.012924)" style=""/>
  <g transform="matrix(0, 0.076002, -0.063628, 0, 308.885437, 137.012924)" style=""/>
  <g transform="matrix(0, 0.076002, -0.063628, 0, 308.885437, 137.012924)" style=""/>
  <g transform="matrix(0, 0.076002, -0.063628, 0, 308.885437, 137.012924)" style=""/>
  <g transform="matrix(0, 0.076002, -0.063628, 0, 308.885437, 137.012924)" style=""/>
  <g transform="matrix(0, 0.076002, -0.063628, 0, 308.885437, 137.012924)" style=""/>
  <g transform="matrix(0, 0.076002, -0.063628, 0, 308.885437, 137.012924)" style=""/>
  <g transform="matrix(0, 0.076002, -0.063628, 0, 308.885437, 137.012924)" style=""/>
  <g transform="matrix(0, 0.076002, -0.063628, 0, 308.885437, 137.012924)" style=""/>
  <g transform="matrix(0, 0.076002, -0.063628, 0, 308.885437, 137.012924)" style=""/>
  <g transform="matrix(0, 0.076002, -0.063628, 0, 308.885437, 137.012924)" style=""/>
  <g transform="matrix(0, 0.076002, -0.063628, 0, 308.885437, 137.012924)" style=""/>
  <g transform="matrix(0, 0.076002, -0.063628, 0, 308.885437, 137.012924)" style=""/>
  <g transform="matrix(0, 0.076002, -0.063628, 0, 308.885437, 137.012924)" style=""/>
  <g transform="matrix(0.000004, 0.064622, -0.039856, 0, 75.986961, -45.612186)" style="transform-origin: 197.5px 197.5px;">
    <g>
      <path d="M162.595,215.213c10.282,0,18.619-8.329,18.619-18.61c0-10.28-8.337-18.617-18.619-18.617&#10;&#9;&#9;&#9;c-10.278,0-18.62,8.337-18.62,18.617C143.975,206.884,152.317,215.213,162.595,215.213z" style=""/>
      <path d="M162.597,217.82c-22.292,0-28.766,9.367-31.487,45.558c-0.245,3.253,2.194,6.088,5.447,6.333&#10;&#9;&#9;&#9;c0.151,0.011,0.3,0.017,0.449,0.017c3.061,0,5.65-2.362,5.884-5.464c1.004-13.358,2.317-21.55,4.262-26.59&#10;&#9;&#9;&#9;c-0.198,0.997-0.306,2.026-0.306,3.082v22.722c0,1.22,0.152,2.4,0.414,3.54v49.899c0,3.806,3.085,6.891,6.891,6.891&#10;&#9;&#9;&#9;c3.806,0,6.891-3.085,6.891-6.891V279.15c0.512,0.05,1.03,0.078,1.555,0.078c0.522,0,1.038-0.028,1.547-0.078v37.767&#10;&#9;&#9;&#9;c0,3.806,3.086,6.891,6.891,6.891c3.806,0,6.891-3.085,6.891-6.891v-49.87c0.267-1.148,0.421-2.34,0.421-3.569v-22.722&#10;&#9;&#9;&#9;c0-1.054-0.108-2.082-0.305-3.077c1.943,5.04,3.255,13.23,4.258,26.584c0.245,3.253,3.085,5.69,6.332,5.448&#10;&#9;&#9;&#9;c3.253-0.245,5.692-3.08,5.448-6.333C191.362,227.188,184.888,217.82,162.597,217.82z" style=""/>
      <path d="M232.403,215.213c10.28,0,18.622-8.329,18.622-18.61c0-10.28-8.342-18.617-18.622-18.617&#10;&#9;&#9;&#9;c-10.28,0-18.617,8.337-18.617,18.617C213.786,206.884,222.123,215.213,232.403,215.213z" style=""/>
      <path d="M232.403,217.82c-22.291,0-28.765,9.367-31.484,45.558c-0.244,3.253,2.194,6.088,5.448,6.333&#10;&#9;&#9;&#9;c0.15,0.011,0.3,0.017,0.449,0.017c3.061,0,5.65-2.362,5.884-5.465c0.95-12.643,2.176-20.655,3.953-25.752v18.059l-5.862,26.342&#10;&#9;&#9;&#9;c-0.114,0.513,0.011,1.049,0.339,1.459c0.329,0.41,0.825,0.648,1.351,0.648h4.589v31.898c0,3.806,3.085,6.891,6.891,6.891&#10;&#9;&#9;&#9;c3.806,0,6.891-3.085,6.891-6.891v-31.898h3.104v31.898c0,3.806,3.085,6.891,6.891,6.891c3.806,0,6.891-3.085,6.891-6.891v-31.898&#10;&#9;&#9;&#9;h4.594c0.007,0,0.013,0,0.02,0c0.956,0,1.731-0.775,1.731-1.731c0-0.222-0.041-0.434-0.117-0.628l-5.812-26.111v-18.049&#10;&#9;&#9;&#9;c1.779,5.096,3.006,13.111,3.956,25.764c0.244,3.253,3.083,5.693,6.333,5.448c3.253-0.244,5.692-3.08,5.448-6.333&#10;&#9;&#9;&#9;C261.173,227.188,254.699,217.82,232.403,217.82z" style=""/>
      <path d="M277.102,135.343H117.898c-17.925,0-32.508,14.583-32.508,32.508v159.204c0,17.925,14.583,32.509,32.508,32.509h159.204&#10;&#9;&#9;&#9;c17.925,0,32.509-14.584,32.509-32.509V167.851C309.61,149.926,295.027,135.343,277.102,135.343z M289.61,327.055&#10;&#9;&#9;&#9;c0,6.897-5.611,12.509-12.509,12.509H117.898c-6.897,0-12.508-5.611-12.508-12.509V167.851c0-6.896,5.611-12.508,12.508-12.508&#10;&#9;&#9;&#9;h159.204c6.897,0,12.509,5.611,12.509,12.508V327.055z" style=""/>
      <path d="M149.674,72.483c0.976-0.977,1.953-1.953,2.929-2.929v36.549c0,1.647-0.051,3.267,0.445,4.87&#10;&#9;&#9;&#9;c1.341,4.338,5.583,7.275,10.113,7.026c4.511-0.248,8.398-3.633,9.258-8.068c0.267-1.376,0.184-2.821,0.184-4.217v-36.16&#10;&#9;&#9;&#9;c2.332,2.331,4.477,4.891,7.864,5.628c5.099,1.109,10.35-2.028,11.763-7.057c1.014-3.606-0.121-7.351-2.738-9.969l-19.815-19.815&#10;&#9;&#9;&#9;c-3.076-3.075-7.951-3.794-11.789-1.747c-1.587,0.85-2.783,2.174-4.038,3.429l-17.556,17.556c-0.871,0.87-1.715,1.733-2.342,2.813&#10;&#9;&#9;&#9;c-1.588,2.731-1.777,6.146-0.508,9.04C136.225,75.774,144.783,77.374,149.674,72.483z" style=""/>
      <path d="M225.325,115.109c3.076,3.076,7.951,3.794,11.789,1.748c1.587-0.851,2.783-2.174,4.038-3.429l17.556-17.556&#10;&#9;&#9;&#9;c0.871-0.871,1.715-1.733,2.342-2.813c1.588-2.732,1.777-6.147,0.508-9.041c-2.782-6.343-11.34-7.941-16.231-3.051&#10;&#9;&#9;&#9;c-0.976,0.975-1.953,1.952-2.929,2.929V47.349c0-1.648,0.051-3.267-0.445-4.87c-1.341-4.338-5.583-7.276-10.113-7.027&#10;&#9;&#9;&#9;c-4.511,0.248-8.398,3.633-9.258,8.069c-0.267,1.375-0.184,2.821-0.184,4.217v36.16c-2.332-2.332-4.477-4.891-7.864-5.628&#10;&#9;&#9;&#9;c-5.099-1.11-10.35,2.028-11.763,7.056c-1.014,3.606,0.121,7.352,2.738,9.969L225.325,115.109z" style=""/>
    </g>
  </g>
  <g transform="matrix(0.000004, 0.064622, -0.039856, 0, 53.971855, -46.025906)" style="transform-origin: 197.5px 197.5px;">
    <g>
      <path d="M162.595,215.213c10.282,0,18.619-8.329,18.619-18.61c0-10.28-8.337-18.617-18.619-18.617&#10;&#9;&#9;&#9;c-10.278,0-18.62,8.337-18.62,18.617C143.975,206.884,152.317,215.213,162.595,215.213z"/>
      <path d="M162.597,217.82c-22.292,0-28.766,9.367-31.487,45.558c-0.245,3.253,2.194,6.088,5.447,6.333&#10;&#9;&#9;&#9;c0.151,0.011,0.3,0.017,0.449,0.017c3.061,0,5.65-2.362,5.884-5.464c1.004-13.358,2.317-21.55,4.262-26.59&#10;&#9;&#9;&#9;c-0.198,0.997-0.306,2.026-0.306,3.082v22.722c0,1.22,0.152,2.4,0.414,3.54v49.899c0,3.806,3.085,6.891,6.891,6.891&#10;&#9;&#9;&#9;c3.806,0,6.891-3.085,6.891-6.891V279.15c0.512,0.05,1.03,0.078,1.555,0.078c0.522,0,1.038-0.028,1.547-0.078v37.767&#10;&#9;&#9;&#9;c0,3.806,3.086,6.891,6.891,6.891c3.806,0,6.891-3.085,6.891-6.891v-49.87c0.267-1.148,0.421-2.34,0.421-3.569v-22.722&#10;&#9;&#9;&#9;c0-1.054-0.108-2.082-0.305-3.077c1.943,5.04,3.255,13.23,4.258,26.584c0.245,3.253,3.085,5.69,6.332,5.448&#10;&#9;&#9;&#9;c3.253-0.245,5.692-3.08,5.448-6.333C191.362,227.188,184.888,217.82,162.597,217.82z"/>
      <path d="M232.403,215.213c10.28,0,18.622-8.329,18.622-18.61c0-10.28-8.342-18.617-18.622-18.617&#10;&#9;&#9;&#9;c-10.28,0-18.617,8.337-18.617,18.617C213.786,206.884,222.123,215.213,232.403,215.213z"/>
      <path d="M232.403,217.82c-22.291,0-28.765,9.367-31.484,45.558c-0.244,3.253,2.194,6.088,5.448,6.333&#10;&#9;&#9;&#9;c0.15,0.011,0.3,0.017,0.449,0.017c3.061,0,5.65-2.362,5.884-5.465c0.95-12.643,2.176-20.655,3.953-25.752v18.059l-5.862,26.342&#10;&#9;&#9;&#9;c-0.114,0.513,0.011,1.049,0.339,1.459c0.329,0.41,0.825,0.648,1.351,0.648h4.589v31.898c0,3.806,3.085,6.891,6.891,6.891&#10;&#9;&#9;&#9;c3.806,0,6.891-3.085,6.891-6.891v-31.898h3.104v31.898c0,3.806,3.085,6.891,6.891,6.891c3.806,0,6.891-3.085,6.891-6.891v-31.898&#10;&#9;&#9;&#9;h4.594c0.007,0,0.013,0,0.02,0c0.956,0,1.731-0.775,1.731-1.731c0-0.222-0.041-0.434-0.117-0.628l-5.812-26.111v-18.049&#10;&#9;&#9;&#9;c1.779,5.096,3.006,13.111,3.956,25.764c0.244,3.253,3.083,5.693,6.333,5.448c3.253-0.244,5.692-3.08,5.448-6.333&#10;&#9;&#9;&#9;C261.173,227.188,254.699,217.82,232.403,217.82z"/>
      <path d="M277.102,135.343H117.898c-17.925,0-32.508,14.583-32.508,32.508v159.204c0,17.925,14.583,32.509,32.508,32.509h159.204&#10;&#9;&#9;&#9;c17.925,0,32.509-14.584,32.509-32.509V167.851C309.61,149.926,295.027,135.343,277.102,135.343z M289.61,327.055&#10;&#9;&#9;&#9;c0,6.897-5.611,12.509-12.509,12.509H117.898c-6.897,0-12.508-5.611-12.508-12.509V167.851c0-6.896,5.611-12.508,12.508-12.508&#10;&#9;&#9;&#9;h159.204c6.897,0,12.509,5.611,12.509,12.508V327.055z"/>
      <path d="M149.674,72.483c0.976-0.977,1.953-1.953,2.929-2.929v36.549c0,1.647-0.051,3.267,0.445,4.87&#10;&#9;&#9;&#9;c1.341,4.338,5.583,7.275,10.113,7.026c4.511-0.248,8.398-3.633,9.258-8.068c0.267-1.376,0.184-2.821,0.184-4.217v-36.16&#10;&#9;&#9;&#9;c2.332,2.331,4.477,4.891,7.864,5.628c5.099,1.109,10.35-2.028,11.763-7.057c1.014-3.606-0.121-7.351-2.738-9.969l-19.815-19.815&#10;&#9;&#9;&#9;c-3.076-3.075-7.951-3.794-11.789-1.747c-1.587,0.85-2.783,2.174-4.038,3.429l-17.556,17.556c-0.871,0.87-1.715,1.733-2.342,2.813&#10;&#9;&#9;&#9;c-1.588,2.731-1.777,6.146-0.508,9.04C136.225,75.774,144.783,77.374,149.674,72.483z"/>
      <path d="M225.325,115.109c3.076,3.076,7.951,3.794,11.789,1.748c1.587-0.851,2.783-2.174,4.038-3.429l17.556-17.556&#10;&#9;&#9;&#9;c0.871-0.871,1.715-1.733,2.342-2.813c1.588-2.732,1.777-6.147,0.508-9.041c-2.782-6.343-11.34-7.941-16.231-3.051&#10;&#9;&#9;&#9;c-0.976,0.975-1.953,1.952-2.929,2.929V47.349c0-1.648,0.051-3.267-0.445-4.87c-1.341-4.338-5.583-7.276-10.113-7.027&#10;&#9;&#9;&#9;c-4.511,0.248-8.398,3.633-9.258,8.069c-0.267,1.375-0.184,2.821-0.184,4.217v36.16c-2.332-2.332-4.477-4.891-7.864-5.628&#10;&#9;&#9;&#9;c-5.099-1.11-10.35,2.028-11.763,7.056c-1.014,3.606,0.121,7.352,2.738,9.969L225.325,115.109z"/>
    </g>
  </g>
  <g transform="matrix(-0.000002, 0.107104, -0.104379, -0.000001, 363.400818, 234.147369)" style=""/>
  <g transform="matrix(-0.000002, 0.107104, -0.104379, -0.000001, 363.400818, 234.147369)" style=""/>
  <g transform="matrix(-0.000002, 0.107104, -0.104379, -0.000001, 363.400818, 234.147369)" style=""/>
  <g transform="matrix(-0.000002, 0.107104, -0.104379, -0.000001, 363.400818, 234.147369)" style=""/>
  <g transform="matrix(-0.000002, 0.107104, -0.104379, -0.000001, 363.400818, 234.147369)" style=""/>
  <g transform="matrix(-0.000002, 0.107104, -0.104379, -0.000001, 363.400818, 234.147369)" style=""/>
  <g transform="matrix(-0.000002, 0.107104, -0.104379, -0.000001, 363.400818, 234.147369)" style=""/>
  <g transform="matrix(-0.000002, 0.107104, -0.104379, -0.000001, 363.400818, 234.147369)" style=""/>
  <g transform="matrix(-0.000002, 0.107104, -0.104379, -0.000001, 363.400818, 234.147369)" style=""/>
  <g transform="matrix(-0.000002, 0.107104, -0.104379, -0.000001, 363.400818, 234.147369)" style=""/>
  <g transform="matrix(-0.000002, 0.107104, -0.104379, -0.000001, 363.400818, 234.147369)" style=""/>
  <g transform="matrix(-0.000002, 0.107104, -0.104379, -0.000001, 363.400818, 234.147369)" style=""/>
  <g transform="matrix(-0.000002, 0.107104, -0.104379, -0.000001, 363.400818, 234.147369)" style=""/>
  <g transform="matrix(-0.000002, 0.107104, -0.104379, -0.000001, 363.400818, 234.147369)" style=""/>
  <g transform="matrix(-0.000002, 0.107104, -0.104379, -0.000001, 363.400818, 234.147369)" style=""/>
  <line style="fill: rgb(216, 216, 216); stroke: rgb(152, 154, 153); stroke-width: 2px; transform-origin: 409.247px 209.577px;" x1="383.906" y1="210.518" x2="431.79" y2="209.242" transform="matrix(0.999848, 0.017452, -0.017452, 0.999848, 0, 0)"/>
  <text style="fill: rgb(51, 51, 51); font-family: 'Times New Roman'; font-size: 25.6717px; font-weight: 700; white-space: pre; transform-box: fill-box; transform-origin: 50% 50%;" transform="matrix(0, 0.399685, -0.671611, 0, 328.429138, 9.617171)" x="30.917" y="86.28">المكتب الاول</text>
  <text style="fill: rgb(51, 51, 51); font-family: 'Times New Roman'; font-size: 25.6717px; font-weight: 700; white-space: pre; transform-box: fill-box; transform-origin: 50% 50%;" transform="matrix(0, 0.399685, -0.671611, 0, 350.24057, 169.919739)" x="30.917" y="86.28">الارشيف</text>
  <text style="fill: rgb(51, 51, 51); font-family: 'Times New Roman'; font-size: 25.6717px; font-weight: 700; white-space: pre; transform-box: fill-box; transform-origin: 50% 50%;" transform="matrix(0.399685, 0.000001, 0, 0.67161, 308.986877, 383.004272)" x="30.917" y="86.28">المكتب الثاني</text>
  <text style="fill: rgb(51, 51, 51); font-family: 'Times New Roman'; font-size: 25.6717px; font-weight: 700; white-space: pre; transform-box: fill-box; transform-origin: 50% 50%;" transform="matrix(0.399137, 0.020918, -0.035149, 0.670691, 149.563507, 388.527649)" x="30.917" y="86.28">المكتب الثالث</text>
  <text style="fill: rgb(51, 51, 51); font-family: 'Times New Roman'; font-size: 25.6717px; font-weight: 700; white-space: pre; transform-box: fill-box; transform-origin: 50% 50%;" transform="matrix(0.399442, -0.013949, 0.023439, 0.671202, 26.271708, 353.68689)" x="30.917" y="86.28">الموظفين</text>
  <text style="fill: rgb(51, 51, 51); font-family: 'Times New Roman'; font-size: 25.6717px; font-weight: 700; white-space: pre; transform-box: fill-box; transform-origin: 50% 50%;" transform="matrix(0.399442, -0.013949, 0.023439, 0.671202, 28.301176, 252.474396)" x="30.917" y="86.28">التواصل </text>
  <text style="fill: rgb(51, 51, 51); font-family: 'Times New Roman'; font-size: 25.6717px; font-weight: 700; white-space: pre; transform-box: fill-box; transform-origin: 50% 50%;" transform="matrix(0.370071, 0, 0, 0.671611, 11.937859, 153.832245)" x="30.917" y="86.28">الادارة العامة</text>
  <text style="fill: rgb(51, 51, 51); font-family: 'Times New Roman'; font-size: 25.6717px; font-weight: 700; white-space: pre; transform-box: fill-box; transform-origin: 50% 50%;" transform="matrix(0.399137, -0.020918, 0.035149, 0.670691, 33.219124, 73.411957)" x="30.917" y="86.28">الاستقبال</text>
  <text style="fill: rgb(51, 51, 51); font-family: 'Times New Roman'; font-size: 25.6717px; font-weight: 700; white-space: pre; transform-box: fill-box; transform-origin: 50% 50%;" transform="matrix(0.353601, 0, 0, 0.671611, 9.949108, -30.140362)" x="30.917" y="86.28">المكتب الاخير</text>
  <g transform="matrix(-0.008664, -0.270517, 0.245172, -0.007854, 230.771133, 246.119507)" style=""/>
  <g transform="matrix(-0.008664, -0.270517, 0.245172, -0.007854, 230.771133, 246.119507)" style=""/>
  <g transform="matrix(-0.008664, -0.270517, 0.245172, -0.007854, 230.771133, 246.119507)" style=""/>
  <g transform="matrix(-0.008664, -0.270517, 0.245172, -0.007854, 230.771133, 246.119507)" style=""/>
  <g transform="matrix(-0.008664, -0.270517, 0.245172, -0.007854, 230.771133, 246.119507)" style=""/>
  <g transform="matrix(-0.008664, -0.270517, 0.245172, -0.007854, 230.771133, 246.119507)" style=""/>
  <g transform="matrix(-0.008664, -0.270517, 0.245172, -0.007854, 230.771133, 246.119507)" style=""/>
  <g transform="matrix(-0.008664, -0.270517, 0.245172, -0.007854, 230.771133, 246.119507)" style=""/>
  <g transform="matrix(-0.008664, -0.270517, 0.245172, -0.007854, 230.771133, 246.119507)" style=""/>
  <g transform="matrix(-0.008664, -0.270517, 0.245172, -0.007854, 230.771133, 246.119507)" style=""/>
  <g transform="matrix(-0.008664, -0.270517, 0.245172, -0.007854, 230.771133, 246.119507)" style=""/>
  <g transform="matrix(-0.008664, -0.270517, 0.245172, -0.007854, 230.771133, 246.119507)" style=""/>
  <g transform="matrix(-0.008664, -0.270517, 0.245172, -0.007854, 230.771133, 246.119507)" style=""/>
  <g transform="matrix(-0.008664, -0.270517, 0.245172, -0.007854, 230.771133, 246.119507)" style=""/>
  <g transform="matrix(-0.008664, -0.270517, 0.245172, -0.007854, 230.771133, 246.119507)" style=""/>
  <g transform="matrix(-0.053537, 0.001866, -0.00222, -0.063688, -18.272135, -6.598676)" style="transform-origin: 232.347px 232.347px;">
    <g>
      <g>
        <polygon style="stroke-miterlimit: 3.99; stroke-width: 0px; fill: rgb(255, 255, 255);" points="294.856,110.557 271.527,133.861 353.528,215.854 64.199,215.854 64.199,248.824 &#10;&#9;&#9;&#9;&#9;353.528,248.824 271.535,330.817 294.856,354.154 416.671,232.347 &#9;&#9;&#9;"/>
      </g>
      <g>
        <path style="stroke-miterlimit: 3.99; stroke-width: 0px; fill: rgb(255, 255, 255);" d="M232.347,0.008C104.233,0.008,0,104.225,0,232.347s104.233,232.339,232.347,232.339&#10;&#9;&#9;&#9;&#9;s232.347-104.225,232.347-232.339S360.462,0.008,232.347,0.008z M232.347,433.245c-110.776,0-200.906-90.13-200.906-200.898&#10;&#9;&#9;&#9;&#9;c0-110.776,90.13-200.898,200.906-200.898c110.768,0,200.906,90.122,200.906,200.898&#10;&#9;&#9;&#9;&#9;C433.253,343.115,343.115,433.245,232.347,433.245z"/>
      </g>
    </g>
  </g>
  <g transform="matrix(-0.053536, 0.001866, -0.00222, -0.063687, 227.029816, 242.511307)" style=""/>
  <g transform="matrix(-0.053536, 0.001866, -0.00222, -0.063687, 227.029816, 242.511307)" style=""/>
  <g transform="matrix(-0.053536, 0.001866, -0.00222, -0.063687, 227.029816, 242.511307)" style=""/>
  <g transform="matrix(-0.053536, 0.001866, -0.00222, -0.063687, 227.029816, 242.511307)" style=""/>
  <g transform="matrix(-0.053536, 0.001866, -0.00222, -0.063687, 227.029816, 242.511307)" style=""/>
  <g transform="matrix(-0.053536, 0.001866, -0.00222, -0.063687, 227.029816, 242.511307)" style=""/>
  <g transform="matrix(-0.053536, 0.001866, -0.00222, -0.063687, 227.029816, 242.511307)" style=""/>
  <g transform="matrix(-0.053536, 0.001866, -0.00222, -0.063687, 227.029816, 242.511307)" style=""/>
  <g transform="matrix(-0.053536, 0.001866, -0.00222, -0.063687, 227.029816, 242.511307)" style=""/>
  <g transform="matrix(-0.053536, 0.001866, -0.00222, -0.063687, 227.029816, 242.511307)" style=""/>
  <g transform="matrix(-0.053536, 0.001866, -0.00222, -0.063687, 227.029816, 242.511307)" style=""/>
  <g transform="matrix(-0.053536, 0.001866, -0.00222, -0.063687, 227.029816, 242.511307)" style=""/>
  <g transform="matrix(-0.053536, 0.001866, -0.00222, -0.063687, 227.029816, 242.511307)" style=""/>
  <g transform="matrix(-0.053536, 0.001866, -0.00222, -0.063687, 227.029816, 242.511307)" style=""/>
  <g transform="matrix(-0.053536, 0.001866, -0.00222, -0.063687, 227.029816, 242.511307)" style=""/>
  <g transform="matrix(0.053564, -0.000739, 0.00088, 0.063721, 41.601582, -0.876401)" style="transform-origin: 232.347px 232.347px;">
    <g>
      <g transform="matrix(1, 0, 0, 1, 443.463165, -1.266085)">
        <polygon style="fill: rgb(1, 0, 2); stroke-linecap: round; stroke-miterlimit: 12.87; stroke-width: 358.068px;" points="294.856,110.557 271.527,133.861 353.528,215.854 64.199,215.854 64.199,248.824 &#10;&#9;&#9;&#9;&#9;353.528,248.824 271.535,330.817 294.856,354.154 416.671,232.347 &#9;&#9;&#9;"/>
      </g>
      <g>
        <path style="fill: rgb(1, 0, 2); stroke-linecap: round; stroke-miterlimit: 12.87; stroke-width: 358.068px; visibility: hidden;" d="M232.347,0.008C104.233,0.008,0,104.225,0,232.347s104.233,232.339,232.347,232.339&#10;&#9;&#9;&#9;&#9;s232.347-104.225,232.347-232.339S360.462,0.008,232.347,0.008z M232.347,433.245c-110.776,0-200.906-90.13-200.906-200.898&#10;&#9;&#9;&#9;&#9;c0-110.776,90.13-200.898,200.906-200.898c110.768,0,200.906,90.122,200.906,200.898&#10;&#9;&#9;&#9;&#9;C433.253,343.115,343.115,433.245,232.347,433.245z"/>
      </g>
    </g>
  </g>
  <path style="fill: rgba(216, 216, 216, 0.827); transform-origin: 319.684px 227.722px; stroke: rgb(255, 255, 255);" d="M 306.66 239.626 L 306.427 216.805 C 307.103 212.752 335.737 221.366 332.718 239.455" transform="matrix(0.000001, 1, -1, 0.000001, 0.000002, -0.000018)"/>
  <line style="fill: rgb(216, 216, 216); stroke: rgb(0, 0, 0);" x1="121.338" y1="203.502" x2="121.193" y2="166.643"/>
  <line style="fill: rgb(216, 216, 216); stroke: rgb(0, 0, 0);" x1="122.119" y1="148.079" x2="122.296" y2="75.084"/>
  <line style="fill: rgb(216, 216, 216); stroke: rgb(0, 0, 0);" x1="122.873" y1="19.043" x2="122.296" y2="49.446"/>
  <line style="fill: rgb(216, 216, 216); stroke: rgb(0, 0, 0);" x1="121.001" y1="203.33" x2="121.191" y2="222.168"/>
  <line style="fill: rgb(216, 216, 216); stroke: rgb(0, 0, 0); transform-origin: 120.482px 344.559px;" x1="121.191" y1="395.892" x2="120.391" y2="334.47"/>
  <path style="fill: rgb(216, 216, 216); stroke: rgb(0, 0, 0);" d="M 121.406 315.378 L 121.409 288.963 L 121.191 246.447"/>
  <line style="fill: rgb(216, 216, 216); stroke: rgb(0, 0, 0); transform-origin: 120.395px 430.366px;" x1="121.191" y1="420.036" x2="120.45" y2="441.52" transform="matrix(0.999391, -0.034899, 0.034899, 0.999391, 0, 0)"/>
  <line style="fill: rgb(216, 216, 216); stroke: rgb(0, 0, 0); transform-box: fill-box; transform-origin: 50% 50%;" x1="213.264" y1="440.136" x2="121.255" y2="441.52" transform="matrix(0.999848, 0.017452, -0.017452, 0.999848, 0, 0)"/>
  <line style="fill: rgb(216, 216, 216); stroke: rgb(0, 0, 0);" x1="237.481" y1="440.756" x2="345.559" y2="441.511"/>
  <line style="fill: rgb(216, 216, 216); stroke: rgb(0, 0, 0);" x1="367.057" y1="441.925" x2="383.906" y2="441.511"/>
  <line style="fill: rgb(216, 216, 216); stroke: rgb(0, 0, 0);" x1="383.44" y1="372.936" x2="383.906" y2="441.925"/>
  <line style="fill: rgb(216, 216, 216); stroke: rgb(0, 0, 0);" x1="382.848" y1="347.265" x2="383.44" y2="250.081"/>
  <line style="fill: rgb(216, 216, 216); stroke: rgb(0, 0, 0); transform-box: fill-box; transform-origin: 50% 50%;" x1="383.906" y1="221.575" x2="384.693" y2="158.719" transform="matrix(0.999848, -0.017452, 0.017452, 0.999848, 0, 0)"/>
  <line style="fill: rgb(216, 216, 216); stroke: rgb(0, 0, 0); transform-box: fill-box; transform-origin: 50% 50%;" x1="382.072" y1="56.478" x2="380.407" y2="123.996" transform="matrix(0.999391, -0.034899, 0.034899, 0.999391, 0, 0)"/>
  <line style="fill: rgb(216, 216, 216); stroke: rgb(0, 0, 0); transform-box: fill-box; transform-origin: 50% 50%;" x1="380.677" y1="17.842" x2="380.407" y2="37.973" transform="matrix(0.999848, -0.017453, 0.017453, 0.999848, 0, 0)"/>
  <rect x="383.906" y="296.684" width="47.434" height="123.174" style="stroke: rgb(0, 0, 0); fill: rgb(113, 176, 229);"/>
  <text style="fill: rgb(51, 51, 51); font-family: 'Times New Roman'; font-size: 25.6717px; font-weight: 700; white-space: pre; transform-origin: 62.061px 77.584px;" transform="matrix(0.399686, 0, 0, 0.671611, 347.2854, 279.275391)" x="30.917" y="86.28">المصلى</text>
  <path d="M 398.696 172.075 C 397.127 172.327 395.876 173.507 395.448 175.136 C 395.373 175.424 395.367 175.791 395.367 185.156 C 395.367 194.522 395.373 194.889 395.448 195.177 C 395.651 195.955 396.021 196.592 396.584 197.151 C 397.127 197.688 397.776 198.042 398.5 198.204 C 398.823 198.278 399.434 198.282 408.088 198.282 C 416.668 198.282 417.355 198.278 417.656 198.207 C 418.911 197.92 419.937 197.068 420.471 195.875 C 420.552 195.696 420.663 195.39 420.713 195.189 L 420.806 194.832 L 420.806 185.156 L 420.806 175.481 L 420.713 175.124 C 420.607 174.712 420.352 174.128 420.145 173.813 C 419.957 173.533 419.547 173.092 419.25 172.856 C 418.716 172.428 418.033 172.144 417.33 172.057 C 416.723 171.983 399.175 172 398.696 172.075 Z M 417.839 173.021 C 418.86 173.381 419.636 174.236 419.924 175.328 C 419.996 175.594 420 176.132 420 185.156 C 420 194.181 419.996 194.718 419.924 194.985 C 419.636 196.077 418.86 196.932 417.831 197.291 L 417.499 197.409 L 408.214 197.421 C 401.447 197.431 398.864 197.421 398.696 197.387 C 397.678 197.173 396.788 196.416 396.394 195.438 C 396.16 194.858 396.172 195.461 396.172 185.156 C 396.172 177.193 396.181 175.573 396.231 175.372 C 396.457 174.441 397.084 173.629 397.903 173.214 C 398.598 172.861 397.708 172.886 408.151 172.895 L 417.499 172.905 L 417.839 173.021 Z" style="fill-rule: nonzero; stroke-linecap: round;"/>
  <text style="font-family: Arial, sans-serif; font-size: 8px; white-space: pre;" x="401.438" y="196.658">WC</text>
  <path class="cls-3" d="M 411.217 176.345 C 411.217 177.54 408.885 178.287 407.02 177.689 C 405.154 177.091 405.154 175.598 407.02 175 C 407.446 174.864 407.928 174.792 408.419 174.792 C 409.965 174.792 411.217 175.487 411.217 176.345 Z" style="fill: none; stroke: rgb(51, 51, 51); stroke-linecap: round; stroke-miterlimit: 10; stroke-width: 0.5px;"/>
  <path class="cls-3" d="M 403.988 183.976 C 403.988 183.976 403.905 180.21 403.905 179.811 C 403.829 179.432 404.338 179.094 405.024 179.068 L 411.087 179.068 C 411.762 179.107 412.259 179.436 412.21 179.811 C 412.21 180.259 411.986 183.95 411.986 183.95" style="fill: none; stroke: rgb(51, 51, 51); stroke-linecap: round; stroke-miterlimit: 10; stroke-width: 0.5px;"/>
  <path class="cls-3" d="M 410.004 183.36 L 409.416 188.102 C 409.416 188.376 409.16 188.503 408.843 188.503 L 407.58 188.503 C 407.267 188.503 407.01 188.376 407.01 188.537 L 406.474 183.363" style="fill: none; stroke: rgb(51, 51, 51); stroke-linecap: round; stroke-miterlimit: 10; stroke-width: 0.5px;"/>
  <polyline class="cls-2" points="290.623 304.871 290.623 300.138 296.079 300.138" style="fill: none; stroke: rgb(51, 51, 51); stroke-linecap: round; stroke-linejoin: round; stroke-width: 2px; transform-box: fill-box; transform-origin: 50% 50%;" transform="matrix(0, 1, -1, 0, -0.00003, -0.000001)"/>
  <polyline class="cls-2" points="295.355 310.326 295.355 305.593 300.811 305.593" style="fill: none; stroke: rgb(51, 51, 51); stroke-linecap: round; stroke-linejoin: round; stroke-width: 2px; transform-box: fill-box; transform-origin: 50% 50%;" transform="matrix(0, 1, -1, 0, 0.000015, 0.000019)"/>
  <polyline class="cls-2" points="300.088 315.781 300.088 311.048 305.542 311.048" style="fill: none; stroke: rgb(51, 51, 51); stroke-linecap: round; stroke-linejoin: round; stroke-width: 2px; transform-box: fill-box; transform-origin: 50% 50%;" transform="matrix(0, 1, -1, 0, 0.000017, 0.000012)"/>
</svg>