<?xml version="1.0" encoding="utf-8"?>
<svg viewBox="0 -62.994 495.835 507.904" xmlns="http://www.w3.org/2000/svg" xmlns:bx="https://boxy-svg.com">
  <defs>
    <bx:grid x="157.922" y="-25.564" width="100" height="100"/>
  </defs>
  <rect x="7.442" y="7.975" width="482.048" height="362.24" style="stroke-linecap: round; stroke-linejoin: round; fill: rgba(216, 216, 216, 0); stroke: rgb(152, 154, 153); stroke-width: 8px; transform-box: fill-box; transform-origin: 50% 50%;" transform="matrix(0.000001, 1, -1, 0.000001, 0.000224, 0.000195)"/>
  <polyline style="fill: rgba(216, 216, 216, 0); stroke-linecap: round; stroke-linejoin: round; stroke-width: 5px; stroke: rgb(152, 154, 153); transform-box: fill-box; transform-origin: 50% 50%;" points="46.284 30.289 294.388 29.318 448.274 28.716 453.099 289.504 46.795 286.909" transform="matrix(0.000001, 1, -1, 0.000001, -0.000016, -0.000001)"/>
  <line style="fill: rgb(216, 216, 216); stroke-width: 7px; stroke: rgb(250, 250, 250); stroke-linecap: round; transform-box: fill-box; transform-origin: 50% 50%;" x1="365.644" y1="-20.116" x2="391.093" y2="-18.249" transform="matrix(-0.000001, -1, 1, -0.000001, -0.000003, -0.000009)"/>
  <line style="fill: rgb(216, 216, 216); stroke-width: 7px; stroke: rgb(250, 250, 250); stroke-linecap: round; transform-origin: 379.826px 185.222px;" x1="368.124" y1="184.121" x2="391.527" y2="186.324" transform="matrix(-0.000001, -1, 1, -0.000001, -0.000003, -0.000003)"/>
  <line style="fill: rgb(216, 216, 216); stroke-width: 7px; stroke: rgb(250, 250, 250); transform-origin: 380.017px 271.658px;" x1="364.581" y1="270.741" x2="395.455" y2="272.575" transform="matrix(-0.000001, -1, 1, -0.000001, -0.000022, 0.000018)"/>
  <line style="fill: rgb(216, 216, 216); stroke-width: 7px; stroke: rgb(250, 250, 250); transform-origin: 351.859px 358.486px;" x1="351.023" y1="371.152" x2="351.458" y2="339.368" transform="matrix(0.000001, 1, -1, 0.000001, -0.000038, 0.00002)"/>
  <line style="fill: rgb(216, 216, 216); stroke-width: 7px; stroke: rgb(250, 250, 250); transform-origin: 194.715px 362.009px;" x1="175.598" y1="362.409" x2="213.833" y2="361.608" transform="matrix(1, -0.000002, 0.000002, 1, 0, 0)"/>
  <rect x="129.508" y="116.09" width="180.514" height="121.284" style="fill: rgba(255, 255, 255, 0); stroke-linecap: round; stroke-linejoin: round; stroke-width: 6px; stroke: rgb(152, 154, 153); transform-box: fill-box; transform-origin: 50% 50%;" transform="matrix(0.000001, 1, -1, 0.000001, 41.0642, -16.337805)"/>
  <rect x="151.779" y="130.595" width="134.133" height="93.635" style="stroke-width: 4px; fill: rgba(0, 0, 0, 0); stroke: rgb(152, 154, 153); transform-box: fill-box; transform-origin: 50% 50%;" transform="matrix(0.000001, 1, -1, 0.000001, 41.303186, -17.937815)"/>
  <line style="fill: rgb(216, 216, 216); stroke: rgb(250, 250, 250); stroke-width: 6px; stroke-linecap: round; transform-origin: 287.289px 92.159px;" x1="287.323" y1="94.13" x2="286.732" y2="88.033" transform="matrix(0.000001, 1, -1, 0.000001, -0.00001, 0.000012)"/>
  <line style="fill: rgb(216, 216, 216); stroke: rgb(250, 250, 250); stroke-width: 0px; transform-origin: 280.706px 93.901px;" x1="280.759" y1="101.317" x2="280.199" y2="78.379" transform="matrix(0.000001, 1, -1, 0.000001, 0.000007, -0.00001)"/>
  <line style="fill: rgb(216, 216, 216); stroke: rgb(250, 250, 250); stroke-width: 5px; stroke-linecap: round; transform-box: fill-box; transform-origin: 231.751% 73.8658%;" x1="270.196" y1="85.621" x2="270.024" y2="94.699" transform="matrix(-0.000001, -1, 1, -0.000001, -0.000015, -0.000025)"/>
  <line style="fill: rgb(216, 216, 216); stroke: rgb(250, 250, 250); stroke-width: 5px; stroke-linecap: round; transform-origin: 244.102px 91.842px;" x1="243.646" y1="89.472" x2="243.301" y2="98.537" transform="matrix(-0.000001, -1, 1, -0.000001, 0, 0)"/>
  <line style="fill: rgb(216, 216, 216); stroke: rgb(250, 250, 250); stroke-width: 5px; transform-origin: 291.724px 226.309px;" x1="291.637" y1="230.02" x2="291.571" y2="215.823" transform="matrix(0.000001, 1, -1, 0.000001, -0.000021, -0.000004)"/>
  <line style="fill: rgb(216, 216, 216); stroke: rgb(250, 250, 250); stroke-width: 5px; transform-origin: 222.185px 226.891px;" x1="222.098" y1="230.602" x2="222.032" y2="216.405" transform="matrix(0.000001, 1, -1, 0.000001, -0.000015, -0.000002)"/>
  <line style="fill: rgb(216, 216, 216); stroke-linecap: round; stroke-linejoin: round; stroke-width: 4px; stroke: rgb(152, 154, 153); transform-box: fill-box; transform-origin: 50% 50%;" x1="403.503" y1="75.843" x2="402.709" y2="34.281" transform="matrix(0.000001, 1, -1, 0.000001, -0.000021, 0.000014)"/>
  <line style="fill: rgb(216, 216, 216); stroke-width: 4px; stroke-linecap: round; stroke-linejoin: round; stroke: rgb(152, 154, 153); transform-box: fill-box; transform-origin: 50% 50%;" x1="395.883" y1="73.841" x2="428.6" y2="73.783" transform="matrix(0.000001, 1, -1, 0.000001, -0.000026, 0.000037)"/>
  <line style="fill: rgb(216, 216, 216); stroke-linecap: round; stroke-width: 4px; stroke: rgb(152, 154, 153); transform-box: fill-box; transform-origin: 50% 50%;" x1="391.004" y1="100.099" x2="391.017" y2="83.005" transform="matrix(0.000001, 1, -1, 0.000001, 0.000016, -0.000014)"/>
  <line style="fill: rgb(216, 216, 216); stroke-width: 3px; stroke: rgb(152, 154, 153); transform-box: fill-box; transform-origin: 50% 50%;" x1="404.882" y1="253.117" x2="404.211" y2="208.032" transform="matrix(0.000001, 1, -1, 0.000001, -0.000029, 0.000043)"/>
  <line style="fill: rgb(216, 216, 216); stroke-width: 5px; stroke: rgb(152, 154, 153); transform-box: fill-box; transform-origin: 50% 50%;" x1="407" y1="371.913" x2="406.433" y2="328.609" transform="matrix(0.000001, 1, -1, 0.000001, 0.000047, 0.000017)"/>
  <line style="fill: rgb(216, 216, 216); stroke-width: 5px; stroke: rgb(152, 154, 153); transform-box: fill-box; transform-origin: 50% 50%;" x1="260.939" y1="394.666" x2="326.9" y2="393.356" transform="matrix(0.000001, 1, -1, 0.000001, 0.000012, 0.000025)"/>
  <line style="fill: rgb(216, 216, 216); stroke-width: 5px; stroke: rgb(152, 154, 153); transform-box: fill-box; transform-origin: 50% 50%;" x1="98.876" y1="395.147" x2="158.858" y2="395.514" transform="matrix(0.000001, 1, -1, 0.000001, -0.000024, -0.000015)"/>
  <line style="fill: rgb(216, 216, 216); stroke-width: 3px; stroke: rgb(152, 154, 153); transform-box: fill-box; transform-origin: 50% 50%;" x1="93.16" y1="260.234" x2="94.207" y2="307.379" transform="matrix(0.000001, 1, -1, 0.000001, -0.000002, 0.000002)"/>
  <line style="fill: rgb(216, 216, 216); stroke-width: 3px; stroke: rgb(152, 154, 153); transform-box: fill-box; transform-origin: 50% 50%;" x1="92.86" y1="194.1" x2="92.828" y2="244.912" transform="matrix(0.000001, 1, -1, 0.000001, -0.000007, -0.00001)"/>
  <line style="fill: rgb(216, 216, 216); stroke-width: 3px; stroke: rgb(152, 154, 153); transform-box: fill-box; transform-origin: 50% 50%;" x1="93.32" y1="108.301" x2="94.351" y2="157.061" transform="matrix(0.000001, 1, -1, 0.000001, 0.000011, 0.000001)"/>
  <line style="fill: rgb(216, 216, 216); stroke-width: 3px; stroke: rgb(152, 154, 153); transform-box: fill-box; transform-origin: 50% 50%;" x1="93.659" y1="5.459" x2="93.102" y2="57.346" transform="matrix(0.000001, 1, -1, 0.000001, -0.000003, -0.000004)"/>
  <path style="stroke: rgb(0, 0, 0); fill: rgba(154, 152, 152, 0.424); transform-box: fill-box; transform-origin: 50% 50%;" d="M 377.53 -5.513 L 377.287 -32.962 C 377.993 -37.837 407.891 -27.476 404.739 -5.719" transform="matrix(0.000001, 1, -1, 0.000001, 0.000011, -0.000009)"/>
  <path style="stroke: rgb(0, 0, 0); fill: rgba(216, 216, 216, 0.827); transform-box: fill-box; transform-origin: 50% 50%;" d="M 376.372 196.259 L 376.139 173.438 C 376.815 169.385 405.449 177.999 402.43 196.088" transform="matrix(0.000001, 1, -1, 0.000001, 0.000037, -0.000017)"/>
  <path style="stroke: rgb(0, 0, 0); fill: rgba(216, 216, 216, 0.647); transform-box: fill-box; transform-origin: 50% 50%;" d="M 379.005 286.007 L 378.762 258.558 C 379.468 253.684 409.365 264.044 406.213 285.801" transform="matrix(0.000001, 1, -1, 0.000001, -0.000008, -0.000016)"/>
  <path style="stroke: rgb(0, 0, 0); fill: rgba(216, 216, 216, 0.73); transform-box: fill-box; transform-origin: 50% 50%;" d="M 396.831 111.222 L 396.695 90.647 C 397.09 86.993 413.785 94.759 412.025 111.068" transform="matrix(-0.99993, -0.011831, 0.011831, -0.99993, -0.00007, -0.000013)"/>
  <g transform="matrix(0.000004, 0.064622, -0.039856, 0, 92.938278, -114.943024)" style="transform-origin: 197.5px 197.5px;">
    <g>
      <path d="M162.595,215.213c10.282,0,18.619-8.329,18.619-18.61c0-10.28-8.337-18.617-18.619-18.617&#10;&#9;&#9;&#9;c-10.278,0-18.62,8.337-18.62,18.617C143.975,206.884,152.317,215.213,162.595,215.213z"/>
      <path d="M162.597,217.82c-22.292,0-28.766,9.367-31.487,45.558c-0.245,3.253,2.194,6.088,5.447,6.333&#10;&#9;&#9;&#9;c0.151,0.011,0.3,0.017,0.449,0.017c3.061,0,5.65-2.362,5.884-5.464c1.004-13.358,2.317-21.55,4.262-26.59&#10;&#9;&#9;&#9;c-0.198,0.997-0.306,2.026-0.306,3.082v22.722c0,1.22,0.152,2.4,0.414,3.54v49.899c0,3.806,3.085,6.891,6.891,6.891&#10;&#9;&#9;&#9;c3.806,0,6.891-3.085,6.891-6.891V279.15c0.512,0.05,1.03,0.078,1.555,0.078c0.522,0,1.038-0.028,1.547-0.078v37.767&#10;&#9;&#9;&#9;c0,3.806,3.086,6.891,6.891,6.891c3.806,0,6.891-3.085,6.891-6.891v-49.87c0.267-1.148,0.421-2.34,0.421-3.569v-22.722&#10;&#9;&#9;&#9;c0-1.054-0.108-2.082-0.305-3.077c1.943,5.04,3.255,13.23,4.258,26.584c0.245,3.253,3.085,5.69,6.332,5.448&#10;&#9;&#9;&#9;c3.253-0.245,5.692-3.08,5.448-6.333C191.362,227.188,184.888,217.82,162.597,217.82z"/>
      <path d="M232.403,215.213c10.28,0,18.622-8.329,18.622-18.61c0-10.28-8.342-18.617-18.622-18.617&#10;&#9;&#9;&#9;c-10.28,0-18.617,8.337-18.617,18.617C213.786,206.884,222.123,215.213,232.403,215.213z"/>
      <path d="M232.403,217.82c-22.291,0-28.765,9.367-31.484,45.558c-0.244,3.253,2.194,6.088,5.448,6.333&#10;&#9;&#9;&#9;c0.15,0.011,0.3,0.017,0.449,0.017c3.061,0,5.65-2.362,5.884-5.465c0.95-12.643,2.176-20.655,3.953-25.752v18.059l-5.862,26.342&#10;&#9;&#9;&#9;c-0.114,0.513,0.011,1.049,0.339,1.459c0.329,0.41,0.825,0.648,1.351,0.648h4.589v31.898c0,3.806,3.085,6.891,6.891,6.891&#10;&#9;&#9;&#9;c3.806,0,6.891-3.085,6.891-6.891v-31.898h3.104v31.898c0,3.806,3.085,6.891,6.891,6.891c3.806,0,6.891-3.085,6.891-6.891v-31.898&#10;&#9;&#9;&#9;h4.594c0.007,0,0.013,0,0.02,0c0.956,0,1.731-0.775,1.731-1.731c0-0.222-0.041-0.434-0.117-0.628l-5.812-26.111v-18.049&#10;&#9;&#9;&#9;c1.779,5.096,3.006,13.111,3.956,25.764c0.244,3.253,3.083,5.693,6.333,5.448c3.253-0.244,5.692-3.08,5.448-6.333&#10;&#9;&#9;&#9;C261.173,227.188,254.699,217.82,232.403,217.82z"/>
      <path d="M277.102,135.343H117.898c-17.925,0-32.508,14.583-32.508,32.508v159.204c0,17.925,14.583,32.509,32.508,32.509h159.204&#10;&#9;&#9;&#9;c17.925,0,32.509-14.584,32.509-32.509V167.851C309.61,149.926,295.027,135.343,277.102,135.343z M289.61,327.055&#10;&#9;&#9;&#9;c0,6.897-5.611,12.509-12.509,12.509H117.898c-6.897,0-12.508-5.611-12.508-12.509V167.851c0-6.896,5.611-12.508,12.508-12.508&#10;&#9;&#9;&#9;h159.204c6.897,0,12.509,5.611,12.509,12.508V327.055z"/>
      <path d="M149.674,72.483c0.976-0.977,1.953-1.953,2.929-2.929v36.549c0,1.647-0.051,3.267,0.445,4.87&#10;&#9;&#9;&#9;c1.341,4.338,5.583,7.275,10.113,7.026c4.511-0.248,8.398-3.633,9.258-8.068c0.267-1.376,0.184-2.821,0.184-4.217v-36.16&#10;&#9;&#9;&#9;c2.332,2.331,4.477,4.891,7.864,5.628c5.099,1.109,10.35-2.028,11.763-7.057c1.014-3.606-0.121-7.351-2.738-9.969l-19.815-19.815&#10;&#9;&#9;&#9;c-3.076-3.075-7.951-3.794-11.789-1.747c-1.587,0.85-2.783,2.174-4.038,3.429l-17.556,17.556c-0.871,0.87-1.715,1.733-2.342,2.813&#10;&#9;&#9;&#9;c-1.588,2.731-1.777,6.146-0.508,9.04C136.225,75.774,144.783,77.374,149.674,72.483z"/>
      <path d="M225.325,115.109c3.076,3.076,7.951,3.794,11.789,1.748c1.587-0.851,2.783-2.174,4.038-3.429l17.556-17.556&#10;&#9;&#9;&#9;c0.871-0.871,1.715-1.733,2.342-2.813c1.588-2.732,1.777-6.147,0.508-9.041c-2.782-6.343-11.34-7.941-16.231-3.051&#10;&#9;&#9;&#9;c-0.976,0.975-1.953,1.952-2.929,2.929V47.349c0-1.648,0.051-3.267-0.445-4.87c-1.341-4.338-5.583-7.276-10.113-7.027&#10;&#9;&#9;&#9;c-4.511,0.248-8.398,3.633-9.258,8.069c-0.267,1.375-0.184,2.821-0.184,4.217v36.16c-2.332-2.332-4.477-4.891-7.864-5.628&#10;&#9;&#9;&#9;c-5.099-1.11-10.35,2.028-11.763,7.056c-1.014,3.606,0.121,7.352,2.738,9.969L225.325,115.109z"/>
    </g>
  </g>
  <g transform="matrix(0, 0.076002, -0.063628, 0, 305.91391, 67.132294)" style=""/>
  <g transform="matrix(0, 0.076002, -0.063628, 0, 305.91391, 67.132294)" style=""/>
  <g transform="matrix(0, 0.076002, -0.063628, 0, 305.91391, 67.132294)" style=""/>
  <g transform="matrix(0, 0.076002, -0.063628, 0, 305.91391, 67.132294)" style=""/>
  <g transform="matrix(0, 0.076002, -0.063628, 0, 305.91391, 67.132294)" style=""/>
  <g transform="matrix(0, 0.076002, -0.063628, 0, 305.91391, 67.132294)" style=""/>
  <g transform="matrix(0, 0.076002, -0.063628, 0, 305.91391, 67.132294)" style=""/>
  <g transform="matrix(0, 0.076002, -0.063628, 0, 305.91391, 67.132294)" style=""/>
  <g transform="matrix(0, 0.076002, -0.063628, 0, 305.91391, 67.132294)" style=""/>
  <g transform="matrix(0, 0.076002, -0.063628, 0, 305.91391, 67.132294)" style=""/>
  <g transform="matrix(0, 0.076002, -0.063628, 0, 305.91391, 67.132294)" style=""/>
  <g transform="matrix(0, 0.076002, -0.063628, 0, 305.91391, 67.132294)" style=""/>
  <g transform="matrix(0, 0.076002, -0.063628, 0, 305.91391, 67.132294)" style=""/>
  <g transform="matrix(0, 0.076002, -0.063628, 0, 305.91391, 67.132294)" style=""/>
  <g transform="matrix(0, 0.076002, -0.063628, 0, 305.91391, 67.132294)" style=""/>
  <g transform="matrix(0.000004, 0.064622, -0.039856, 0, 73.015427, -115.492813)" style="transform-origin: 197.5px 197.5px;">
    <g>
      <path d="M162.595,215.213c10.282,0,18.619-8.329,18.619-18.61c0-10.28-8.337-18.617-18.619-18.617&#10;&#9;&#9;&#9;c-10.278,0-18.62,8.337-18.62,18.617C143.975,206.884,152.317,215.213,162.595,215.213z" style=""/>
      <path d="M162.597,217.82c-22.292,0-28.766,9.367-31.487,45.558c-0.245,3.253,2.194,6.088,5.447,6.333&#10;&#9;&#9;&#9;c0.151,0.011,0.3,0.017,0.449,0.017c3.061,0,5.65-2.362,5.884-5.464c1.004-13.358,2.317-21.55,4.262-26.59&#10;&#9;&#9;&#9;c-0.198,0.997-0.306,2.026-0.306,3.082v22.722c0,1.22,0.152,2.4,0.414,3.54v49.899c0,3.806,3.085,6.891,6.891,6.891&#10;&#9;&#9;&#9;c3.806,0,6.891-3.085,6.891-6.891V279.15c0.512,0.05,1.03,0.078,1.555,0.078c0.522,0,1.038-0.028,1.547-0.078v37.767&#10;&#9;&#9;&#9;c0,3.806,3.086,6.891,6.891,6.891c3.806,0,6.891-3.085,6.891-6.891v-49.87c0.267-1.148,0.421-2.34,0.421-3.569v-22.722&#10;&#9;&#9;&#9;c0-1.054-0.108-2.082-0.305-3.077c1.943,5.04,3.255,13.23,4.258,26.584c0.245,3.253,3.085,5.69,6.332,5.448&#10;&#9;&#9;&#9;c3.253-0.245,5.692-3.08,5.448-6.333C191.362,227.188,184.888,217.82,162.597,217.82z" style=""/>
      <path d="M232.403,215.213c10.28,0,18.622-8.329,18.622-18.61c0-10.28-8.342-18.617-18.622-18.617&#10;&#9;&#9;&#9;c-10.28,0-18.617,8.337-18.617,18.617C213.786,206.884,222.123,215.213,232.403,215.213z" style=""/>
      <path d="M232.403,217.82c-22.291,0-28.765,9.367-31.484,45.558c-0.244,3.253,2.194,6.088,5.448,6.333&#10;&#9;&#9;&#9;c0.15,0.011,0.3,0.017,0.449,0.017c3.061,0,5.65-2.362,5.884-5.465c0.95-12.643,2.176-20.655,3.953-25.752v18.059l-5.862,26.342&#10;&#9;&#9;&#9;c-0.114,0.513,0.011,1.049,0.339,1.459c0.329,0.41,0.825,0.648,1.351,0.648h4.589v31.898c0,3.806,3.085,6.891,6.891,6.891&#10;&#9;&#9;&#9;c3.806,0,6.891-3.085,6.891-6.891v-31.898h3.104v31.898c0,3.806,3.085,6.891,6.891,6.891c3.806,0,6.891-3.085,6.891-6.891v-31.898&#10;&#9;&#9;&#9;h4.594c0.007,0,0.013,0,0.02,0c0.956,0,1.731-0.775,1.731-1.731c0-0.222-0.041-0.434-0.117-0.628l-5.812-26.111v-18.049&#10;&#9;&#9;&#9;c1.779,5.096,3.006,13.111,3.956,25.764c0.244,3.253,3.083,5.693,6.333,5.448c3.253-0.244,5.692-3.08,5.448-6.333&#10;&#9;&#9;&#9;C261.173,227.188,254.699,217.82,232.403,217.82z" style=""/>
      <path d="M277.102,135.343H117.898c-17.925,0-32.508,14.583-32.508,32.508v159.204c0,17.925,14.583,32.509,32.508,32.509h159.204&#10;&#9;&#9;&#9;c17.925,0,32.509-14.584,32.509-32.509V167.851C309.61,149.926,295.027,135.343,277.102,135.343z M289.61,327.055&#10;&#9;&#9;&#9;c0,6.897-5.611,12.509-12.509,12.509H117.898c-6.897,0-12.508-5.611-12.508-12.509V167.851c0-6.896,5.611-12.508,12.508-12.508&#10;&#9;&#9;&#9;h159.204c6.897,0,12.509,5.611,12.509,12.508V327.055z" style=""/>
      <path d="M149.674,72.483c0.976-0.977,1.953-1.953,2.929-2.929v36.549c0,1.647-0.051,3.267,0.445,4.87&#10;&#9;&#9;&#9;c1.341,4.338,5.583,7.275,10.113,7.026c4.511-0.248,8.398-3.633,9.258-8.068c0.267-1.376,0.184-2.821,0.184-4.217v-36.16&#10;&#9;&#9;&#9;c2.332,2.331,4.477,4.891,7.864,5.628c5.099,1.109,10.35-2.028,11.763-7.057c1.014-3.606-0.121-7.351-2.738-9.969l-19.815-19.815&#10;&#9;&#9;&#9;c-3.076-3.075-7.951-3.794-11.789-1.747c-1.587,0.85-2.783,2.174-4.038,3.429l-17.556,17.556c-0.871,0.87-1.715,1.733-2.342,2.813&#10;&#9;&#9;&#9;c-1.588,2.731-1.777,6.146-0.508,9.04C136.225,75.774,144.783,77.374,149.674,72.483z" style=""/>
      <path d="M225.325,115.109c3.076,3.076,7.951,3.794,11.789,1.748c1.587-0.851,2.783-2.174,4.038-3.429l17.556-17.556&#10;&#9;&#9;&#9;c0.871-0.871,1.715-1.733,2.342-2.813c1.588-2.732,1.777-6.147,0.508-9.041c-2.782-6.343-11.34-7.941-16.231-3.051&#10;&#9;&#9;&#9;c-0.976,0.975-1.953,1.952-2.929,2.929V47.349c0-1.648,0.051-3.267-0.445-4.87c-1.341-4.338-5.583-7.276-10.113-7.027&#10;&#9;&#9;&#9;c-4.511,0.248-8.398,3.633-9.258,8.069c-0.267,1.375-0.184,2.821-0.184,4.217v36.16c-2.332-2.332-4.477-4.891-7.864-5.628&#10;&#9;&#9;&#9;c-5.099-1.11-10.35,2.028-11.763,7.056c-1.014,3.606,0.121,7.352,2.738,9.969L225.325,115.109z" style=""/>
    </g>
  </g>
  <g transform="matrix(0.000004, 0.064622, -0.039856, 0, 51.000313, -115.906532)" style="transform-origin: 197.5px 197.5px;">
    <g>
      <path d="M162.595,215.213c10.282,0,18.619-8.329,18.619-18.61c0-10.28-8.337-18.617-18.619-18.617&#10;&#9;&#9;&#9;c-10.278,0-18.62,8.337-18.62,18.617C143.975,206.884,152.317,215.213,162.595,215.213z"/>
      <path d="M162.597,217.82c-22.292,0-28.766,9.367-31.487,45.558c-0.245,3.253,2.194,6.088,5.447,6.333&#10;&#9;&#9;&#9;c0.151,0.011,0.3,0.017,0.449,0.017c3.061,0,5.65-2.362,5.884-5.464c1.004-13.358,2.317-21.55,4.262-26.59&#10;&#9;&#9;&#9;c-0.198,0.997-0.306,2.026-0.306,3.082v22.722c0,1.22,0.152,2.4,0.414,3.54v49.899c0,3.806,3.085,6.891,6.891,6.891&#10;&#9;&#9;&#9;c3.806,0,6.891-3.085,6.891-6.891V279.15c0.512,0.05,1.03,0.078,1.555,0.078c0.522,0,1.038-0.028,1.547-0.078v37.767&#10;&#9;&#9;&#9;c0,3.806,3.086,6.891,6.891,6.891c3.806,0,6.891-3.085,6.891-6.891v-49.87c0.267-1.148,0.421-2.34,0.421-3.569v-22.722&#10;&#9;&#9;&#9;c0-1.054-0.108-2.082-0.305-3.077c1.943,5.04,3.255,13.23,4.258,26.584c0.245,3.253,3.085,5.69,6.332,5.448&#10;&#9;&#9;&#9;c3.253-0.245,5.692-3.08,5.448-6.333C191.362,227.188,184.888,217.82,162.597,217.82z"/>
      <path d="M232.403,215.213c10.28,0,18.622-8.329,18.622-18.61c0-10.28-8.342-18.617-18.622-18.617&#10;&#9;&#9;&#9;c-10.28,0-18.617,8.337-18.617,18.617C213.786,206.884,222.123,215.213,232.403,215.213z"/>
      <path d="M232.403,217.82c-22.291,0-28.765,9.367-31.484,45.558c-0.244,3.253,2.194,6.088,5.448,6.333&#10;&#9;&#9;&#9;c0.15,0.011,0.3,0.017,0.449,0.017c3.061,0,5.65-2.362,5.884-5.465c0.95-12.643,2.176-20.655,3.953-25.752v18.059l-5.862,26.342&#10;&#9;&#9;&#9;c-0.114,0.513,0.011,1.049,0.339,1.459c0.329,0.41,0.825,0.648,1.351,0.648h4.589v31.898c0,3.806,3.085,6.891,6.891,6.891&#10;&#9;&#9;&#9;c3.806,0,6.891-3.085,6.891-6.891v-31.898h3.104v31.898c0,3.806,3.085,6.891,6.891,6.891c3.806,0,6.891-3.085,6.891-6.891v-31.898&#10;&#9;&#9;&#9;h4.594c0.007,0,0.013,0,0.02,0c0.956,0,1.731-0.775,1.731-1.731c0-0.222-0.041-0.434-0.117-0.628l-5.812-26.111v-18.049&#10;&#9;&#9;&#9;c1.779,5.096,3.006,13.111,3.956,25.764c0.244,3.253,3.083,5.693,6.333,5.448c3.253-0.244,5.692-3.08,5.448-6.333&#10;&#9;&#9;&#9;C261.173,227.188,254.699,217.82,232.403,217.82z"/>
      <path d="M277.102,135.343H117.898c-17.925,0-32.508,14.583-32.508,32.508v159.204c0,17.925,14.583,32.509,32.508,32.509h159.204&#10;&#9;&#9;&#9;c17.925,0,32.509-14.584,32.509-32.509V167.851C309.61,149.926,295.027,135.343,277.102,135.343z M289.61,327.055&#10;&#9;&#9;&#9;c0,6.897-5.611,12.509-12.509,12.509H117.898c-6.897,0-12.508-5.611-12.508-12.509V167.851c0-6.896,5.611-12.508,12.508-12.508&#10;&#9;&#9;&#9;h159.204c6.897,0,12.509,5.611,12.509,12.508V327.055z"/>
      <path d="M149.674,72.483c0.976-0.977,1.953-1.953,2.929-2.929v36.549c0,1.647-0.051,3.267,0.445,4.87&#10;&#9;&#9;&#9;c1.341,4.338,5.583,7.275,10.113,7.026c4.511-0.248,8.398-3.633,9.258-8.068c0.267-1.376,0.184-2.821,0.184-4.217v-36.16&#10;&#9;&#9;&#9;c2.332,2.331,4.477,4.891,7.864,5.628c5.099,1.109,10.35-2.028,11.763-7.057c1.014-3.606-0.121-7.351-2.738-9.969l-19.815-19.815&#10;&#9;&#9;&#9;c-3.076-3.075-7.951-3.794-11.789-1.747c-1.587,0.85-2.783,2.174-4.038,3.429l-17.556,17.556c-0.871,0.87-1.715,1.733-2.342,2.813&#10;&#9;&#9;&#9;c-1.588,2.731-1.777,6.146-0.508,9.04C136.225,75.774,144.783,77.374,149.674,72.483z"/>
      <path d="M225.325,115.109c3.076,3.076,7.951,3.794,11.789,1.748c1.587-0.851,2.783-2.174,4.038-3.429l17.556-17.556&#10;&#9;&#9;&#9;c0.871-0.871,1.715-1.733,2.342-2.813c1.588-2.732,1.777-6.147,0.508-9.041c-2.782-6.343-11.34-7.941-16.231-3.051&#10;&#9;&#9;&#9;c-0.976,0.975-1.953,1.952-2.929,2.929V47.349c0-1.648,0.051-3.267-0.445-4.87c-1.341-4.338-5.583-7.276-10.113-7.027&#10;&#9;&#9;&#9;c-4.511,0.248-8.398,3.633-9.258,8.069c-0.267,1.375-0.184,2.821-0.184,4.217v36.16c-2.332-2.332-4.477-4.891-7.864-5.628&#10;&#9;&#9;&#9;c-5.099-1.11-10.35,2.028-11.763,7.056c-1.014,3.606,0.121,7.352,2.738,9.969L225.325,115.109z"/>
    </g>
  </g>
  <path style="stroke: rgb(0, 0, 0); fill: rgba(216, 216, 216, 0.647); transform-box: fill-box; transform-origin: 50% 50%;" d="M 343.075 385.742 L 342.832 358.293 C 343.538 353.419 373.435 363.779 370.283 385.536" transform="matrix(-0.999852, 0.017228, -0.017228, -0.999852, -0.000036, -0.000011)"/>
  <g id="XMLID_1500_" transform="matrix(0.000001, 0.041642, -0.044102, -0.000001, 147.770645, 86.671234)" style="transform-origin: 149.45px 149.449px;">
    <g>
      <g>
        <path d="M21.067,139.301l15.336-38.143l13.554-8.399l-13.682,59.382l0.162,0.037c-0.355,1.495-0.456,3.076-0.231,4.689&#10;&#9;&#9;&#9;&#9;l2.824,20.293l23.907-12.884l-0.862-6.191l2.903,0.669l2.581,3.031c5.94-3.201,23.256-12.533,29.196-15.735l-0.369-0.042&#10;&#9;&#9;&#9;&#9;c-9.662-1.099-16.193-8.547-17.487-13.779L68.168,88.865l20.914,40.846c1.669,3.257,4.855,5.463,8.491,5.877l43.375,4.935&#10;&#9;&#9;&#9;&#9;c5.675,0.646,10.867-3.188,11.956-8.744c1.23-6.28-3.151-12.249-9.485-12.969l-37.554-4.273l-18.94-36.99l23.674,26.54&#10;&#9;&#9;&#9;&#9;l4.506-19.56c2.02-8.768-3.45-17.514-12.218-19.533c-24.214-5.489-29.606-7.188-32.562-7.439&#10;&#9;&#9;&#9;&#9;c-2.712-0.23-5.619,0.358-8.115,1.905L21.846,84.471c-1.979,1.226-3.514,3.052-4.382,5.212L0.792,131.15&#10;&#9;&#9;&#9;&#9;c-2.251,5.599,0.463,11.963,6.062,14.214C12.46,147.617,18.819,144.893,21.067,139.301z" style=""/>
        <path d="M44.29,225.318l-5.547,52.959c-0.785,7.497,5.086,14.054,12.674,14.054c6.433-0.001,11.957-4.863,12.643-11.402&#10;&#9;&#9;&#9;&#9;l6.329-60.42c0.207-1.979-0.01-2.774-0.848-8.799L44.29,225.318z" style=""/>
        <circle cx="100.175" cy="30.684" r="24.117" style=""/>
        <path d="M298.85,64.512c0-7.28-7.808-11.935-14.216-8.449l-122.242,66.496c1.063,3.016,1.441,6.257,1.069,9.528&#10;&#9;&#9;&#9;&#9;c-1.331,11.701-11.909,20.199-23.7,18.858l-24.441-2.781L10.822,205.008c-3.095,1.684-5.023,4.926-5.023,8.449&#10;&#9;&#9;&#9;&#9;c0,8.407,0,61.724,0,69.255c0,5.313,4.306,9.619,9.619,9.619c5.312,0,9.619-4.306,9.619-9.619c0-7.121,0-56.302,0-63.537&#10;&#9;&#9;&#9;&#9;L279.612,80.694c0,4.789,0,101.721,0,106.473h-32.958c-1.761,0-3.189,1.427-3.189,3.189v23.102h-52.244&#10;&#9;&#9;&#9;&#9;c-1.761,0-3.189,1.427-3.189,3.189v23.102h-52.244c-1.761,0-3.189,1.427-3.189,3.189v23.102h-27.492&#10;&#9;&#9;&#9;&#9;c2.727-1.791,4.772-4.62,5.481-8.068l12.816-62.301c0.777-3.776-0.06-7.625-3.173-11.281l-23.05,12.422l-11.526,56.032&#10;&#9;&#9;&#9;&#9;c-1.082,5.258,1.255,10.417,5.483,13.196H80.355c-1.761,0-3.189,1.427-3.189,3.189v19.914c0,1.761,1.427,3.189,3.189,3.189&#10;&#9;&#9;&#9;&#9;H295.71c1.761,0,3.189-1.427,3.189-3.189C298.899,178.359,298.85,221.994,298.85,64.512z" style=""/>
      </g>
    </g>
  </g>
  <g transform="matrix(-0.000002, 0.107104, -0.104379, -0.000001, 360.42926, 164.266739)" style=""/>
  <g transform="matrix(-0.000002, 0.107104, -0.104379, -0.000001, 360.42926, 164.266739)" style=""/>
  <g transform="matrix(-0.000002, 0.107104, -0.104379, -0.000001, 360.42926, 164.266739)" style=""/>
  <g transform="matrix(-0.000002, 0.107104, -0.104379, -0.000001, 360.42926, 164.266739)" style=""/>
  <g transform="matrix(-0.000002, 0.107104, -0.104379, -0.000001, 360.42926, 164.266739)" style=""/>
  <g transform="matrix(-0.000002, 0.107104, -0.104379, -0.000001, 360.42926, 164.266739)" style=""/>
  <g transform="matrix(-0.000002, 0.107104, -0.104379, -0.000001, 360.42926, 164.266739)" style=""/>
  <g transform="matrix(-0.000002, 0.107104, -0.104379, -0.000001, 360.42926, 164.266739)" style=""/>
  <g transform="matrix(-0.000002, 0.107104, -0.104379, -0.000001, 360.42926, 164.266739)" style=""/>
  <g transform="matrix(-0.000002, 0.107104, -0.104379, -0.000001, 360.42926, 164.266739)" style=""/>
  <g transform="matrix(-0.000002, 0.107104, -0.104379, -0.000001, 360.42926, 164.266739)" style=""/>
  <g transform="matrix(-0.000002, 0.107104, -0.104379, -0.000001, 360.42926, 164.266739)" style=""/>
  <g transform="matrix(-0.000002, 0.107104, -0.104379, -0.000001, 360.42926, 164.266739)" style=""/>
  <g transform="matrix(-0.000002, 0.107104, -0.104379, -0.000001, 360.42926, 164.266739)" style=""/>
  <g transform="matrix(-0.000002, 0.107104, -0.104379, -0.000001, 360.42926, 164.266739)" style=""/>
  <line style="fill: rgb(216, 216, 216); stroke-width: 3px; stroke: rgb(152, 154, 153); transform-box: fill-box; transform-origin: 50% 50%;" x1="406.611" y1="162.24" x2="405.94" y2="117.155" transform="matrix(0.000001, 1, -1, 0.000001, -0.00004, 0.000007)"/>
  <text style="fill: rgb(51, 51, 51); font-family: 'Times New Roman'; font-size: 25.6717px; font-weight: 700; white-space: pre; transform-box: fill-box; transform-origin: 50% 50%;" transform="matrix(0, 0.399685, -0.671611, 0, 325.457611, -60.263454)" x="30.917" y="86.28">المكتب الاول</text>
  <text style="fill: rgb(51, 51, 51); font-family: 'Times New Roman'; font-size: 25.6717px; font-weight: 700; white-space: pre; transform-box: fill-box; transform-origin: 50% 50%;" transform="matrix(0, 0.399685, -0.671611, 0, 347.269043, 100.039124)" x="30.917" y="86.28">الارشيف</text>
  <text style="fill: rgb(51, 51, 51); font-family: 'Times New Roman'; font-size: 25.6717px; font-weight: 700; white-space: pre; transform-box: fill-box; transform-origin: 50% 50%;" transform="matrix(0.399686, 0, 0, 0.671611, 350.351044, 208.907364)" x="30.917" y="86.28">المصلى</text>
  <text style="fill: rgb(51, 51, 51); font-family: 'Times New Roman'; font-size: 25.6717px; font-weight: 700; white-space: pre; transform-box: fill-box; transform-origin: 50% 50%;" transform="matrix(0.399685, 0.000001, 0, 0.67161, 306.01535, 313.123627)" x="30.917" y="86.28">المكتب الثاني</text>
  <text style="fill: rgb(51, 51, 51); font-family: 'Times New Roman'; font-size: 25.6717px; font-weight: 700; white-space: pre; transform-box: fill-box; transform-origin: 50% 50%;" transform="matrix(0.399137, 0.020918, -0.035149, 0.670691, 146.59198, 318.647003)" x="30.917" y="86.28">المكتب الثالث</text>
  <text style="fill: rgb(51, 51, 51); font-family: 'Times New Roman'; font-size: 25.6717px; font-weight: 700; white-space: pre; transform-box: fill-box; transform-origin: 50% 50%;" transform="matrix(0.399442, -0.013949, 0.023439, 0.671202, 23.300173, 283.806244)" x="30.917" y="86.28">الموظفين</text>
  <text style="fill: rgb(51, 51, 51); font-family: 'Times New Roman'; font-size: 25.6717px; font-weight: 700; white-space: pre; transform-box: fill-box; transform-origin: 50% 50%;" transform="matrix(0.399442, -0.013949, 0.023439, 0.671202, 25.329643, 182.593765)" x="30.917" y="86.28">التواصل </text>
  <text style="fill: rgb(51, 51, 51); font-family: 'Times New Roman'; font-size: 25.6717px; font-weight: 700; white-space: pre; transform-box: fill-box; transform-origin: 50% 50%;" transform="matrix(0.399685, 0, 0, 0.671611, 11.54975, 95.182945)" x="30.917" y="86.28">الادارة العامة</text>
  <text style="fill: rgb(51, 51, 51); font-family: 'Times New Roman'; font-size: 25.6717px; font-weight: 700; white-space: pre; transform-box: fill-box; transform-origin: 50% 50%;" transform="matrix(0.399137, -0.020918, 0.035149, 0.670691, 30.247595, 3.531329)" x="30.917" y="86.28">الاستقبال</text>
  <text style="fill: rgb(51, 51, 51); font-family: 'Times New Roman'; font-size: 25.6717px; font-weight: 700; white-space: pre; transform-box: fill-box; transform-origin: 50% 50%;" transform="matrix(0.399686, 0, 0, 0.671611, 9.599059, -102.237495)" x="30.917" y="86.28">المكتب الاخير</text>
  <text style="white-space: pre; fill: rgb(51, 51, 51); font-family: Arial, sans-serif; font-size: 28px; transform-box: fill-box; transform-origin: 50% 50%;" x="413.318" y="339.995" transform="matrix(0.000001, 1, -1, 0.000001, -309.893188, 27.599323)"> </text>
  <g transform="matrix(-0.008664, -0.270517, 0.245172, -0.007854, 227.799606, 176.238876)" style=""/>
  <g transform="matrix(-0.008664, -0.270517, 0.245172, -0.007854, 227.799606, 176.238876)" style=""/>
  <g transform="matrix(-0.008664, -0.270517, 0.245172, -0.007854, 227.799606, 176.238876)" style=""/>
  <g transform="matrix(-0.008664, -0.270517, 0.245172, -0.007854, 227.799606, 176.238876)" style=""/>
  <g transform="matrix(-0.008664, -0.270517, 0.245172, -0.007854, 227.799606, 176.238876)" style=""/>
  <g transform="matrix(-0.008664, -0.270517, 0.245172, -0.007854, 227.799606, 176.238876)" style=""/>
  <g transform="matrix(-0.008664, -0.270517, 0.245172, -0.007854, 227.799606, 176.238876)" style=""/>
  <g transform="matrix(-0.008664, -0.270517, 0.245172, -0.007854, 227.799606, 176.238876)" style=""/>
  <g transform="matrix(-0.008664, -0.270517, 0.245172, -0.007854, 227.799606, 176.238876)" style=""/>
  <g transform="matrix(-0.008664, -0.270517, 0.245172, -0.007854, 227.799606, 176.238876)" style=""/>
  <g transform="matrix(-0.008664, -0.270517, 0.245172, -0.007854, 227.799606, 176.238876)" style=""/>
  <g transform="matrix(-0.008664, -0.270517, 0.245172, -0.007854, 227.799606, 176.238876)" style=""/>
  <g transform="matrix(-0.008664, -0.270517, 0.245172, -0.007854, 227.799606, 176.238876)" style=""/>
  <g transform="matrix(-0.008664, -0.270517, 0.245172, -0.007854, 227.799606, 176.238876)" style=""/>
  <g transform="matrix(-0.008664, -0.270517, 0.245172, -0.007854, 227.799606, 176.238876)" style=""/>
  <g transform="matrix(-0.053537, 0.001866, -0.00222, -0.063688, -21.243668, -76.479301)" style="transform-origin: 232.347px 232.347px;">
    <g>
      <g>
        <polygon style="fill:#010002;" points="294.856,110.557 271.527,133.861 353.528,215.854 64.199,215.854 64.199,248.824 &#10;&#9;&#9;&#9;&#9;353.528,248.824 271.535,330.817 294.856,354.154 416.671,232.347 &#9;&#9;&#9;"/>
      </g>
      <g>
        <path style="fill:#010002;" d="M232.347,0.008C104.233,0.008,0,104.225,0,232.347s104.233,232.339,232.347,232.339&#10;&#9;&#9;&#9;&#9;s232.347-104.225,232.347-232.339S360.462,0.008,232.347,0.008z M232.347,433.245c-110.776,0-200.906-90.13-200.906-200.898&#10;&#9;&#9;&#9;&#9;c0-110.776,90.13-200.898,200.906-200.898c110.768,0,200.906,90.122,200.906,200.898&#10;&#9;&#9;&#9;&#9;C433.253,343.115,343.115,433.245,232.347,433.245z"/>
      </g>
    </g>
  </g>
  <g transform="matrix(-0.053536, 0.001866, -0.00222, -0.063687, 224.058289, 172.630676)" style=""/>
  <g transform="matrix(-0.053536, 0.001866, -0.00222, -0.063687, 224.058289, 172.630676)" style=""/>
  <g transform="matrix(-0.053536, 0.001866, -0.00222, -0.063687, 224.058289, 172.630676)" style=""/>
  <g transform="matrix(-0.053536, 0.001866, -0.00222, -0.063687, 224.058289, 172.630676)" style=""/>
  <g transform="matrix(-0.053536, 0.001866, -0.00222, -0.063687, 224.058289, 172.630676)" style=""/>
  <g transform="matrix(-0.053536, 0.001866, -0.00222, -0.063687, 224.058289, 172.630676)" style=""/>
  <g transform="matrix(-0.053536, 0.001866, -0.00222, -0.063687, 224.058289, 172.630676)" style=""/>
  <g transform="matrix(-0.053536, 0.001866, -0.00222, -0.063687, 224.058289, 172.630676)" style=""/>
  <g transform="matrix(-0.053536, 0.001866, -0.00222, -0.063687, 224.058289, 172.630676)" style=""/>
  <g transform="matrix(-0.053536, 0.001866, -0.00222, -0.063687, 224.058289, 172.630676)" style=""/>
  <g transform="matrix(-0.053536, 0.001866, -0.00222, -0.063687, 224.058289, 172.630676)" style=""/>
  <g transform="matrix(-0.053536, 0.001866, -0.00222, -0.063687, 224.058289, 172.630676)" style=""/>
  <g transform="matrix(-0.053536, 0.001866, -0.00222, -0.063687, 224.058289, 172.630676)" style=""/>
  <g transform="matrix(-0.053536, 0.001866, -0.00222, -0.063687, 224.058289, 172.630676)" style=""/>
  <g transform="matrix(-0.053536, 0.001866, -0.00222, -0.063687, 224.058289, 172.630676)" style=""/>
  <g transform="matrix(0.053564, -0.000739, 0.00088, 0.063721, 38.630062, -70.757019)" style="transform-origin: 232.347px 232.347px;">
    <g>
      <g transform="matrix(1, 0, 0, 1, 443.463165, -1.266085)">
        <polygon style="fill: rgb(1, 0, 2); stroke-linecap: round; stroke-miterlimit: 12.87; stroke-width: 358.068px;" points="294.856,110.557 271.527,133.861 353.528,215.854 64.199,215.854 64.199,248.824 &#10;&#9;&#9;&#9;&#9;353.528,248.824 271.535,330.817 294.856,354.154 416.671,232.347 &#9;&#9;&#9;"/>
      </g>
      <g>
        <path style="fill: rgb(1, 0, 2); stroke-linecap: round; stroke-miterlimit: 12.87; stroke-width: 358.068px; visibility: hidden;" d="M232.347,0.008C104.233,0.008,0,104.225,0,232.347s104.233,232.339,232.347,232.339&#10;&#9;&#9;&#9;&#9;s232.347-104.225,232.347-232.339S360.462,0.008,232.347,0.008z M232.347,433.245c-110.776,0-200.906-90.13-200.906-200.898&#10;&#9;&#9;&#9;&#9;c0-110.776,90.13-200.898,200.906-200.898c110.768,0,200.906,90.122,200.906,200.898&#10;&#9;&#9;&#9;&#9;C433.253,343.115,343.115,433.245,232.347,433.245z"/>
      </g>
    </g>
  </g>
  <path style="stroke: rgb(0, 0, 0); fill: rgba(216, 216, 216, 0.827); transform-origin: 386.613px 70.711px;" d="M 373.589 82.615 L 373.356 59.794 C 374.032 55.741 402.666 64.355 399.647 82.444" transform="matrix(0.000001, 1, -1, 0.000001, -0.000013, 0.000017)"/>
  <path style="stroke: rgb(0, 0, 0); fill: rgba(216, 216, 216, 0.827); transform-origin: 316.712px 157.842px;" d="M 303.688 169.746 L 303.455 146.925 C 304.131 142.872 332.765 151.486 329.746 169.575" transform="matrix(0.000001, 1, -1, 0.000001, -0.000008, 0.000024)"/>
  <path style="stroke: rgb(0, 0, 0); fill: rgba(216, 216, 216, 0.647); transform-origin: 106.657px 53.31px;" d="M 93.058 67.627 L 92.815 40.178 C 93.521 35.304 123.418 45.664 120.266 67.421" transform="matrix(0.017452, -0.999848, 0.999848, 0.017452, -0.000002, 0.000006)"/>
  <path style="stroke: rgb(0, 0, 0); fill: rgba(216, 216, 216, 0.647); transform-origin: 108.025px 7.384px;" d="M 94.426 21.701 L 94.183 -5.748 C 94.889 -10.622 124.786 -0.262 121.634 21.495" transform="matrix(-0.000001, -1, 1, -0.000001, 0.000001, 0.000006)"/>
  <path style="stroke: rgb(0, 0, 0); fill: rgba(216, 216, 216, 0.647); transform-origin: 195.616px 371.424px;" d="M 182.017 385.741 L 181.774 358.292 C 182.48 353.418 212.377 363.778 209.225 385.535" transform="matrix(-0.999852, 0.017228, -0.017228, -0.999852, -0.000003, -0.000008)"/>
  <path style="stroke: rgb(0, 0, 0); fill: rgba(216, 216, 216, 0.647); transform-origin: 106.873px 302.131px;" d="M 93.274 316.448 L 93.031 288.999 C 93.737 284.125 123.634 294.485 120.482 316.242" transform="matrix(-0.000001, -1, 1, -0.000001, 0.000008, -0.000011)"/>
  <path style="stroke: rgb(0, 0, 0); fill: rgba(216, 216, 216, 0.647); transform-origin: 106.345px 236.561px;" d="M 92.746 250.878 L 92.503 223.429 C 93.209 218.555 123.106 228.915 119.954 250.672" transform="matrix(0.017502, -0.999847, 0.999847, 0.017502, 0.000002, -0.000009)"/>
</svg>