<?xml version="1.0" encoding="utf-8"?>
<svg viewBox="57.922 0 389.654 511.334" xmlns="http://www.w3.org/2000/svg" xmlns:bx="https://boxy-svg.com">
  <defs>
    <bx:grid x="157.922" y="-25.564" width="100" height="100"/>
  </defs>
  <rect x="7.442" y="7.975" width="482.048" height="362.24" style="stroke-linecap: round; transform-box: fill-box; transform-origin: 50% 50%; fill: rgba(168, 99, 99, 0); stroke-width: 5px; stroke-miterlimit: 15.25; stroke: rgb(255, 255, 255);" transform="matrix(0.000001, 1, -1, 0.000001, 1.317424, 69.88082)"/>
  <polyline style="fill: rgba(216, 216, 216, 0); stroke-linecap: round; stroke-linejoin: round; stroke-width: 5px; transform-box: fill-box; transform-origin: 50% 50%; stroke: rgb(255, 255, 255);" points="47.601 100.17 295.705 99.199 449.591 98.597 454.416 359.385 48.112 356.79" transform="matrix(0.000001, 1, -1, 0.000001, -0.000011, -0.000002)"/>
  <line style="fill: rgb(216, 216, 216); stroke-width: 7px; stroke: rgb(250, 250, 250); stroke-linecap: round; transform-box: fill-box; transform-origin: 50% 50%;" x1="366.961" y1="49.765" x2="392.41" y2="51.632" transform="matrix(-0.000001, -1, 1, -0.000001, 0.000016, 0.000007)"/>
  <line style="fill: rgb(216, 216, 216); stroke-width: 7px; stroke: rgb(250, 250, 250); stroke-linecap: round; transform-origin: 381.143px 255.103px;" x1="369.441" y1="254.002" x2="392.844" y2="256.205" transform="matrix(-0.000001, -1, 1, -0.000001, -0.000015, -0.000018)"/>
  <line style="fill: rgb(216, 216, 216); stroke-width: 7px; stroke: rgb(250, 250, 250); transform-origin: 381.334px 341.539px;" x1="365.898" y1="340.622" x2="396.772" y2="342.456" transform="matrix(-0.000001, -1, 1, -0.000001, -0.000001, -0.000028)"/>
  <line style="fill: rgb(216, 216, 216); stroke-width: 7px; stroke: rgb(250, 250, 250); transform-origin: 353.176px 428.367px;" x1="352.34" y1="441.033" x2="352.775" y2="409.249" transform="matrix(0.000001, 1, -1, 0.000001, 0.000004, 0.00001)"/>
  <line style="fill: rgb(216, 216, 216); stroke-width: 7px; stroke: rgb(250, 250, 250); transform-origin: 196.032px 431.89px;" x1="176.915" y1="432.29" x2="215.15" y2="431.489" transform="matrix(1, -0.000002, 0.000002, 1, 0, 0)"/>
  <rect x="129.508" y="116.09" width="180.514" height="121.284" style="fill: rgba(255, 255, 255, 0); stroke-linecap: round; stroke-linejoin: round; stroke-width: 6px; transform-box: fill-box; transform-origin: 50% 50%; stroke: rgb(242, 250, 246);" transform="matrix(0.000001, 1, -1, 0.000001, 42.3814, 53.542806)"/>
  <rect x="151.779" y="130.595" width="134.133" height="93.635" style="stroke-width: 4px; fill: rgba(0, 0, 0, 0); transform-box: fill-box; transform-origin: 50% 50%; stroke: rgb(255, 255, 255);" transform="matrix(0.000001, 1, -1, 0.000001, 42.620386, 51.942799)"/>
  <line style="fill: rgb(216, 216, 216); stroke: rgb(250, 250, 250); stroke-width: 6px; stroke-linecap: round; transform-origin: 288.606px 162.04px;" x1="288.64" y1="164.011" x2="288.049" y2="157.914" transform="matrix(0.000001, 1, -1, 0.000001, 0.000015, 0.00001)"/>
  <line style="fill: rgb(216, 216, 216); stroke: rgb(250, 250, 250); stroke-width: 0px; transform-origin: 282.023px 163.782px;" x1="282.076" y1="171.198" x2="281.516" y2="148.26" transform="matrix(0.000001, 1, -1, 0.000001, -0.000002, 0.000011)"/>
  <line style="fill: rgb(216, 216, 216); stroke: rgb(250, 250, 250); stroke-width: 5px; stroke-linecap: round; transform-box: fill-box; transform-origin: 231.751% 73.8658%;" x1="271.513" y1="155.502" x2="271.341" y2="164.58" transform="matrix(-0.000001, -1, 1, -0.000001, 0.000029, 0.000034)"/>
  <line style="fill: rgb(216, 216, 216); stroke: rgb(250, 250, 250); stroke-width: 5px; stroke-linecap: round; transform-origin: 245.419px 161.723px;" x1="244.963" y1="159.353" x2="244.618" y2="168.418" transform="matrix(-0.000001, -1, 1, -0.000001, 0.000009, -0.000007)"/>
  <line style="fill: rgb(216, 216, 216); stroke: rgb(250, 250, 250); stroke-width: 5px; transform-origin: 293.041px 296.19px;" x1="292.954" y1="299.901" x2="292.888" y2="285.704" transform="matrix(0.000001, 1, -1, 0.000001, 0.000013, 0.000008)"/>
  <line style="fill: rgb(216, 216, 216); stroke: rgb(250, 250, 250); stroke-width: 5px; transform-origin: 223.502px 296.772px;" x1="223.415" y1="300.483" x2="223.349" y2="286.286" transform="matrix(0.000001, 1, -1, 0.000001, -0.000008, 0.000013)"/>
  <line style="fill: rgb(216, 216, 216); stroke-linecap: round; stroke-linejoin: round; stroke-width: 4px; transform-box: fill-box; transform-origin: 50% 50%; stroke: rgb(244, 255, 250);" x1="404.82" y1="145.724" x2="404.026" y2="104.162" transform="matrix(0.000001, 1, -1, 0.000001, -0.000004, 0.000006)"/>
  <line style="fill: rgb(216, 216, 216); stroke-width: 4px; stroke-linecap: round; stroke-linejoin: round; transform-box: fill-box; transform-origin: 50% 50%; stroke: rgb(255, 255, 255);" x1="397.2" y1="143.722" x2="429.917" y2="143.664" transform="matrix(0.000001, 1, -1, 0.000001, 0.000001, 0.000022)"/>
  <line style="fill: rgb(216, 216, 216); stroke-linecap: round; stroke-width: 4px; transform-box: fill-box; transform-origin: 50% 50%; stroke: rgb(255, 255, 255);" x1="392.321" y1="169.98" x2="392.334" y2="152.886" transform="matrix(0.000001, 1, -1, 0.000001, -0.000012, 0.000005)"/>
  <line style="fill: rgb(216, 216, 216); stroke-width: 3px; transform-box: fill-box; transform-origin: 50% 50%; stroke: rgb(246, 250, 248);" x1="406.199" y1="322.998" x2="405.528" y2="277.913" transform="matrix(0.000001, 1, -1, 0.000001, -0.000019, 0.00001)"/>
  <line style="fill: rgb(216, 216, 216); stroke-width: 5px; transform-box: fill-box; transform-origin: 50% 50%; stroke: rgb(253, 255, 254);" x1="408.317" y1="441.794" x2="407.75" y2="398.49" transform="matrix(0.000001, 1, -1, 0.000001, -0.00001, 0.000012)"/>
  <line style="fill: rgb(216, 216, 216); stroke-width: 5px; transform-box: fill-box; transform-origin: 50% 50%; stroke: rgb(242, 255, 248);" x1="262.256" y1="464.547" x2="328.217" y2="463.237" transform="matrix(0.000001, 1, -1, 0.000001, 0.000004, 0.000021)"/>
  <line style="fill: rgb(216, 216, 216); stroke-width: 5px; transform-box: fill-box; transform-origin: 50% 50%; stroke: rgb(255, 255, 255);" x1="100.193" y1="465.028" x2="160.175" y2="465.395" transform="matrix(0.000001, 1, -1, 0.000001, 0.000015, 0.000015)"/>
  <line style="fill: rgb(216, 216, 216); stroke-width: 3px; transform-box: fill-box; transform-origin: 50% 50%; stroke: rgb(255, 255, 255);" x1="94.477" y1="330.115" x2="95.524" y2="377.26" transform="matrix(0.000001, 1, -1, 0.000001, -0.000005, -0.000009)"/>
  <line style="fill: rgb(216, 216, 216); stroke-width: 3px; transform-box: fill-box; transform-origin: 50% 50%; stroke: rgb(255, 255, 255);" x1="94.177" y1="263.981" x2="94.145" y2="314.793" transform="matrix(0.000001, 1, -1, 0.000001, -0.000009, -0.000008)"/>
  <line style="fill: rgb(216, 216, 216); stroke-width: 3px; transform-box: fill-box; transform-origin: 50% 50%; stroke: rgb(255, 255, 255);" x1="94.637" y1="178.182" x2="95.668" y2="226.942" transform="matrix(0.000001, 1, -1, 0.000001, -0.000017, -0.000015)"/>
  <line style="fill: rgb(216, 216, 216); stroke-width: 3px; transform-box: fill-box; transform-origin: 50% 50%; stroke: rgb(255, 255, 255);" x1="94.976" y1="75.34" x2="94.419" y2="127.227" transform="matrix(0.000001, 1, -1, 0.000001, 0.000006, -0.000011)"/>
  <path style="stroke: rgb(0, 0, 0); fill: rgba(154, 152, 152, 0.424); transform-box: fill-box; transform-origin: 50% 50%;" d="M 378.847 64.368 L 378.604 36.919 C 379.31 32.044 409.208 42.405 406.056 64.162" transform="matrix(0.000001, 1, -1, 0.000001, -0.000011, 0.000014)"/>
  <path style="stroke: rgb(0, 0, 0); fill: rgba(216, 216, 216, 0.827); transform-box: fill-box; transform-origin: 50% 50%;" d="M 377.689 266.14 L 377.456 243.319 C 378.132 239.266 406.766 247.88 403.747 265.969" transform="matrix(0.000001, 1, -1, 0.000001, 0.000015, -0.000007)"/>
  <path style="stroke: rgb(0, 0, 0); fill: rgba(216, 216, 216, 0.647); transform-box: fill-box; transform-origin: 50% 50%;" d="M 380.322 355.888 L 380.079 328.439 C 380.785 323.565 410.682 333.925 407.53 355.682" transform="matrix(0.000001, 1, -1, 0.000001, -0.000004, -0.000004)"/>
  <path style="stroke: rgb(0, 0, 0); fill: rgba(216, 216, 216, 0.73); transform-box: fill-box; transform-origin: 50% 50%;" d="M 398.148 181.103 L 398.012 160.528 C 398.407 156.874 415.102 164.64 413.342 180.949" transform="matrix(-0.99993, -0.011831, 0.011831, -0.99993, -0.000017, -0.000006)"/>
  <g transform="matrix(0.000004, 0.064622, -0.039856, 0, 94.255447, -45.062405)" style="transform-origin: 197.5px 197.5px;">
    <g>
      <path d="M162.595,215.213c10.282,0,18.619-8.329,18.619-18.61c0-10.28-8.337-18.617-18.619-18.617&#10;&#9;&#9;&#9;c-10.278,0-18.62,8.337-18.62,18.617C143.975,206.884,152.317,215.213,162.595,215.213z" style="fill: rgb(255, 255, 255);"/>
      <path d="M162.597,217.82c-22.292,0-28.766,9.367-31.487,45.558c-0.245,3.253,2.194,6.088,5.447,6.333&#10;&#9;&#9;&#9;c0.151,0.011,0.3,0.017,0.449,0.017c3.061,0,5.65-2.362,5.884-5.464c1.004-13.358,2.317-21.55,4.262-26.59&#10;&#9;&#9;&#9;c-0.198,0.997-0.306,2.026-0.306,3.082v22.722c0,1.22,0.152,2.4,0.414,3.54v49.899c0,3.806,3.085,6.891,6.891,6.891&#10;&#9;&#9;&#9;c3.806,0,6.891-3.085,6.891-6.891V279.15c0.512,0.05,1.03,0.078,1.555,0.078c0.522,0,1.038-0.028,1.547-0.078v37.767&#10;&#9;&#9;&#9;c0,3.806,3.086,6.891,6.891,6.891c3.806,0,6.891-3.085,6.891-6.891v-49.87c0.267-1.148,0.421-2.34,0.421-3.569v-22.722&#10;&#9;&#9;&#9;c0-1.054-0.108-2.082-0.305-3.077c1.943,5.04,3.255,13.23,4.258,26.584c0.245,3.253,3.085,5.69,6.332,5.448&#10;&#9;&#9;&#9;c3.253-0.245,5.692-3.08,5.448-6.333C191.362,227.188,184.888,217.82,162.597,217.82z" style="fill: rgb(255, 255, 255);"/>
      <path d="M232.403,215.213c10.28,0,18.622-8.329,18.622-18.61c0-10.28-8.342-18.617-18.622-18.617&#10;&#9;&#9;&#9;c-10.28,0-18.617,8.337-18.617,18.617C213.786,206.884,222.123,215.213,232.403,215.213z" style="fill: rgb(255, 255, 255);"/>
      <path d="M232.403,217.82c-22.291,0-28.765,9.367-31.484,45.558c-0.244,3.253,2.194,6.088,5.448,6.333&#10;&#9;&#9;&#9;c0.15,0.011,0.3,0.017,0.449,0.017c3.061,0,5.65-2.362,5.884-5.465c0.95-12.643,2.176-20.655,3.953-25.752v18.059l-5.862,26.342&#10;&#9;&#9;&#9;c-0.114,0.513,0.011,1.049,0.339,1.459c0.329,0.41,0.825,0.648,1.351,0.648h4.589v31.898c0,3.806,3.085,6.891,6.891,6.891&#10;&#9;&#9;&#9;c3.806,0,6.891-3.085,6.891-6.891v-31.898h3.104v31.898c0,3.806,3.085,6.891,6.891,6.891c3.806,0,6.891-3.085,6.891-6.891v-31.898&#10;&#9;&#9;&#9;h4.594c0.007,0,0.013,0,0.02,0c0.956,0,1.731-0.775,1.731-1.731c0-0.222-0.041-0.434-0.117-0.628l-5.812-26.111v-18.049&#10;&#9;&#9;&#9;c1.779,5.096,3.006,13.111,3.956,25.764c0.244,3.253,3.083,5.693,6.333,5.448c3.253-0.244,5.692-3.08,5.448-6.333&#10;&#9;&#9;&#9;C261.173,227.188,254.699,217.82,232.403,217.82z" style="fill: rgb(255, 255, 255);"/>
      <path d="M277.102,135.343H117.898c-17.925,0-32.508,14.583-32.508,32.508v159.204c0,17.925,14.583,32.509,32.508,32.509h159.204&#10;&#9;&#9;&#9;c17.925,0,32.509-14.584,32.509-32.509V167.851C309.61,149.926,295.027,135.343,277.102,135.343z M289.61,327.055&#10;&#9;&#9;&#9;c0,6.897-5.611,12.509-12.509,12.509H117.898c-6.897,0-12.508-5.611-12.508-12.509V167.851c0-6.896,5.611-12.508,12.508-12.508&#10;&#9;&#9;&#9;h159.204c6.897,0,12.509,5.611,12.509,12.508V327.055z" style="fill: rgb(255, 255, 255);"/>
      <path d="M149.674,72.483c0.976-0.977,1.953-1.953,2.929-2.929v36.549c0,1.647-0.051,3.267,0.445,4.87&#10;&#9;&#9;&#9;c1.341,4.338,5.583,7.275,10.113,7.026c4.511-0.248,8.398-3.633,9.258-8.068c0.267-1.376,0.184-2.821,0.184-4.217v-36.16&#10;&#9;&#9;&#9;c2.332,2.331,4.477,4.891,7.864,5.628c5.099,1.109,10.35-2.028,11.763-7.057c1.014-3.606-0.121-7.351-2.738-9.969l-19.815-19.815&#10;&#9;&#9;&#9;c-3.076-3.075-7.951-3.794-11.789-1.747c-1.587,0.85-2.783,2.174-4.038,3.429l-17.556,17.556c-0.871,0.87-1.715,1.733-2.342,2.813&#10;&#9;&#9;&#9;c-1.588,2.731-1.777,6.146-0.508,9.04C136.225,75.774,144.783,77.374,149.674,72.483z" style="fill: rgb(255, 255, 255);"/>
      <path d="M225.325,115.109c3.076,3.076,7.951,3.794,11.789,1.748c1.587-0.851,2.783-2.174,4.038-3.429l17.556-17.556&#10;&#9;&#9;&#9;c0.871-0.871,1.715-1.733,2.342-2.813c1.588-2.732,1.777-6.147,0.508-9.041c-2.782-6.343-11.34-7.941-16.231-3.051&#10;&#9;&#9;&#9;c-0.976,0.975-1.953,1.952-2.929,2.929V47.349c0-1.648,0.051-3.267-0.445-4.87c-1.341-4.338-5.583-7.276-10.113-7.027&#10;&#9;&#9;&#9;c-4.511,0.248-8.398,3.633-9.258,8.069c-0.267,1.375-0.184,2.821-0.184,4.217v36.16c-2.332-2.332-4.477-4.891-7.864-5.628&#10;&#9;&#9;&#9;c-5.099-1.11-10.35,2.028-11.763,7.056c-1.014,3.606,0.121,7.352,2.738,9.969L225.325,115.109z" style="fill: rgb(255, 255, 255);"/>
    </g>
  </g>
  <g transform="matrix(0, 0.076002, -0.063628, 0, 307.231079, 137.012894)" style=""/>
  <g transform="matrix(0, 0.076002, -0.063628, 0, 307.231079, 137.012894)" style=""/>
  <g transform="matrix(0, 0.076002, -0.063628, 0, 307.231079, 137.012894)" style=""/>
  <g transform="matrix(0, 0.076002, -0.063628, 0, 307.231079, 137.012894)" style=""/>
  <g transform="matrix(0, 0.076002, -0.063628, 0, 307.231079, 137.012894)" style=""/>
  <g transform="matrix(0, 0.076002, -0.063628, 0, 307.231079, 137.012894)" style=""/>
  <g transform="matrix(0, 0.076002, -0.063628, 0, 307.231079, 137.012894)" style=""/>
  <g transform="matrix(0, 0.076002, -0.063628, 0, 307.231079, 137.012894)" style=""/>
  <g transform="matrix(0, 0.076002, -0.063628, 0, 307.231079, 137.012894)" style=""/>
  <g transform="matrix(0, 0.076002, -0.063628, 0, 307.231079, 137.012894)" style=""/>
  <g transform="matrix(0, 0.076002, -0.063628, 0, 307.231079, 137.012894)" style=""/>
  <g transform="matrix(0, 0.076002, -0.063628, 0, 307.231079, 137.012894)" style=""/>
  <g transform="matrix(0, 0.076002, -0.063628, 0, 307.231079, 137.012894)" style=""/>
  <g transform="matrix(0, 0.076002, -0.063628, 0, 307.231079, 137.012894)" style=""/>
  <g transform="matrix(0, 0.076002, -0.063628, 0, 307.231079, 137.012894)" style=""/>
  <g transform="matrix(0.000004, 0.064622, -0.039856, 0, 74.332596, -45.612194)" style="transform-origin: 197.5px 197.5px;">
    <g>
      <path d="M162.595,215.213c10.282,0,18.619-8.329,18.619-18.61c0-10.28-8.337-18.617-18.619-18.617&#10;&#9;&#9;&#9;c-10.278,0-18.62,8.337-18.62,18.617C143.975,206.884,152.317,215.213,162.595,215.213z" style="fill: rgb(255, 255, 255);"/>
      <path d="M162.597,217.82c-22.292,0-28.766,9.367-31.487,45.558c-0.245,3.253,2.194,6.088,5.447,6.333&#10;&#9;&#9;&#9;c0.151,0.011,0.3,0.017,0.449,0.017c3.061,0,5.65-2.362,5.884-5.464c1.004-13.358,2.317-21.55,4.262-26.59&#10;&#9;&#9;&#9;c-0.198,0.997-0.306,2.026-0.306,3.082v22.722c0,1.22,0.152,2.4,0.414,3.54v49.899c0,3.806,3.085,6.891,6.891,6.891&#10;&#9;&#9;&#9;c3.806,0,6.891-3.085,6.891-6.891V279.15c0.512,0.05,1.03,0.078,1.555,0.078c0.522,0,1.038-0.028,1.547-0.078v37.767&#10;&#9;&#9;&#9;c0,3.806,3.086,6.891,6.891,6.891c3.806,0,6.891-3.085,6.891-6.891v-49.87c0.267-1.148,0.421-2.34,0.421-3.569v-22.722&#10;&#9;&#9;&#9;c0-1.054-0.108-2.082-0.305-3.077c1.943,5.04,3.255,13.23,4.258,26.584c0.245,3.253,3.085,5.69,6.332,5.448&#10;&#9;&#9;&#9;c3.253-0.245,5.692-3.08,5.448-6.333C191.362,227.188,184.888,217.82,162.597,217.82z" style="fill: rgb(255, 255, 255);"/>
      <path d="M232.403,215.213c10.28,0,18.622-8.329,18.622-18.61c0-10.28-8.342-18.617-18.622-18.617&#10;&#9;&#9;&#9;c-10.28,0-18.617,8.337-18.617,18.617C213.786,206.884,222.123,215.213,232.403,215.213z" style="fill: rgb(255, 255, 255);"/>
      <path d="M232.403,217.82c-22.291,0-28.765,9.367-31.484,45.558c-0.244,3.253,2.194,6.088,5.448,6.333&#10;&#9;&#9;&#9;c0.15,0.011,0.3,0.017,0.449,0.017c3.061,0,5.65-2.362,5.884-5.465c0.95-12.643,2.176-20.655,3.953-25.752v18.059l-5.862,26.342&#10;&#9;&#9;&#9;c-0.114,0.513,0.011,1.049,0.339,1.459c0.329,0.41,0.825,0.648,1.351,0.648h4.589v31.898c0,3.806,3.085,6.891,6.891,6.891&#10;&#9;&#9;&#9;c3.806,0,6.891-3.085,6.891-6.891v-31.898h3.104v31.898c0,3.806,3.085,6.891,6.891,6.891c3.806,0,6.891-3.085,6.891-6.891v-31.898&#10;&#9;&#9;&#9;h4.594c0.007,0,0.013,0,0.02,0c0.956,0,1.731-0.775,1.731-1.731c0-0.222-0.041-0.434-0.117-0.628l-5.812-26.111v-18.049&#10;&#9;&#9;&#9;c1.779,5.096,3.006,13.111,3.956,25.764c0.244,3.253,3.083,5.693,6.333,5.448c3.253-0.244,5.692-3.08,5.448-6.333&#10;&#9;&#9;&#9;C261.173,227.188,254.699,217.82,232.403,217.82z" style="fill: rgb(255, 255, 255);"/>
      <path d="M277.102,135.343H117.898c-17.925,0-32.508,14.583-32.508,32.508v159.204c0,17.925,14.583,32.509,32.508,32.509h159.204&#10;&#9;&#9;&#9;c17.925,0,32.509-14.584,32.509-32.509V167.851C309.61,149.926,295.027,135.343,277.102,135.343z M289.61,327.055&#10;&#9;&#9;&#9;c0,6.897-5.611,12.509-12.509,12.509H117.898c-6.897,0-12.508-5.611-12.508-12.509V167.851c0-6.896,5.611-12.508,12.508-12.508&#10;&#9;&#9;&#9;h159.204c6.897,0,12.509,5.611,12.509,12.508V327.055z" style="fill: rgb(255, 255, 255);"/>
      <path d="M149.674,72.483c0.976-0.977,1.953-1.953,2.929-2.929v36.549c0,1.647-0.051,3.267,0.445,4.87&#10;&#9;&#9;&#9;c1.341,4.338,5.583,7.275,10.113,7.026c4.511-0.248,8.398-3.633,9.258-8.068c0.267-1.376,0.184-2.821,0.184-4.217v-36.16&#10;&#9;&#9;&#9;c2.332,2.331,4.477,4.891,7.864,5.628c5.099,1.109,10.35-2.028,11.763-7.057c1.014-3.606-0.121-7.351-2.738-9.969l-19.815-19.815&#10;&#9;&#9;&#9;c-3.076-3.075-7.951-3.794-11.789-1.747c-1.587,0.85-2.783,2.174-4.038,3.429l-17.556,17.556c-0.871,0.87-1.715,1.733-2.342,2.813&#10;&#9;&#9;&#9;c-1.588,2.731-1.777,6.146-0.508,9.04C136.225,75.774,144.783,77.374,149.674,72.483z" style="fill: rgb(255, 255, 255);"/>
      <path d="M225.325,115.109c3.076,3.076,7.951,3.794,11.789,1.748c1.587-0.851,2.783-2.174,4.038-3.429l17.556-17.556&#10;&#9;&#9;&#9;c0.871-0.871,1.715-1.733,2.342-2.813c1.588-2.732,1.777-6.147,0.508-9.041c-2.782-6.343-11.34-7.941-16.231-3.051&#10;&#9;&#9;&#9;c-0.976,0.975-1.953,1.952-2.929,2.929V47.349c0-1.648,0.051-3.267-0.445-4.87c-1.341-4.338-5.583-7.276-10.113-7.027&#10;&#9;&#9;&#9;c-4.511,0.248-8.398,3.633-9.258,8.069c-0.267,1.375-0.184,2.821-0.184,4.217v36.16c-2.332-2.332-4.477-4.891-7.864-5.628&#10;&#9;&#9;&#9;c-5.099-1.11-10.35,2.028-11.763,7.056c-1.014,3.606,0.121,7.352,2.738,9.969L225.325,115.109z" style="fill: rgb(255, 255, 255);"/>
    </g>
  </g>
  <g transform="matrix(0.000004, 0.064622, -0.039856, 0, 52.317493, -46.025913)" style="transform-origin: 197.5px 197.5px;">
    <g>
      <path d="M162.595,215.213c10.282,0,18.619-8.329,18.619-18.61c0-10.28-8.337-18.617-18.619-18.617&#10;&#9;&#9;&#9;c-10.278,0-18.62,8.337-18.62,18.617C143.975,206.884,152.317,215.213,162.595,215.213z" style="fill: rgb(255, 255, 255);"/>
      <path d="M162.597,217.82c-22.292,0-28.766,9.367-31.487,45.558c-0.245,3.253,2.194,6.088,5.447,6.333&#10;&#9;&#9;&#9;c0.151,0.011,0.3,0.017,0.449,0.017c3.061,0,5.65-2.362,5.884-5.464c1.004-13.358,2.317-21.55,4.262-26.59&#10;&#9;&#9;&#9;c-0.198,0.997-0.306,2.026-0.306,3.082v22.722c0,1.22,0.152,2.4,0.414,3.54v49.899c0,3.806,3.085,6.891,6.891,6.891&#10;&#9;&#9;&#9;c3.806,0,6.891-3.085,6.891-6.891V279.15c0.512,0.05,1.03,0.078,1.555,0.078c0.522,0,1.038-0.028,1.547-0.078v37.767&#10;&#9;&#9;&#9;c0,3.806,3.086,6.891,6.891,6.891c3.806,0,6.891-3.085,6.891-6.891v-49.87c0.267-1.148,0.421-2.34,0.421-3.569v-22.722&#10;&#9;&#9;&#9;c0-1.054-0.108-2.082-0.305-3.077c1.943,5.04,3.255,13.23,4.258,26.584c0.245,3.253,3.085,5.69,6.332,5.448&#10;&#9;&#9;&#9;c3.253-0.245,5.692-3.08,5.448-6.333C191.362,227.188,184.888,217.82,162.597,217.82z" style="fill: rgb(255, 255, 255);"/>
      <path d="M232.403,215.213c10.28,0,18.622-8.329,18.622-18.61c0-10.28-8.342-18.617-18.622-18.617&#10;&#9;&#9;&#9;c-10.28,0-18.617,8.337-18.617,18.617C213.786,206.884,222.123,215.213,232.403,215.213z" style="fill: rgb(255, 255, 255);"/>
      <path d="M232.403,217.82c-22.291,0-28.765,9.367-31.484,45.558c-0.244,3.253,2.194,6.088,5.448,6.333&#10;&#9;&#9;&#9;c0.15,0.011,0.3,0.017,0.449,0.017c3.061,0,5.65-2.362,5.884-5.465c0.95-12.643,2.176-20.655,3.953-25.752v18.059l-5.862,26.342&#10;&#9;&#9;&#9;c-0.114,0.513,0.011,1.049,0.339,1.459c0.329,0.41,0.825,0.648,1.351,0.648h4.589v31.898c0,3.806,3.085,6.891,6.891,6.891&#10;&#9;&#9;&#9;c3.806,0,6.891-3.085,6.891-6.891v-31.898h3.104v31.898c0,3.806,3.085,6.891,6.891,6.891c3.806,0,6.891-3.085,6.891-6.891v-31.898&#10;&#9;&#9;&#9;h4.594c0.007,0,0.013,0,0.02,0c0.956,0,1.731-0.775,1.731-1.731c0-0.222-0.041-0.434-0.117-0.628l-5.812-26.111v-18.049&#10;&#9;&#9;&#9;c1.779,5.096,3.006,13.111,3.956,25.764c0.244,3.253,3.083,5.693,6.333,5.448c3.253-0.244,5.692-3.08,5.448-6.333&#10;&#9;&#9;&#9;C261.173,227.188,254.699,217.82,232.403,217.82z" style="fill: rgb(255, 255, 255);"/>
      <path d="M277.102,135.343H117.898c-17.925,0-32.508,14.583-32.508,32.508v159.204c0,17.925,14.583,32.509,32.508,32.509h159.204&#10;&#9;&#9;&#9;c17.925,0,32.509-14.584,32.509-32.509V167.851C309.61,149.926,295.027,135.343,277.102,135.343z M289.61,327.055&#10;&#9;&#9;&#9;c0,6.897-5.611,12.509-12.509,12.509H117.898c-6.897,0-12.508-5.611-12.508-12.509V167.851c0-6.896,5.611-12.508,12.508-12.508&#10;&#9;&#9;&#9;h159.204c6.897,0,12.509,5.611,12.509,12.508V327.055z" style="fill: rgb(255, 255, 255);"/>
      <path d="M149.674,72.483c0.976-0.977,1.953-1.953,2.929-2.929v36.549c0,1.647-0.051,3.267,0.445,4.87&#10;&#9;&#9;&#9;c1.341,4.338,5.583,7.275,10.113,7.026c4.511-0.248,8.398-3.633,9.258-8.068c0.267-1.376,0.184-2.821,0.184-4.217v-36.16&#10;&#9;&#9;&#9;c2.332,2.331,4.477,4.891,7.864,5.628c5.099,1.109,10.35-2.028,11.763-7.057c1.014-3.606-0.121-7.351-2.738-9.969l-19.815-19.815&#10;&#9;&#9;&#9;c-3.076-3.075-7.951-3.794-11.789-1.747c-1.587,0.85-2.783,2.174-4.038,3.429l-17.556,17.556c-0.871,0.87-1.715,1.733-2.342,2.813&#10;&#9;&#9;&#9;c-1.588,2.731-1.777,6.146-0.508,9.04C136.225,75.774,144.783,77.374,149.674,72.483z" style="fill: rgb(255, 255, 255);"/>
      <path d="M225.325,115.109c3.076,3.076,7.951,3.794,11.789,1.748c1.587-0.851,2.783-2.174,4.038-3.429l17.556-17.556&#10;&#9;&#9;&#9;c0.871-0.871,1.715-1.733,2.342-2.813c1.588-2.732,1.777-6.147,0.508-9.041c-2.782-6.343-11.34-7.941-16.231-3.051&#10;&#9;&#9;&#9;c-0.976,0.975-1.953,1.952-2.929,2.929V47.349c0-1.648,0.051-3.267-0.445-4.87c-1.341-4.338-5.583-7.276-10.113-7.027&#10;&#9;&#9;&#9;c-4.511,0.248-8.398,3.633-9.258,8.069c-0.267,1.375-0.184,2.821-0.184,4.217v36.16c-2.332-2.332-4.477-4.891-7.864-5.628&#10;&#9;&#9;&#9;c-5.099-1.11-10.35,2.028-11.763,7.056c-1.014,3.606,0.121,7.352,2.738,9.969L225.325,115.109z" style="fill: rgb(255, 255, 255);"/>
    </g>
  </g>
  <path style="stroke: rgb(0, 0, 0); fill: rgba(216, 216, 216, 0.647); transform-box: fill-box; transform-origin: 50% 50%;" d="M 344.392 455.623 L 344.149 428.174 C 344.855 423.3 374.752 433.66 371.6 455.417" transform="matrix(-0.999852, 0.017228, -0.017228, -0.999852, 0.00002, 0.000031)"/>
  <g id="XMLID_1500_" transform="matrix(0.000001, 0.041642, -0.044102, -0.000001, 149.087814, 156.551834)" style="transform-origin: 149.45px 149.449px;">
    <g>
      <g>
        <path d="M21.067,139.301l15.336-38.143l13.554-8.399l-13.682,59.382l0.162,0.037c-0.355,1.495-0.456,3.076-0.231,4.689&#10;&#9;&#9;&#9;&#9;l2.824,20.293l23.907-12.884l-0.862-6.191l2.903,0.669l2.581,3.031c5.94-3.201,23.256-12.533,29.196-15.735l-0.369-0.042&#10;&#9;&#9;&#9;&#9;c-9.662-1.099-16.193-8.547-17.487-13.779L68.168,88.865l20.914,40.846c1.669,3.257,4.855,5.463,8.491,5.877l43.375,4.935&#10;&#9;&#9;&#9;&#9;c5.675,0.646,10.867-3.188,11.956-8.744c1.23-6.28-3.151-12.249-9.485-12.969l-37.554-4.273l-18.94-36.99l23.674,26.54&#10;&#9;&#9;&#9;&#9;l4.506-19.56c2.02-8.768-3.45-17.514-12.218-19.533c-24.214-5.489-29.606-7.188-32.562-7.439&#10;&#9;&#9;&#9;&#9;c-2.712-0.23-5.619,0.358-8.115,1.905L21.846,84.471c-1.979,1.226-3.514,3.052-4.382,5.212L0.792,131.15&#10;&#9;&#9;&#9;&#9;c-2.251,5.599,0.463,11.963,6.062,14.214C12.46,147.617,18.819,144.893,21.067,139.301z" style="fill: rgb(255, 255, 255);"/>
        <path d="M44.29,225.318l-5.547,52.959c-0.785,7.497,5.086,14.054,12.674,14.054c6.433-0.001,11.957-4.863,12.643-11.402&#10;&#9;&#9;&#9;&#9;l6.329-60.42c0.207-1.979-0.01-2.774-0.848-8.799L44.29,225.318z" style="fill: rgb(255, 255, 255);"/>
        <circle cx="100.175" cy="30.684" r="24.117" style="fill: rgb(255, 255, 255);"/>
        <path d="M298.85,64.512c0-7.28-7.808-11.935-14.216-8.449l-122.242,66.496c1.063,3.016,1.441,6.257,1.069,9.528&#10;&#9;&#9;&#9;&#9;c-1.331,11.701-11.909,20.199-23.7,18.858l-24.441-2.781L10.822,205.008c-3.095,1.684-5.023,4.926-5.023,8.449&#10;&#9;&#9;&#9;&#9;c0,8.407,0,61.724,0,69.255c0,5.313,4.306,9.619,9.619,9.619c5.312,0,9.619-4.306,9.619-9.619c0-7.121,0-56.302,0-63.537&#10;&#9;&#9;&#9;&#9;L279.612,80.694c0,4.789,0,101.721,0,106.473h-32.958c-1.761,0-3.189,1.427-3.189,3.189v23.102h-52.244&#10;&#9;&#9;&#9;&#9;c-1.761,0-3.189,1.427-3.189,3.189v23.102h-52.244c-1.761,0-3.189,1.427-3.189,3.189v23.102h-27.492&#10;&#9;&#9;&#9;&#9;c2.727-1.791,4.772-4.62,5.481-8.068l12.816-62.301c0.777-3.776-0.06-7.625-3.173-11.281l-23.05,12.422l-11.526,56.032&#10;&#9;&#9;&#9;&#9;c-1.082,5.258,1.255,10.417,5.483,13.196H80.355c-1.761,0-3.189,1.427-3.189,3.189v19.914c0,1.761,1.427,3.189,3.189,3.189&#10;&#9;&#9;&#9;&#9;H295.71c1.761,0,3.189-1.427,3.189-3.189C298.899,178.359,298.85,221.994,298.85,64.512z" style="fill: rgb(255, 255, 255);"/>
      </g>
    </g>
  </g>
  <g transform="matrix(-0.000002, 0.107104, -0.104379, -0.000001, 361.746429, 234.147354)" style=""/>
  <g transform="matrix(-0.000002, 0.107104, -0.104379, -0.000001, 361.746429, 234.147354)" style=""/>
  <g transform="matrix(-0.000002, 0.107104, -0.104379, -0.000001, 361.746429, 234.147354)" style=""/>
  <g transform="matrix(-0.000002, 0.107104, -0.104379, -0.000001, 361.746429, 234.147354)" style=""/>
  <g transform="matrix(-0.000002, 0.107104, -0.104379, -0.000001, 361.746429, 234.147354)" style=""/>
  <g transform="matrix(-0.000002, 0.107104, -0.104379, -0.000001, 361.746429, 234.147354)" style=""/>
  <g transform="matrix(-0.000002, 0.107104, -0.104379, -0.000001, 361.746429, 234.147354)" style=""/>
  <g transform="matrix(-0.000002, 0.107104, -0.104379, -0.000001, 361.746429, 234.147354)" style=""/>
  <g transform="matrix(-0.000002, 0.107104, -0.104379, -0.000001, 361.746429, 234.147354)" style=""/>
  <g transform="matrix(-0.000002, 0.107104, -0.104379, -0.000001, 361.746429, 234.147354)" style=""/>
  <g transform="matrix(-0.000002, 0.107104, -0.104379, -0.000001, 361.746429, 234.147354)" style=""/>
  <g transform="matrix(-0.000002, 0.107104, -0.104379, -0.000001, 361.746429, 234.147354)" style=""/>
  <g transform="matrix(-0.000002, 0.107104, -0.104379, -0.000001, 361.746429, 234.147354)" style=""/>
  <g transform="matrix(-0.000002, 0.107104, -0.104379, -0.000001, 361.746429, 234.147354)" style=""/>
  <g transform="matrix(-0.000002, 0.107104, -0.104379, -0.000001, 361.746429, 234.147354)" style=""/>
  <line style="fill: rgb(216, 216, 216); stroke-width: 3px; transform-box: fill-box; transform-origin: 50% 50%; stroke: rgb(255, 255, 255);" x1="407.928" y1="232.121" x2="407.257" y2="187.036" transform="matrix(0.000001, 1, -1, 0.000001, 0.00002, -0.000001)"/>
  <text style="fill: rgb(255, 255, 255); font-family: 'Times New Roman'; font-size: 25.6717px; font-weight: 700; white-space: pre; transform-box: fill-box; transform-origin: 51.3575px 13.8395px;" transform="matrix(0, 0.399685, -0.671611, 0, 326.77478, 9.617164)" x="30.917" y="86.28">المكتب الاول</text>
  <text style="fill: rgb(255, 255, 255); font-family: 'Times New Roman'; font-size: 25.6717px; font-weight: 700; white-space: pre; transform-box: fill-box; transform-origin: 35.5854px 13.8395px;" transform="matrix(0, 0.399685, -0.671611, 0, 348.586212, 169.919724)" x="30.917" y="86.28">الارشيف</text>
  <text style="fill: rgb(252, 252, 252); font-family: 'Times New Roman'; font-size: 25.6717px; font-weight: 700; white-space: pre; transform-box: fill-box; transform-origin: 31.1253px 13.8395px;" transform="matrix(0.399686, 0, 0, 0.671611, 351.668243, 278.787994)" x="30.917" y="86.28">المصلى</text>
  <text style="fill: rgb(249, 243, 243); font-family: 'Times New Roman'; font-size: 25.6717px; font-weight: 700; white-space: pre; transform-box: fill-box; transform-origin: 53.9255px 13.9629px;" transform="matrix(0.399685, 0.000001, 0, 0.67161, 307.33252, 383.004242)" x="30.917" y="86.28">المكتب الثاني</text>
  <text style="fill: rgb(255, 252, 252); font-family: 'Times New Roman'; font-size: 25.6717px; font-weight: 700; white-space: pre; transform-box: fill-box; transform-origin: 54.3714px 13.8395px;" transform="matrix(0.399137, 0.020918, -0.035149, 0.670691, 147.909149, 388.527618)" x="30.917" y="86.28">المكتب الثالث</text>
  <text style="fill: rgb(255, 255, 255); font-family: 'Times New Roman'; font-size: 25.6717px; font-weight: 700; white-space: pre; transform-box: fill-box; transform-origin: 38.2073px 13.8395px;" transform="matrix(0.399442, -0.013949, 0.023439, 0.671202, 24.617342, 353.686859)" x="30.917" y="86.28">الموظفين</text>
  <text style="fill: rgb(255, 255, 255); font-family: 'Times New Roman'; font-size: 25.6717px; font-weight: 700; white-space: pre; transform-box: fill-box; transform-origin: 36.7476px 13.8395px;" transform="matrix(0.399442, -0.013949, 0.023439, 0.671202, 26.646811, 252.47438)" x="30.917" y="86.28">التواصل </text>
  <text style="fill: rgb(255, 255, 255); font-family: 'Times New Roman'; font-size: 25.6717px; font-weight: 700; white-space: pre; transform-box: fill-box; transform-origin: 53.4253px 13.8395px;" transform="matrix(0.399685, 0, 0, 0.671611, 12.866921, 165.063553)" x="30.917" y="86.28">الادارة العامة</text>
  <g>
    <text style="fill: rgb(255, 250, 250); font-family: 'Times New Roman'; font-size: 25.6717px; font-weight: 700; white-space: pre; transform-box: fill-box; transform-origin: 36.7477px 13.8395px;" transform="matrix(0.399137, -0.020918, 0.035149, 0.670691, 31.56477, 73.411949)" x="30.917" y="86.28">الاستقبال</text>
  </g>
  <g>
    <text style="fill: rgb(255, 255, 255); font-family: 'Times New Roman'; font-size: 25.6717px; font-weight: 700; white-space: pre; transform-box: fill-box; transform-origin: 55.5389px 13.9666px;" transform="matrix(0.399686, 0, 0, 0.663323, 10.916231, -32.242157)" x="30.917" y="86.28">المكتب الاخير</text>
  </g>
  <text style="white-space: pre; fill: rgb(51, 51, 51); font-family: Arial, sans-serif; font-size: 28px; transform-box: fill-box; transform-origin: 50% 50%;" x="413.318" y="339.995" transform="matrix(0.000001, 1, -1, 0.000001, -308.576024, 97.479882)"> </text>
  <g transform="matrix(-0.008664, -0.270517, 0.245172, -0.007854, 229.116776, 246.119492)" style=""/>
  <g transform="matrix(-0.008664, -0.270517, 0.245172, -0.007854, 229.116776, 246.119492)" style=""/>
  <g transform="matrix(-0.008664, -0.270517, 0.245172, -0.007854, 229.116776, 246.119492)" style=""/>
  <g transform="matrix(-0.008664, -0.270517, 0.245172, -0.007854, 229.116776, 246.119492)" style=""/>
  <g transform="matrix(-0.008664, -0.270517, 0.245172, -0.007854, 229.116776, 246.119492)" style=""/>
  <g transform="matrix(-0.008664, -0.270517, 0.245172, -0.007854, 229.116776, 246.119492)" style=""/>
  <g transform="matrix(-0.008664, -0.270517, 0.245172, -0.007854, 229.116776, 246.119492)" style=""/>
  <g transform="matrix(-0.008664, -0.270517, 0.245172, -0.007854, 229.116776, 246.119492)" style=""/>
  <g transform="matrix(-0.008664, -0.270517, 0.245172, -0.007854, 229.116776, 246.119492)" style=""/>
  <g transform="matrix(-0.008664, -0.270517, 0.245172, -0.007854, 229.116776, 246.119492)" style=""/>
  <g transform="matrix(-0.008664, -0.270517, 0.245172, -0.007854, 229.116776, 246.119492)" style=""/>
  <g transform="matrix(-0.008664, -0.270517, 0.245172, -0.007854, 229.116776, 246.119492)" style=""/>
  <g transform="matrix(-0.008664, -0.270517, 0.245172, -0.007854, 229.116776, 246.119492)" style=""/>
  <g transform="matrix(-0.008664, -0.270517, 0.245172, -0.007854, 229.116776, 246.119492)" style=""/>
  <g transform="matrix(-0.008664, -0.270517, 0.245172, -0.007854, 229.116776, 246.119492)" style=""/>
  <g transform="matrix(-0.053537, 0.001866, -0.00222, -0.063688, -19.926504, -6.598679)" style="transform-origin: 232.347px 232.347px;">
    <g>
      <g>
        <polygon style="fill: rgb(255, 255, 255);" points="294.856,110.557 271.527,133.861 353.528,215.854 64.199,215.854 64.199,248.824 &#10;&#9;&#9;&#9;&#9;353.528,248.824 271.535,330.817 294.856,354.154 416.671,232.347 &#9;&#9;&#9;"/>
      </g>
      <g>
        <path style="fill: rgb(255, 255, 255);" d="M232.347,0.008C104.233,0.008,0,104.225,0,232.347s104.233,232.339,232.347,232.339&#10;&#9;&#9;&#9;&#9;s232.347-104.225,232.347-232.339S360.462,0.008,232.347,0.008z M232.347,433.245c-110.776,0-200.906-90.13-200.906-200.898&#10;&#9;&#9;&#9;&#9;c0-110.776,90.13-200.898,200.906-200.898c110.768,0,200.906,90.122,200.906,200.898&#10;&#9;&#9;&#9;&#9;C433.253,343.115,343.115,433.245,232.347,433.245z"/>
      </g>
    </g>
  </g>
  <g transform="matrix(-0.053536, 0.001866, -0.00222, -0.063687, 225.375458, 242.511276)" style=""/>
  <g transform="matrix(-0.053536, 0.001866, -0.00222, -0.063687, 225.375458, 242.511276)" style=""/>
  <g transform="matrix(-0.053536, 0.001866, -0.00222, -0.063687, 225.375458, 242.511276)" style=""/>
  <g transform="matrix(-0.053536, 0.001866, -0.00222, -0.063687, 225.375458, 242.511276)" style=""/>
  <g transform="matrix(-0.053536, 0.001866, -0.00222, -0.063687, 225.375458, 242.511276)" style=""/>
  <g transform="matrix(-0.053536, 0.001866, -0.00222, -0.063687, 225.375458, 242.511276)" style=""/>
  <g transform="matrix(-0.053536, 0.001866, -0.00222, -0.063687, 225.375458, 242.511276)" style=""/>
  <g transform="matrix(-0.053536, 0.001866, -0.00222, -0.063687, 225.375458, 242.511276)" style=""/>
  <g transform="matrix(-0.053536, 0.001866, -0.00222, -0.063687, 225.375458, 242.511276)" style=""/>
  <g transform="matrix(-0.053536, 0.001866, -0.00222, -0.063687, 225.375458, 242.511276)" style=""/>
  <g transform="matrix(-0.053536, 0.001866, -0.00222, -0.063687, 225.375458, 242.511276)" style=""/>
  <g transform="matrix(-0.053536, 0.001866, -0.00222, -0.063687, 225.375458, 242.511276)" style=""/>
  <g transform="matrix(-0.053536, 0.001866, -0.00222, -0.063687, 225.375458, 242.511276)" style=""/>
  <g transform="matrix(-0.053536, 0.001866, -0.00222, -0.063687, 225.375458, 242.511276)" style=""/>
  <g transform="matrix(-0.053536, 0.001866, -0.00222, -0.063687, 225.375458, 242.511276)" style=""/>
  <g transform="matrix(0.053564, -0.000739, 0.00088, 0.063721, 39.94722, -0.876404)" style="transform-origin: 232.347px 232.347px;">
    <g>
      <g transform="matrix(1, 0, 0, 1, 443.463165, -1.266085)">
        <polygon style="stroke-linecap: round; stroke-miterlimit: 12.87; stroke-width: 358.068px; fill: rgb(255, 255, 255);" points="294.856,110.557 271.527,133.861 353.528,215.854 64.199,215.854 64.199,248.824 &#10;&#9;&#9;&#9;&#9;353.528,248.824 271.535,330.817 294.856,354.154 416.671,232.347 &#9;&#9;&#9;"/>
      </g>
      <g>
        <path style="stroke-linecap: round; stroke-miterlimit: 12.87; stroke-width: 358.068px; visibility: hidden; fill: rgb(255, 255, 255);" d="M232.347,0.008C104.233,0.008,0,104.225,0,232.347s104.233,232.339,232.347,232.339&#10;&#9;&#9;&#9;&#9;s232.347-104.225,232.347-232.339S360.462,0.008,232.347,0.008z M232.347,433.245c-110.776,0-200.906-90.13-200.906-200.898&#10;&#9;&#9;&#9;&#9;c0-110.776,90.13-200.898,200.906-200.898c110.768,0,200.906,90.122,200.906,200.898&#10;&#9;&#9;&#9;&#9;C433.253,343.115,343.115,433.245,232.347,433.245z"/>
      </g>
    </g>
  </g>
  <path style="stroke: rgb(0, 0, 0); fill: rgba(216, 216, 216, 0.827); transform-origin: 387.93px 140.592px;" d="M 374.906 152.496 L 374.673 129.675 C 375.349 125.622 403.983 134.236 400.964 152.325" transform="matrix(0.000001, 1, -1, 0.000001, 0.000009, -0.000003)"/>
  <path style="stroke: rgb(0, 0, 0); fill: rgba(216, 216, 216, 0.827); transform-origin: 318.029px 227.723px;" d="M 305.005 239.627 L 304.772 216.806 C 305.448 212.753 334.082 221.367 331.063 239.456" transform="matrix(0.000001, 1, -1, 0.000001, 0.000001, 0.000004)"/>
  <path style="stroke: rgb(0, 0, 0); fill: rgba(216, 216, 216, 0.647); transform-origin: 107.974px 123.191px;" d="M 94.375 137.508 L 94.132 110.059 C 94.838 105.185 124.735 115.545 121.583 137.302" transform="matrix(0.017452, -0.999848, 0.999848, 0.017452, 0.000011, 0.000003)"/>
  <path style="stroke: rgb(0, 0, 0); fill: rgba(216, 216, 216, 0.647); transform-origin: 109.342px 77.265px;" d="M 95.743 91.582 L 95.5 64.133 C 96.206 59.259 126.103 69.619 122.951 91.376" transform="matrix(-0.000001, -1, 1, -0.000001, -0.000006, 0.000004)"/>
  <path style="stroke: rgb(0, 0, 0); fill: rgba(216, 216, 216, 0.647); transform-origin: 196.933px 441.305px;" d="M 183.334 455.622 L 183.091 428.173 C 183.797 423.299 213.694 433.659 210.542 455.416" transform="matrix(-0.999852, 0.017228, -0.017228, -0.999852, -0.000009, -0.000032)"/>
  <path style="stroke: rgb(0, 0, 0); fill: rgba(216, 216, 216, 0.647); transform-origin: 108.19px 372.012px;" d="M 94.591 386.329 L 94.348 358.88 C 95.054 354.006 124.951 364.366 121.799 386.123" transform="matrix(-0.000001, -1, 1, -0.000001, -0.000002, -0.000017)"/>
  <path style="stroke: rgb(0, 0, 0); fill: rgba(216, 216, 216, 0.647); transform-origin: 107.662px 306.442px;" d="M 94.063 320.759 L 93.82 293.31 C 94.526 288.436 124.423 298.796 121.271 320.553" transform="matrix(0.017502, -0.999847, 0.999847, 0.017502, -0.000006, 0.000008)"/>
</svg>