<?xml version="1.0" encoding="utf-8"?>
<svg viewBox="64.446 0 398.12 514.744" xmlns="http://www.w3.org/2000/svg">
  <defs/>
  <rect x="-46.951" y="149.664" width="482.048" height="362.24" style="stroke-linecap: round; stroke-linejoin: round; fill: rgba(216, 216, 216, 0); stroke: rgb(152, 154, 153); stroke-width: 8px; transform-box: fill-box; transform-origin: 50% 50%;" transform="matrix(0, 1, -1, 0, 67.836548, -71.808002)"/>
  <polyline style="fill: rgba(216, 216, 216, 0); stroke-linecap: round; stroke-linejoin: round; stroke-width: 5px; stroke: rgb(152, 154, 153); transform-box: fill-box; transform-origin: 50% 50%;" points="59.729 100.17 307.832 99.199 461.718 98.597 466.543 359.384 60.24 356.789" transform="matrix(0, 1, -1, 0, 0.000012, -0.00003)"/>
  <line style="fill: rgb(216, 216, 216); stroke-width: 7px; stroke: rgb(250, 250, 250); stroke-linecap: round; transform-box: fill-box; transform-origin: 50% 50%;" x1="379.087" y1="49.767" x2="404.537" y2="51.634" transform="matrix(0, -1, 1, 0, -0.000007, -0.000009)"/>
  <line style="fill: rgb(216, 216, 216); stroke: rgb(250, 250, 250); stroke-linecap: round; stroke-linejoin: round; stroke-width: 12px; transform-origin: 391.577px 142.512px;" x1="380.776" y1="142.023" x2="402.38" y2="143" transform="matrix(0, -1, 1, 0, -0.000005, 0.000004)"/>
  <line style="fill: rgb(216, 216, 216); stroke-width: 7px; stroke: rgb(250, 250, 250); stroke-linecap: round; transform-origin: 393.27px 255.103px;" x1="381.568" y1="254.002" x2="404.971" y2="256.205" transform="matrix(0, -1, 1, 0, 0, 0.000005)"/>
  <line style="fill: rgb(216, 216, 216); stroke-width: 7px; stroke: rgb(250, 250, 250); transform-origin: 393.46px 341.538px;" x1="378.025" y1="340.621" x2="408.899" y2="342.455" transform="matrix(0, -1, 1, 0, 0.000015, 0.000025)"/>
  <line style="fill: rgb(216, 216, 216); stroke: rgb(250, 250, 250); stroke-width: 9px; transform-origin: 134.195px 384.605px;" x1="116.445" y1="383.809" x2="151.946" y2="385.401" transform="matrix(0, -1, 1, 0, -0.000013, -0.00001)"/>
  <line style="fill: rgb(216, 216, 216); stroke: rgb(250, 250, 250); stroke-width: 8px; transform-origin: 134.26px 321.7px;" x1="116.51" y1="320.904" x2="152.011" y2="322.496" transform="matrix(0, -1, 1, 0, 0.000018, -0.00001)"/>
  <line style="fill: rgb(216, 216, 216); stroke-width: 7px; stroke: rgb(250, 250, 250); transform-origin: 134.375px 260.793px;" x1="116.625" y1="259.997" x2="152.126" y2="261.589" transform="matrix(0, -1, 1, 0, -0.000017, 0.000005)"/>
  <line style="fill: rgb(216, 216, 216); stroke: rgb(250, 250, 250); stroke-linecap: round; stroke-linejoin: round; stroke-width: 11px; transform-origin: 134.329px 169.766px;" x1="121.276" y1="169.022" x2="147.383" y2="170.51" transform="matrix(0, -1, 1, 0, 0.000006, 0.000002)"/>
  <line style="fill: rgb(216, 216, 216); stroke: rgb(250, 250, 250); stroke-linecap: round; stroke-width: 9px; transform-origin: 135.898px 47.038px;" x1="118.148" y1="46.303" x2="153.649" y2="47.773" transform="matrix(0, -1, 1, 0, -0.000001, 0.000009)"/>
  <line style="fill: rgb(216, 216, 216); stroke-width: 7px; stroke: rgb(250, 250, 250); transform-origin: 365.303px 428.367px;" x1="364.467" y1="441.033" x2="364.902" y2="409.249" transform="matrix(0, 1, -1, 0, -0.000004, 0.000025)"/>
  <line style="fill: rgb(216, 216, 216); stroke-width: 7px; stroke: rgb(250, 250, 250); transform-origin: 208.159px 431.89px;" x1="189.042" y1="432.29" x2="227.277" y2="431.489" transform="matrix(1, -0.000001, 0.000001, 1, 0, 0)"/>
  <rect x="75.115" y="257.779" width="180.514" height="121.284" style="fill: rgba(255, 255, 255, 0); stroke-linecap: round; stroke-linejoin: round; stroke-width: 6px; stroke: rgb(152, 154, 153); transform-box: fill-box; transform-origin: 50% 50%;" transform="matrix(0, 1, -1, 0, 108.900543, -88.146049)"/>
  <rect x="97.386" y="272.284" width="134.133" height="93.635" style="stroke-width: 4px; fill: rgba(0, 0, 0, 0); stroke: rgb(152, 154, 153); transform-box: fill-box; transform-origin: 50% 50%;" transform="matrix(0, 1, -1, 0, 109.139545, -89.746025)"/>
  <line style="fill: rgb(216, 216, 216); stroke: rgb(250, 250, 250); stroke-width: 6px; stroke-linecap: round; transform-origin: 300.733px 162.04px;" x1="300.767" y1="164.011" x2="300.176" y2="157.914" transform="matrix(0, 1, -1, 0, -0.000007, 0.000011)"/>
  <line style="fill: rgb(216, 216, 216); stroke: rgb(250, 250, 250); stroke-width: 0px; transform-origin: 294.15px 163.782px;" x1="294.203" y1="171.198" x2="293.643" y2="148.26" transform="matrix(0, 1, -1, 0, 0.000021, -0.000004)"/>
  <line style="fill: rgb(216, 216, 216); stroke: rgb(250, 250, 250); stroke-width: 5px; stroke-linecap: round; transform-box: fill-box; transform-origin: 231.751% 73.8658%;" x1="283.639" y1="155.502" x2="283.467" y2="164.58" transform="matrix(0, -1, 1, 0, 0.000044, 0.000026)"/>
  <line style="fill: rgb(216, 216, 216); stroke: rgb(250, 250, 250); stroke-width: 5px; stroke-linecap: round; transform-origin: 257.547px 161.723px;" x1="257.091" y1="159.353" x2="256.746" y2="168.418" transform="matrix(0, -1, 1, 0, 0.000009, 0.000001)"/>
  <line style="fill: rgb(216, 216, 216); stroke: rgb(250, 250, 250); stroke-width: 5px; transform-origin: 305.168px 296.19px;" x1="305.081" y1="299.901" x2="305.015" y2="285.704" transform="matrix(0, 1, -1, 0, -0.000024, -0.000006)"/>
  <line style="fill: rgb(216, 216, 216); stroke: rgb(250, 250, 250); stroke-width: 5px; transform-origin: 235.63px 296.771px;" x1="235.543" y1="300.482" x2="235.477" y2="286.285" transform="matrix(0, 1, -1, 0, 0, -0.000016)"/>
  <line style="fill: rgb(216, 216, 216); stroke-linecap: round; stroke-linejoin: round; stroke-width: 4px; stroke: rgb(152, 154, 153); transform-box: fill-box; transform-origin: 50% 50%;" x1="416.947" y1="145.725" x2="416.153" y2="104.163" transform="matrix(0, 1, -1, 0, 0.000011, -0.000017)"/>
  <line style="fill: rgb(216, 216, 216); stroke-width: 4px; stroke-linecap: round; stroke-linejoin: round; stroke: rgb(152, 154, 153); transform-box: fill-box; transform-origin: 50% 50%;" x1="409.327" y1="143.722" x2="442.044" y2="143.664" transform="matrix(0, 1, -1, 0, 0.000023, 0.000006)"/>
  <line style="fill: rgb(216, 216, 216); stroke-linecap: round; stroke-width: 4px; stroke: rgb(152, 154, 153); transform-box: fill-box; transform-origin: 50% 50%;" x1="404.449" y1="169.981" x2="404.462" y2="152.887" transform="matrix(0, 1, -1, 0, 0.00001, 0.000019)"/>
  <line style="fill: rgb(216, 216, 216); stroke-width: 3px; stroke: rgb(152, 154, 153); transform-box: fill-box; transform-origin: 50% 50%;" x1="418.326" y1="322.998" x2="417.655" y2="277.913" transform="matrix(0, 1, -1, 0, 0.000005, -0.000007)"/>
  <line style="fill: rgb(216, 216, 216); stroke-width: 5px; stroke: rgb(152, 154, 153); transform-box: fill-box; transform-origin: 50% 50%;" x1="420.445" y1="441.793" x2="419.877" y2="398.489" transform="matrix(0, 1, -1, 0, 0.000034, 0.000005)"/>
  <line style="fill: rgb(216, 216, 216); stroke-width: 5px; stroke: rgb(152, 154, 153); transform-box: fill-box; transform-origin: 50% 50%;" x1="275.946" y1="466.925" x2="337.967" y2="464.8" transform="matrix(0, 1, -1, 0, 0.000005, 0.000016)"/>
  <line style="fill: rgb(216, 216, 216); stroke-width: 5px; stroke: rgb(152, 154, 153); transform-box: fill-box; transform-origin: 50% 50%;" x1="112.32" y1="465.028" x2="172.302" y2="465.395" transform="matrix(0, 1, -1, 0, -0.000022, 0.000001)"/>
  <line style="fill: rgb(216, 216, 216); stroke-width: 3px; stroke: rgb(152, 154, 153); transform-box: fill-box; transform-origin: 50% 50%;" x1="106.604" y1="330.115" x2="107.651" y2="377.26" transform="matrix(0, 1, -1, 0, -0.000012, 0.000005)"/>
  <line style="fill: rgb(216, 216, 216); stroke-width: 3px; stroke: rgb(152, 154, 153); transform-box: fill-box; transform-origin: 50% 50%;" x1="106.305" y1="263.982" x2="106.273" y2="314.794" transform="matrix(0, 1, -1, 0, 0.000012, 0.000007)"/>
  <line style="fill: rgb(216, 216, 216); stroke-width: 3px; stroke: rgb(152, 154, 153); transform-box: fill-box; transform-origin: 50% 50%;" x1="106.764" y1="178.182" x2="107.795" y2="226.942" transform="matrix(0, 1, -1, 0, -0.000009, -0.000015)"/>
  <line style="fill: rgb(216, 216, 216); stroke-width: 3px; stroke: rgb(152, 154, 153); transform-box: fill-box; transform-origin: 50% 50%;" x1="107.102" y1="75.339" x2="106.545" y2="127.226" transform="matrix(0, 1, -1, 0, -0.000001, 0.000003)"/>
  <path style="stroke: rgb(0, 0, 0); fill: rgba(154, 152, 152, 0.424); transform-box: fill-box; transform-origin: 50% 50%;" d="M 390.974 64.37 L 390.731 36.919 C 391.437 32.045 421.334 42.406 418.182 64.164" transform="matrix(0, 1, -1, 0, 0.000001, 0.000005)"/>
  <path style="stroke: rgb(0, 0, 0); fill: rgba(216, 216, 216, 0.827); transform-box: fill-box; transform-origin: 50% 50%;" d="M 389.814 266.139 L 389.581 243.318 C 390.257 239.265 418.891 247.879 415.872 265.968" transform="matrix(0, 1, -1, 0, -0.000006, -0.000008)"/>
  <path style="stroke: rgb(0, 0, 0); fill: rgba(216, 216, 216, 0.647); transform-box: fill-box; transform-origin: 50% 50%;" d="M 392.448 355.889 L 392.205 328.44 C 392.911 323.566 422.808 333.926 419.656 355.683" transform="matrix(0, 1, -1, 0, -0.000011, 0.00004)"/>
  <path style="stroke: rgb(0, 0, 0); fill: rgba(216, 216, 216, 0.73); transform-box: fill-box; transform-origin: 50% 50%;" d="M 410.277 181.104 L 410.141 160.529 C 410.536 156.875 427.231 164.641 425.471 180.95" transform="matrix(-0.99993, -0.01183, 0.01183, -0.99993, 0.000019, 0)"/>
  <g transform="matrix(0.000004, 0.064622, -0.039857, 0.000001, 106.381905, -45.062386)" style="transform-origin: 197.5px 197.5px;">
    <g>
      <path d="M162.595,215.213c10.282,0,18.619-8.329,18.619-18.61c0-10.28-8.337-18.617-18.619-18.617&#10;&#9;&#9;&#9;c-10.278,0-18.62,8.337-18.62,18.617C143.975,206.884,152.317,215.213,162.595,215.213z"/>
      <path d="M162.597,217.82c-22.292,0-28.766,9.367-31.487,45.558c-0.245,3.253,2.194,6.088,5.447,6.333&#10;&#9;&#9;&#9;c0.151,0.011,0.3,0.017,0.449,0.017c3.061,0,5.65-2.362,5.884-5.464c1.004-13.358,2.317-21.55,4.262-26.59&#10;&#9;&#9;&#9;c-0.198,0.997-0.306,2.026-0.306,3.082v22.722c0,1.22,0.152,2.4,0.414,3.54v49.899c0,3.806,3.085,6.891,6.891,6.891&#10;&#9;&#9;&#9;c3.806,0,6.891-3.085,6.891-6.891V279.15c0.512,0.05,1.03,0.078,1.555,0.078c0.522,0,1.038-0.028,1.547-0.078v37.767&#10;&#9;&#9;&#9;c0,3.806,3.086,6.891,6.891,6.891c3.806,0,6.891-3.085,6.891-6.891v-49.87c0.267-1.148,0.421-2.34,0.421-3.569v-22.722&#10;&#9;&#9;&#9;c0-1.054-0.108-2.082-0.305-3.077c1.943,5.04,3.255,13.23,4.258,26.584c0.245,3.253,3.085,5.69,6.332,5.448&#10;&#9;&#9;&#9;c3.253-0.245,5.692-3.08,5.448-6.333C191.362,227.188,184.888,217.82,162.597,217.82z"/>
      <path d="M232.403,215.213c10.28,0,18.622-8.329,18.622-18.61c0-10.28-8.342-18.617-18.622-18.617&#10;&#9;&#9;&#9;c-10.28,0-18.617,8.337-18.617,18.617C213.786,206.884,222.123,215.213,232.403,215.213z"/>
      <path d="M232.403,217.82c-22.291,0-28.765,9.367-31.484,45.558c-0.244,3.253,2.194,6.088,5.448,6.333&#10;&#9;&#9;&#9;c0.15,0.011,0.3,0.017,0.449,0.017c3.061,0,5.65-2.362,5.884-5.465c0.95-12.643,2.176-20.655,3.953-25.752v18.059l-5.862,26.342&#10;&#9;&#9;&#9;c-0.114,0.513,0.011,1.049,0.339,1.459c0.329,0.41,0.825,0.648,1.351,0.648h4.589v31.898c0,3.806,3.085,6.891,6.891,6.891&#10;&#9;&#9;&#9;c3.806,0,6.891-3.085,6.891-6.891v-31.898h3.104v31.898c0,3.806,3.085,6.891,6.891,6.891c3.806,0,6.891-3.085,6.891-6.891v-31.898&#10;&#9;&#9;&#9;h4.594c0.007,0,0.013,0,0.02,0c0.956,0,1.731-0.775,1.731-1.731c0-0.222-0.041-0.434-0.117-0.628l-5.812-26.111v-18.049&#10;&#9;&#9;&#9;c1.779,5.096,3.006,13.111,3.956,25.764c0.244,3.253,3.083,5.693,6.333,5.448c3.253-0.244,5.692-3.08,5.448-6.333&#10;&#9;&#9;&#9;C261.173,227.188,254.699,217.82,232.403,217.82z"/>
      <path d="M277.102,135.343H117.898c-17.925,0-32.508,14.583-32.508,32.508v159.204c0,17.925,14.583,32.509,32.508,32.509h159.204&#10;&#9;&#9;&#9;c17.925,0,32.509-14.584,32.509-32.509V167.851C309.61,149.926,295.027,135.343,277.102,135.343z M289.61,327.055&#10;&#9;&#9;&#9;c0,6.897-5.611,12.509-12.509,12.509H117.898c-6.897,0-12.508-5.611-12.508-12.509V167.851c0-6.896,5.611-12.508,12.508-12.508&#10;&#9;&#9;&#9;h159.204c6.897,0,12.509,5.611,12.509,12.508V327.055z"/>
      <path d="M149.674,72.483c0.976-0.977,1.953-1.953,2.929-2.929v36.549c0,1.647-0.051,3.267,0.445,4.87&#10;&#9;&#9;&#9;c1.341,4.338,5.583,7.275,10.113,7.026c4.511-0.248,8.398-3.633,9.258-8.068c0.267-1.376,0.184-2.821,0.184-4.217v-36.16&#10;&#9;&#9;&#9;c2.332,2.331,4.477,4.891,7.864,5.628c5.099,1.109,10.35-2.028,11.763-7.057c1.014-3.606-0.121-7.351-2.738-9.969l-19.815-19.815&#10;&#9;&#9;&#9;c-3.076-3.075-7.951-3.794-11.789-1.747c-1.587,0.85-2.783,2.174-4.038,3.429l-17.556,17.556c-0.871,0.87-1.715,1.733-2.342,2.813&#10;&#9;&#9;&#9;c-1.588,2.731-1.777,6.146-0.508,9.04C136.225,75.774,144.783,77.374,149.674,72.483z"/>
      <path d="M225.325,115.109c3.076,3.076,7.951,3.794,11.789,1.748c1.587-0.851,2.783-2.174,4.038-3.429l17.556-17.556&#10;&#9;&#9;&#9;c0.871-0.871,1.715-1.733,2.342-2.813c1.588-2.732,1.777-6.147,0.508-9.041c-2.782-6.343-11.34-7.941-16.231-3.051&#10;&#9;&#9;&#9;c-0.976,0.975-1.953,1.952-2.929,2.929V47.349c0-1.648,0.051-3.267-0.445-4.87c-1.341-4.338-5.583-7.276-10.113-7.027&#10;&#9;&#9;&#9;c-4.511,0.248-8.398,3.633-9.258,8.069c-0.267,1.375-0.184,2.821-0.184,4.217v36.16c-2.332-2.332-4.477-4.891-7.864-5.628&#10;&#9;&#9;&#9;c-5.099-1.11-10.35,2.028-11.763,7.056c-1.014,3.606,0.121,7.352,2.738,9.969L225.325,115.109z"/>
    </g>
  </g>
  <g transform="matrix(-0.000001, 0.076001, -0.063629, 0, 319.357513, 137.012955)" style=""/>
  <g transform="matrix(-0.000001, 0.076001, -0.063629, 0, 319.357513, 137.012955)" style=""/>
  <g transform="matrix(-0.000001, 0.076001, -0.063629, 0, 319.357513, 137.012955)" style=""/>
  <g transform="matrix(-0.000001, 0.076001, -0.063629, 0, 319.357513, 137.012955)" style=""/>
  <g transform="matrix(-0.000001, 0.076001, -0.063629, 0, 319.357513, 137.012955)" style=""/>
  <g transform="matrix(-0.000001, 0.076001, -0.063629, 0, 319.357513, 137.012955)" style=""/>
  <g transform="matrix(-0.000001, 0.076001, -0.063629, 0, 319.357513, 137.012955)" style=""/>
  <g transform="matrix(-0.000001, 0.076001, -0.063629, 0, 319.357513, 137.012955)" style=""/>
  <g transform="matrix(-0.000001, 0.076001, -0.063629, 0, 319.357513, 137.012955)" style=""/>
  <g transform="matrix(-0.000001, 0.076001, -0.063629, 0, 319.357513, 137.012955)" style=""/>
  <g transform="matrix(-0.000001, 0.076001, -0.063629, 0, 319.357513, 137.012955)" style=""/>
  <g transform="matrix(-0.000001, 0.076001, -0.063629, 0, 319.357513, 137.012955)" style=""/>
  <g transform="matrix(-0.000001, 0.076001, -0.063629, 0, 319.357513, 137.012955)" style=""/>
  <g transform="matrix(-0.000001, 0.076001, -0.063629, 0, 319.357513, 137.012955)" style=""/>
  <g transform="matrix(-0.000001, 0.076001, -0.063629, 0, 319.357513, 137.012955)" style=""/>
  <g transform="matrix(0.000004, 0.064622, -0.039857, 0.000001, 86.459045, -45.612171)" style="transform-origin: 197.5px 197.5px;">
    <g>
      <path d="M162.595,215.213c10.282,0,18.619-8.329,18.619-18.61c0-10.28-8.337-18.617-18.619-18.617&#10;&#9;&#9;&#9;c-10.278,0-18.62,8.337-18.62,18.617C143.975,206.884,152.317,215.213,162.595,215.213z" style=""/>
      <path d="M162.597,217.82c-22.292,0-28.766,9.367-31.487,45.558c-0.245,3.253,2.194,6.088,5.447,6.333&#10;&#9;&#9;&#9;c0.151,0.011,0.3,0.017,0.449,0.017c3.061,0,5.65-2.362,5.884-5.464c1.004-13.358,2.317-21.55,4.262-26.59&#10;&#9;&#9;&#9;c-0.198,0.997-0.306,2.026-0.306,3.082v22.722c0,1.22,0.152,2.4,0.414,3.54v49.899c0,3.806,3.085,6.891,6.891,6.891&#10;&#9;&#9;&#9;c3.806,0,6.891-3.085,6.891-6.891V279.15c0.512,0.05,1.03,0.078,1.555,0.078c0.522,0,1.038-0.028,1.547-0.078v37.767&#10;&#9;&#9;&#9;c0,3.806,3.086,6.891,6.891,6.891c3.806,0,6.891-3.085,6.891-6.891v-49.87c0.267-1.148,0.421-2.34,0.421-3.569v-22.722&#10;&#9;&#9;&#9;c0-1.054-0.108-2.082-0.305-3.077c1.943,5.04,3.255,13.23,4.258,26.584c0.245,3.253,3.085,5.69,6.332,5.448&#10;&#9;&#9;&#9;c3.253-0.245,5.692-3.08,5.448-6.333C191.362,227.188,184.888,217.82,162.597,217.82z" style=""/>
      <path d="M232.403,215.213c10.28,0,18.622-8.329,18.622-18.61c0-10.28-8.342-18.617-18.622-18.617&#10;&#9;&#9;&#9;c-10.28,0-18.617,8.337-18.617,18.617C213.786,206.884,222.123,215.213,232.403,215.213z" style=""/>
      <path d="M232.403,217.82c-22.291,0-28.765,9.367-31.484,45.558c-0.244,3.253,2.194,6.088,5.448,6.333&#10;&#9;&#9;&#9;c0.15,0.011,0.3,0.017,0.449,0.017c3.061,0,5.65-2.362,5.884-5.465c0.95-12.643,2.176-20.655,3.953-25.752v18.059l-5.862,26.342&#10;&#9;&#9;&#9;c-0.114,0.513,0.011,1.049,0.339,1.459c0.329,0.41,0.825,0.648,1.351,0.648h4.589v31.898c0,3.806,3.085,6.891,6.891,6.891&#10;&#9;&#9;&#9;c3.806,0,6.891-3.085,6.891-6.891v-31.898h3.104v31.898c0,3.806,3.085,6.891,6.891,6.891c3.806,0,6.891-3.085,6.891-6.891v-31.898&#10;&#9;&#9;&#9;h4.594c0.007,0,0.013,0,0.02,0c0.956,0,1.731-0.775,1.731-1.731c0-0.222-0.041-0.434-0.117-0.628l-5.812-26.111v-18.049&#10;&#9;&#9;&#9;c1.779,5.096,3.006,13.111,3.956,25.764c0.244,3.253,3.083,5.693,6.333,5.448c3.253-0.244,5.692-3.08,5.448-6.333&#10;&#9;&#9;&#9;C261.173,227.188,254.699,217.82,232.403,217.82z" style=""/>
      <path d="M277.102,135.343H117.898c-17.925,0-32.508,14.583-32.508,32.508v159.204c0,17.925,14.583,32.509,32.508,32.509h159.204&#10;&#9;&#9;&#9;c17.925,0,32.509-14.584,32.509-32.509V167.851C309.61,149.926,295.027,135.343,277.102,135.343z M289.61,327.055&#10;&#9;&#9;&#9;c0,6.897-5.611,12.509-12.509,12.509H117.898c-6.897,0-12.508-5.611-12.508-12.509V167.851c0-6.896,5.611-12.508,12.508-12.508&#10;&#9;&#9;&#9;h159.204c6.897,0,12.509,5.611,12.509,12.508V327.055z" style=""/>
      <path d="M149.674,72.483c0.976-0.977,1.953-1.953,2.929-2.929v36.549c0,1.647-0.051,3.267,0.445,4.87&#10;&#9;&#9;&#9;c1.341,4.338,5.583,7.275,10.113,7.026c4.511-0.248,8.398-3.633,9.258-8.068c0.267-1.376,0.184-2.821,0.184-4.217v-36.16&#10;&#9;&#9;&#9;c2.332,2.331,4.477,4.891,7.864,5.628c5.099,1.109,10.35-2.028,11.763-7.057c1.014-3.606-0.121-7.351-2.738-9.969l-19.815-19.815&#10;&#9;&#9;&#9;c-3.076-3.075-7.951-3.794-11.789-1.747c-1.587,0.85-2.783,2.174-4.038,3.429l-17.556,17.556c-0.871,0.87-1.715,1.733-2.342,2.813&#10;&#9;&#9;&#9;c-1.588,2.731-1.777,6.146-0.508,9.04C136.225,75.774,144.783,77.374,149.674,72.483z" style=""/>
      <path d="M225.325,115.109c3.076,3.076,7.951,3.794,11.789,1.748c1.587-0.851,2.783-2.174,4.038-3.429l17.556-17.556&#10;&#9;&#9;&#9;c0.871-0.871,1.715-1.733,2.342-2.813c1.588-2.732,1.777-6.147,0.508-9.041c-2.782-6.343-11.34-7.941-16.231-3.051&#10;&#9;&#9;&#9;c-0.976,0.975-1.953,1.952-2.929,2.929V47.349c0-1.648,0.051-3.267-0.445-4.87c-1.341-4.338-5.583-7.276-10.113-7.027&#10;&#9;&#9;&#9;c-4.511,0.248-8.398,3.633-9.258,8.069c-0.267,1.375-0.184,2.821-0.184,4.217v36.16c-2.332-2.332-4.477-4.891-7.864-5.628&#10;&#9;&#9;&#9;c-5.099-1.11-10.35,2.028-11.763,7.056c-1.014,3.606,0.121,7.352,2.738,9.969L225.325,115.109z" style=""/>
    </g>
  </g>
  <g transform="matrix(0.000004, 0.064622, -0.039857, 0.000001, 64.443939, -46.025883)" style="transform-origin: 197.5px 197.5px;">
    <g>
      <path d="M162.595,215.213c10.282,0,18.619-8.329,18.619-18.61c0-10.28-8.337-18.617-18.619-18.617&#10;&#9;&#9;&#9;c-10.278,0-18.62,8.337-18.62,18.617C143.975,206.884,152.317,215.213,162.595,215.213z"/>
      <path d="M162.597,217.82c-22.292,0-28.766,9.367-31.487,45.558c-0.245,3.253,2.194,6.088,5.447,6.333&#10;&#9;&#9;&#9;c0.151,0.011,0.3,0.017,0.449,0.017c3.061,0,5.65-2.362,5.884-5.464c1.004-13.358,2.317-21.55,4.262-26.59&#10;&#9;&#9;&#9;c-0.198,0.997-0.306,2.026-0.306,3.082v22.722c0,1.22,0.152,2.4,0.414,3.54v49.899c0,3.806,3.085,6.891,6.891,6.891&#10;&#9;&#9;&#9;c3.806,0,6.891-3.085,6.891-6.891V279.15c0.512,0.05,1.03,0.078,1.555,0.078c0.522,0,1.038-0.028,1.547-0.078v37.767&#10;&#9;&#9;&#9;c0,3.806,3.086,6.891,6.891,6.891c3.806,0,6.891-3.085,6.891-6.891v-49.87c0.267-1.148,0.421-2.34,0.421-3.569v-22.722&#10;&#9;&#9;&#9;c0-1.054-0.108-2.082-0.305-3.077c1.943,5.04,3.255,13.23,4.258,26.584c0.245,3.253,3.085,5.69,6.332,5.448&#10;&#9;&#9;&#9;c3.253-0.245,5.692-3.08,5.448-6.333C191.362,227.188,184.888,217.82,162.597,217.82z"/>
      <path d="M232.403,215.213c10.28,0,18.622-8.329,18.622-18.61c0-10.28-8.342-18.617-18.622-18.617&#10;&#9;&#9;&#9;c-10.28,0-18.617,8.337-18.617,18.617C213.786,206.884,222.123,215.213,232.403,215.213z"/>
      <path d="M232.403,217.82c-22.291,0-28.765,9.367-31.484,45.558c-0.244,3.253,2.194,6.088,5.448,6.333&#10;&#9;&#9;&#9;c0.15,0.011,0.3,0.017,0.449,0.017c3.061,0,5.65-2.362,5.884-5.465c0.95-12.643,2.176-20.655,3.953-25.752v18.059l-5.862,26.342&#10;&#9;&#9;&#9;c-0.114,0.513,0.011,1.049,0.339,1.459c0.329,0.41,0.825,0.648,1.351,0.648h4.589v31.898c0,3.806,3.085,6.891,6.891,6.891&#10;&#9;&#9;&#9;c3.806,0,6.891-3.085,6.891-6.891v-31.898h3.104v31.898c0,3.806,3.085,6.891,6.891,6.891c3.806,0,6.891-3.085,6.891-6.891v-31.898&#10;&#9;&#9;&#9;h4.594c0.007,0,0.013,0,0.02,0c0.956,0,1.731-0.775,1.731-1.731c0-0.222-0.041-0.434-0.117-0.628l-5.812-26.111v-18.049&#10;&#9;&#9;&#9;c1.779,5.096,3.006,13.111,3.956,25.764c0.244,3.253,3.083,5.693,6.333,5.448c3.253-0.244,5.692-3.08,5.448-6.333&#10;&#9;&#9;&#9;C261.173,227.188,254.699,217.82,232.403,217.82z"/>
      <path d="M277.102,135.343H117.898c-17.925,0-32.508,14.583-32.508,32.508v159.204c0,17.925,14.583,32.509,32.508,32.509h159.204&#10;&#9;&#9;&#9;c17.925,0,32.509-14.584,32.509-32.509V167.851C309.61,149.926,295.027,135.343,277.102,135.343z M289.61,327.055&#10;&#9;&#9;&#9;c0,6.897-5.611,12.509-12.509,12.509H117.898c-6.897,0-12.508-5.611-12.508-12.509V167.851c0-6.896,5.611-12.508,12.508-12.508&#10;&#9;&#9;&#9;h159.204c6.897,0,12.509,5.611,12.509,12.508V327.055z"/>
      <path d="M149.674,72.483c0.976-0.977,1.953-1.953,2.929-2.929v36.549c0,1.647-0.051,3.267,0.445,4.87&#10;&#9;&#9;&#9;c1.341,4.338,5.583,7.275,10.113,7.026c4.511-0.248,8.398-3.633,9.258-8.068c0.267-1.376,0.184-2.821,0.184-4.217v-36.16&#10;&#9;&#9;&#9;c2.332,2.331,4.477,4.891,7.864,5.628c5.099,1.109,10.35-2.028,11.763-7.057c1.014-3.606-0.121-7.351-2.738-9.969l-19.815-19.815&#10;&#9;&#9;&#9;c-3.076-3.075-7.951-3.794-11.789-1.747c-1.587,0.85-2.783,2.174-4.038,3.429l-17.556,17.556c-0.871,0.87-1.715,1.733-2.342,2.813&#10;&#9;&#9;&#9;c-1.588,2.731-1.777,6.146-0.508,9.04C136.225,75.774,144.783,77.374,149.674,72.483z"/>
      <path d="M225.325,115.109c3.076,3.076,7.951,3.794,11.789,1.748c1.587-0.851,2.783-2.174,4.038-3.429l17.556-17.556&#10;&#9;&#9;&#9;c0.871-0.871,1.715-1.733,2.342-2.813c1.588-2.732,1.777-6.147,0.508-9.041c-2.782-6.343-11.34-7.941-16.231-3.051&#10;&#9;&#9;&#9;c-0.976,0.975-1.953,1.952-2.929,2.929V47.349c0-1.648,0.051-3.267-0.445-4.87c-1.341-4.338-5.583-7.276-10.113-7.027&#10;&#9;&#9;&#9;c-4.511,0.248-8.398,3.633-9.258,8.069c-0.267,1.375-0.184,2.821-0.184,4.217v36.16c-2.332-2.332-4.477-4.891-7.864-5.628&#10;&#9;&#9;&#9;c-5.099-1.11-10.35,2.028-11.763,7.056c-1.014,3.606,0.121,7.352,2.738,9.969L225.325,115.109z"/>
    </g>
  </g>
  <path style="stroke: rgb(0, 0, 0); fill: rgba(216, 216, 216, 0.647); transform-box: fill-box; transform-origin: 50% 50%;" d="M 356.519 455.624 L 356.276 428.175 C 356.982 423.301 386.879 433.661 383.727 455.418" transform="matrix(-0.999852, 0.017229, -0.017229, -0.999852, -0.000004, -0.00005)"/>
  <g id="XMLID_1500_" transform="matrix(-0.000001, 0.041642, -0.044102, 0, 161.214279, 156.55188)" style="transform-origin: 149.45px 149.449px;">
    <g>
      <g>
        <path d="M21.067,139.301l15.336-38.143l13.554-8.399l-13.682,59.382l0.162,0.037c-0.355,1.495-0.456,3.076-0.231,4.689&#10;&#9;&#9;&#9;&#9;l2.824,20.293l23.907-12.884l-0.862-6.191l2.903,0.669l2.581,3.031c5.94-3.201,23.256-12.533,29.196-15.735l-0.369-0.042&#10;&#9;&#9;&#9;&#9;c-9.662-1.099-16.193-8.547-17.487-13.779L68.168,88.865l20.914,40.846c1.669,3.257,4.855,5.463,8.491,5.877l43.375,4.935&#10;&#9;&#9;&#9;&#9;c5.675,0.646,10.867-3.188,11.956-8.744c1.23-6.28-3.151-12.249-9.485-12.969l-37.554-4.273l-18.94-36.99l23.674,26.54&#10;&#9;&#9;&#9;&#9;l4.506-19.56c2.02-8.768-3.45-17.514-12.218-19.533c-24.214-5.489-29.606-7.188-32.562-7.439&#10;&#9;&#9;&#9;&#9;c-2.712-0.23-5.619,0.358-8.115,1.905L21.846,84.471c-1.979,1.226-3.514,3.052-4.382,5.212L0.792,131.15&#10;&#9;&#9;&#9;&#9;c-2.251,5.599,0.463,11.963,6.062,14.214C12.46,147.617,18.819,144.893,21.067,139.301z" style=""/>
        <path d="M44.29,225.318l-5.547,52.959c-0.785,7.497,5.086,14.054,12.674,14.054c6.433-0.001,11.957-4.863,12.643-11.402&#10;&#9;&#9;&#9;&#9;l6.329-60.42c0.207-1.979-0.01-2.774-0.848-8.799L44.29,225.318z" style=""/>
        <circle cx="100.175" cy="30.684" r="24.117" style=""/>
        <path d="M298.85,64.512c0-7.28-7.808-11.935-14.216-8.449l-122.242,66.496c1.063,3.016,1.441,6.257,1.069,9.528&#10;&#9;&#9;&#9;&#9;c-1.331,11.701-11.909,20.199-23.7,18.858l-24.441-2.781L10.822,205.008c-3.095,1.684-5.023,4.926-5.023,8.449&#10;&#9;&#9;&#9;&#9;c0,8.407,0,61.724,0,69.255c0,5.313,4.306,9.619,9.619,9.619c5.312,0,9.619-4.306,9.619-9.619c0-7.121,0-56.302,0-63.537&#10;&#9;&#9;&#9;&#9;L279.612,80.694c0,4.789,0,101.721,0,106.473h-32.958c-1.761,0-3.189,1.427-3.189,3.189v23.102h-52.244&#10;&#9;&#9;&#9;&#9;c-1.761,0-3.189,1.427-3.189,3.189v23.102h-52.244c-1.761,0-3.189,1.427-3.189,3.189v23.102h-27.492&#10;&#9;&#9;&#9;&#9;c2.727-1.791,4.772-4.62,5.481-8.068l12.816-62.301c0.777-3.776-0.06-7.625-3.173-11.281l-23.05,12.422l-11.526,56.032&#10;&#9;&#9;&#9;&#9;c-1.082,5.258,1.255,10.417,5.483,13.196H80.355c-1.761,0-3.189,1.427-3.189,3.189v19.914c0,1.761,1.427,3.189,3.189,3.189&#10;&#9;&#9;&#9;&#9;H295.71c1.761,0,3.189-1.427,3.189-3.189C298.899,178.359,298.85,221.994,298.85,64.512z" style=""/>
      </g>
    </g>
  </g>
  <g transform="matrix(0, 0.107105, -0.104379, 0, 373.872833, 234.147369)" style=""/>
  <g transform="matrix(0, 0.107105, -0.104379, 0, 373.872833, 234.147369)" style=""/>
  <g transform="matrix(0, 0.107105, -0.104379, 0, 373.872833, 234.147369)" style=""/>
  <g transform="matrix(0, 0.107105, -0.104379, 0, 373.872833, 234.147369)" style=""/>
  <g transform="matrix(0, 0.107105, -0.104379, 0, 373.872833, 234.147369)" style=""/>
  <g transform="matrix(0, 0.107105, -0.104379, 0, 373.872833, 234.147369)" style=""/>
  <g transform="matrix(0, 0.107105, -0.104379, 0, 373.872833, 234.147369)" style=""/>
  <g transform="matrix(0, 0.107105, -0.104379, 0, 373.872833, 234.147369)" style=""/>
  <g transform="matrix(0, 0.107105, -0.104379, 0, 373.872833, 234.147369)" style=""/>
  <g transform="matrix(0, 0.107105, -0.104379, 0, 373.872833, 234.147369)" style=""/>
  <g transform="matrix(0, 0.107105, -0.104379, 0, 373.872833, 234.147369)" style=""/>
  <g transform="matrix(0, 0.107105, -0.104379, 0, 373.872833, 234.147369)" style=""/>
  <g transform="matrix(0, 0.107105, -0.104379, 0, 373.872833, 234.147369)" style=""/>
  <g transform="matrix(0, 0.107105, -0.104379, 0, 373.872833, 234.147369)" style=""/>
  <g transform="matrix(0, 0.107105, -0.104379, 0, 373.872833, 234.147369)" style=""/>
</svg>