<?xml version="1.0" encoding="utf-8"?>
<svg viewBox="0 0 495.835 377.825" xmlns="http://www.w3.org/2000/svg">
  <defs/>
  <rect x="7.442" y="7.975" width="482.048" height="362.24" style="stroke-linecap: round; stroke-linejoin: round; fill: rgba(216, 216, 216, 0); stroke: rgb(152, 154, 153); stroke-width: 8px;"/>
  <polyline style="fill: rgba(216, 216, 216, 0); stroke-linecap: round; stroke-linejoin: round; stroke-width: 5px; stroke: rgb(152, 154, 153);" points="15.074 59.048 263.177 58.077 417.063 57.475 421.888 318.263 15.585 315.668"/>
  <line style="fill: rgb(216, 216, 216); stroke-width: 7px; stroke: rgb(250, 250, 250); stroke-linecap: round; transform-box: fill-box; transform-origin: 50% 50%;" x1="27.464" y1="58.259" x2="52.914" y2="60.126" transform="matrix(-1, 0, 0, -1, -0.000005, 0.000003)"/>
  <line style="fill: rgb(216, 216, 216); stroke: rgb(250, 250, 250); stroke-linecap: round; stroke-linejoin: round; stroke-width: 12px; transform-origin: 132.001px 59.428px;" x1="121.2" y1="58.939" x2="142.804" y2="59.916" transform="matrix(-1, 0, 0, -1, -0.000009, 0.000007)"/>
  <line style="fill: rgb(216, 216, 216); stroke-width: 7px; stroke: rgb(250, 250, 250); stroke-linecap: round; transform-origin: 244.593px 57.735px;" x1="232.891" y1="56.634" x2="256.294" y2="58.837" transform="matrix(-1, 0, 0, -1, 0.000002, 0)"/>
  <line style="fill: rgb(216, 216, 216); stroke-width: 7px; stroke: rgb(250, 250, 250); transform-origin: 331.029px 57.544px;" x1="315.593" y1="56.627" x2="346.467" y2="58.461" transform="matrix(-1, 0, 0, -1, -0.000008, 0.000003)"/>
  <line style="fill: rgb(216, 216, 216); stroke: rgb(250, 250, 250); transform-origin: 374.095px 316.81px; stroke-width: 9px;" x1="356.345" y1="316.014" x2="391.846" y2="317.606" transform="matrix(-1, 0, 0, -1, -0.000043, 0.000031)"/>
  <line style="fill: rgb(216, 216, 216); stroke: rgb(250, 250, 250); transform-origin: 311.19px 316.745px; stroke-width: 8px;" x1="293.44" y1="315.949" x2="328.941" y2="317.541" transform="matrix(-1, 0, 0, -1, -0.000012, -0.000001)"/>
  <line style="fill: rgb(216, 216, 216); stroke-width: 7px; stroke: rgb(250, 250, 250); transform-origin: 250.283px 316.631px;" x1="232.533" y1="315.835" x2="268.034" y2="317.427" transform="matrix(-1, 0, 0, -1, 0.000019, 0.000016)"/>
  <line style="fill: rgb(216, 216, 216); stroke: rgb(250, 250, 250); stroke-linecap: round; stroke-linejoin: round; transform-origin: 159.256px 316.676px; stroke-width: 11px;" x1="146.203" y1="315.932" x2="172.31" y2="317.42" transform="matrix(-1, 0, 0, -1, -0.000002, 0.000019)"/>
  <line style="fill: rgb(216, 216, 216); stroke: rgb(250, 250, 250); transform-origin: 36.527px 315.106px; stroke-linecap: round; stroke-width: 9px;" x1="18.777" y1="314.371" x2="54.278" y2="315.841" transform="matrix(-1, 0, 0, -1, 0.000003, 0.000011)"/>
  <line style="fill: rgb(216, 216, 216); stroke-width: 7px; stroke: rgb(250, 250, 250); transform-origin: 417.857px 85.702px;" x1="417.021" y1="98.368" x2="417.456" y2="66.584"/>
  <line style="fill: rgb(216, 216, 216); stroke-width: 7px; stroke: rgb(250, 250, 250); transform-origin: 421.38px 242.846px;" x1="402.263" y1="243.246" x2="440.498" y2="242.445" transform="matrix(-0.000001, -1, 1, -0.000001, -0.000024, -0.000015)"/>
  <rect x="129.508" y="116.09" width="180.514" height="121.284" style="fill: rgba(255, 255, 255, 0); stroke-linecap: round; stroke-linejoin: round; stroke-width: 6px; stroke: rgb(152, 154, 153);"/>
  <rect x="151.779" y="130.595" width="134.133" height="93.635" style="stroke-width: 4px; fill: rgba(0, 0, 0, 0); stroke: rgb(152, 154, 153);"/>
  <line style="fill: rgb(216, 216, 216); stroke: rgb(250, 250, 250); stroke-width: 6px; stroke-linecap: round; transform-origin: 151.53px 150.271px;" x1="151.564" y1="152.242" x2="150.973" y2="146.145"/>
  <line style="fill: rgb(216, 216, 216); stroke: rgb(250, 250, 250); transform-origin: 153.272px 156.855px; stroke-width: 0px;" x1="153.325" y1="164.271" x2="152.765" y2="141.333"/>
  <line style="fill: rgb(216, 216, 216); stroke: rgb(250, 250, 250); stroke-width: 5px; transform-box: fill-box; transform-origin: 231.751% 73.8658%; stroke-linecap: round;" x1="151.471" y1="160.433" x2="151.299" y2="169.511" transform="matrix(-1, 0, 0, -1, -0.000001, 0.00001)"/>
  <line style="fill: rgb(216, 216, 216); stroke: rgb(250, 250, 250); stroke-width: 5px; transform-origin: 151.213px 193.459px; stroke-linecap: round;" x1="150.757" y1="191.089" x2="150.412" y2="200.154" transform="matrix(-1, 0, 0, -1, 0.000006, 0.000005)"/>
  <line style="fill: rgb(216, 216, 216); stroke: rgb(250, 250, 250); transform-origin: 285.68px 145.837px; stroke-width: 5px;" x1="285.593" y1="149.548" x2="285.527" y2="135.351"/>
  <line style="fill: rgb(216, 216, 216); stroke: rgb(250, 250, 250); stroke-width: 5px; transform-origin: 286.262px 215.375px;" x1="286.175" y1="219.086" x2="286.109" y2="204.889"/>
  <line style="fill: rgb(216, 216, 216); stroke-linecap: round; stroke-linejoin: round; stroke-width: 4px; stroke: rgb(152, 154, 153);" x1="114.83" y1="55.236" x2="114.036" y2="13.674"/>
  <line style="fill: rgb(216, 216, 216); stroke-width: 4px; stroke-linecap: round; stroke-linejoin: round; stroke: rgb(152, 154, 153);" x1="116.825" y1="25.348" x2="149.542" y2="25.29"/>
  <line style="fill: rgb(216, 216, 216); stroke-linecap: round; stroke-width: 4px; stroke: rgb(152, 154, 153);" x1="150.917" y1="55.097" x2="150.93" y2="38.003"/>
  <line style="fill: rgb(216, 216, 216); stroke-width: 3px; stroke: rgb(152, 154, 153);" x1="290.281" y1="55.557" x2="289.61" y2="10.472"/>
  <line style="fill: rgb(216, 216, 216); stroke-width: 5px; stroke: rgb(152, 154, 153);" x1="409.916" y1="52.496" x2="409.348" y2="9.192"/>
  <line style="fill: rgb(216, 216, 216); stroke-width: 5px; stroke: rgb(152, 154, 153);" x1="424.342" y1="145.112" x2="486.363" y2="142.987"/>
  <line style="fill: rgb(216, 216, 216); stroke-width: 5px; stroke: rgb(152, 154, 153);" x1="424.71" y1="308.511" x2="484.692" y2="308.878"/>
  <line style="fill: rgb(216, 216, 216); stroke-width: 3px; stroke: rgb(152, 154, 153);" x1="342.654" y1="320.305" x2="343.701" y2="367.45"/>
  <line style="fill: rgb(216, 216, 216); stroke-width: 3px; stroke: rgb(152, 154, 153);" x1="278.893" y1="319.31" x2="278.861" y2="370.122"/>
  <line style="fill: rgb(216, 216, 216); stroke-width: 3px; stroke: rgb(152, 154, 153);" x1="191.537" y1="319.346" x2="192.568" y2="368.106"/>
  <line style="fill: rgb(216, 216, 216); stroke-width: 3px; stroke: rgb(152, 154, 153);" x1="91.052" y1="318.237" x2="90.495" y2="370.124"/>
  <path style="stroke: rgb(0, 0, 0); fill: rgba(154, 152, 152, 0.424);" d="M 25.942 60.749 L 25.699 33.3 C 26.405 28.426 56.302 38.786 53.15 60.543"/>
  <path style="stroke: rgb(0, 0, 0); fill: rgba(216, 216, 216, 0.827);" d="M 230.702 60.069 L 230.469 37.248 C 231.145 33.195 259.779 41.809 256.76 59.898"/>
  <path style="stroke: rgb(0, 0, 0); fill: rgba(216, 216, 216, 0.647);" d="M 317.462 59.274 L 317.219 31.825 C 317.925 26.951 347.822 37.311 344.67 59.068"/>
  <path style="stroke: rgb(0, 0, 0); transform-box: fill-box; transform-origin: 50% 50%; fill: rgba(216, 216, 216, 0.73);" d="M 152.268 43.867 L 152.132 23.292 C 152.527 19.638 169.222 27.404 167.462 43.713" transform="matrix(-0.01183, 0.99993, -0.99993, -0.01183, -0.000007, 0.000001)"/>
  <g transform="matrix(0.064622, -0.000004, 0.000001, 0.039856, -55.572025, -50.3773)" style="transform-origin: 197.5px 197.5px;">
    <g>
      <path d="M162.595,215.213c10.282,0,18.619-8.329,18.619-18.61c0-10.28-8.337-18.617-18.619-18.617&#10;&#9;&#9;&#9;c-10.278,0-18.62,8.337-18.62,18.617C143.975,206.884,152.317,215.213,162.595,215.213z"/>
      <path d="M162.597,217.82c-22.292,0-28.766,9.367-31.487,45.558c-0.245,3.253,2.194,6.088,5.447,6.333&#10;&#9;&#9;&#9;c0.151,0.011,0.3,0.017,0.449,0.017c3.061,0,5.65-2.362,5.884-5.464c1.004-13.358,2.317-21.55,4.262-26.59&#10;&#9;&#9;&#9;c-0.198,0.997-0.306,2.026-0.306,3.082v22.722c0,1.22,0.152,2.4,0.414,3.54v49.899c0,3.806,3.085,6.891,6.891,6.891&#10;&#9;&#9;&#9;c3.806,0,6.891-3.085,6.891-6.891V279.15c0.512,0.05,1.03,0.078,1.555,0.078c0.522,0,1.038-0.028,1.547-0.078v37.767&#10;&#9;&#9;&#9;c0,3.806,3.086,6.891,6.891,6.891c3.806,0,6.891-3.085,6.891-6.891v-49.87c0.267-1.148,0.421-2.34,0.421-3.569v-22.722&#10;&#9;&#9;&#9;c0-1.054-0.108-2.082-0.305-3.077c1.943,5.04,3.255,13.23,4.258,26.584c0.245,3.253,3.085,5.69,6.332,5.448&#10;&#9;&#9;&#9;c3.253-0.245,5.692-3.08,5.448-6.333C191.362,227.188,184.888,217.82,162.597,217.82z"/>
      <path d="M232.403,215.213c10.28,0,18.622-8.329,18.622-18.61c0-10.28-8.342-18.617-18.622-18.617&#10;&#9;&#9;&#9;c-10.28,0-18.617,8.337-18.617,18.617C213.786,206.884,222.123,215.213,232.403,215.213z"/>
      <path d="M232.403,217.82c-22.291,0-28.765,9.367-31.484,45.558c-0.244,3.253,2.194,6.088,5.448,6.333&#10;&#9;&#9;&#9;c0.15,0.011,0.3,0.017,0.449,0.017c3.061,0,5.65-2.362,5.884-5.465c0.95-12.643,2.176-20.655,3.953-25.752v18.059l-5.862,26.342&#10;&#9;&#9;&#9;c-0.114,0.513,0.011,1.049,0.339,1.459c0.329,0.41,0.825,0.648,1.351,0.648h4.589v31.898c0,3.806,3.085,6.891,6.891,6.891&#10;&#9;&#9;&#9;c3.806,0,6.891-3.085,6.891-6.891v-31.898h3.104v31.898c0,3.806,3.085,6.891,6.891,6.891c3.806,0,6.891-3.085,6.891-6.891v-31.898&#10;&#9;&#9;&#9;h4.594c0.007,0,0.013,0,0.02,0c0.956,0,1.731-0.775,1.731-1.731c0-0.222-0.041-0.434-0.117-0.628l-5.812-26.111v-18.049&#10;&#9;&#9;&#9;c1.779,5.096,3.006,13.111,3.956,25.764c0.244,3.253,3.083,5.693,6.333,5.448c3.253-0.244,5.692-3.08,5.448-6.333&#10;&#9;&#9;&#9;C261.173,227.188,254.699,217.82,232.403,217.82z"/>
      <path d="M277.102,135.343H117.898c-17.925,0-32.508,14.583-32.508,32.508v159.204c0,17.925,14.583,32.509,32.508,32.509h159.204&#10;&#9;&#9;&#9;c17.925,0,32.509-14.584,32.509-32.509V167.851C309.61,149.926,295.027,135.343,277.102,135.343z M289.61,327.055&#10;&#9;&#9;&#9;c0,6.897-5.611,12.509-12.509,12.509H117.898c-6.897,0-12.508-5.611-12.508-12.509V167.851c0-6.896,5.611-12.508,12.508-12.508&#10;&#9;&#9;&#9;h159.204c6.897,0,12.509,5.611,12.509,12.508V327.055z"/>
      <path d="M149.674,72.483c0.976-0.977,1.953-1.953,2.929-2.929v36.549c0,1.647-0.051,3.267,0.445,4.87&#10;&#9;&#9;&#9;c1.341,4.338,5.583,7.275,10.113,7.026c4.511-0.248,8.398-3.633,9.258-8.068c0.267-1.376,0.184-2.821,0.184-4.217v-36.16&#10;&#9;&#9;&#9;c2.332,2.331,4.477,4.891,7.864,5.628c5.099,1.109,10.35-2.028,11.763-7.057c1.014-3.606-0.121-7.351-2.738-9.969l-19.815-19.815&#10;&#9;&#9;&#9;c-3.076-3.075-7.951-3.794-11.789-1.747c-1.587,0.85-2.783,2.174-4.038,3.429l-17.556,17.556c-0.871,0.87-1.715,1.733-2.342,2.813&#10;&#9;&#9;&#9;c-1.588,2.731-1.777,6.146-0.508,9.04C136.225,75.774,144.783,77.374,149.674,72.483z"/>
      <path d="M225.325,115.109c3.076,3.076,7.951,3.794,11.789,1.748c1.587-0.851,2.783-2.174,4.038-3.429l17.556-17.556&#10;&#9;&#9;&#9;c0.871-0.871,1.715-1.733,2.342-2.813c1.588-2.732,1.777-6.147,0.508-9.041c-2.782-6.343-11.34-7.941-16.231-3.051&#10;&#9;&#9;&#9;c-0.976,0.975-1.953,1.952-2.929,2.929V47.349c0-1.648,0.051-3.267-0.445-4.87c-1.341-4.338-5.583-7.276-10.113-7.027&#10;&#9;&#9;&#9;c-4.511,0.248-8.398,3.633-9.258,8.069c-0.267,1.375-0.184,2.821-0.184,4.217v36.16c-2.332-2.332-4.477-4.891-7.864-5.628&#10;&#9;&#9;&#9;c-5.099-1.11-10.35,2.028-11.763,7.056c-1.014,3.606,0.121,7.352,2.738,9.969L225.325,115.109z"/>
    </g>
  </g>
  <g transform="matrix(0.076001, 0, 0, 0.063628, 126.503304, 131.647095)" style=""/>
  <g transform="matrix(0.076001, 0, 0, 0.063628, 126.503304, 131.647095)" style=""/>
  <g transform="matrix(0.076001, 0, 0, 0.063628, 126.503304, 131.647095)" style=""/>
  <g transform="matrix(0.076001, 0, 0, 0.063628, 126.503304, 131.647095)" style=""/>
  <g transform="matrix(0.076001, 0, 0, 0.063628, 126.503304, 131.647095)" style=""/>
  <g transform="matrix(0.076001, 0, 0, 0.063628, 126.503304, 131.647095)" style=""/>
  <g transform="matrix(0.076001, 0, 0, 0.063628, 126.503304, 131.647095)" style=""/>
  <g transform="matrix(0.076001, 0, 0, 0.063628, 126.503304, 131.647095)" style=""/>
  <g transform="matrix(0.076001, 0, 0, 0.063628, 126.503304, 131.647095)" style=""/>
  <g transform="matrix(0.076001, 0, 0, 0.063628, 126.503304, 131.647095)" style=""/>
  <g transform="matrix(0.076001, 0, 0, 0.063628, 126.503304, 131.647095)" style=""/>
  <g transform="matrix(0.076001, 0, 0, 0.063628, 126.503304, 131.647095)" style=""/>
  <g transform="matrix(0.076001, 0, 0, 0.063628, 126.503304, 131.647095)" style=""/>
  <g transform="matrix(0.076001, 0, 0, 0.063628, 126.503304, 131.647095)" style=""/>
  <g transform="matrix(0.076001, 0, 0, 0.063628, 126.503304, 131.647095)" style=""/>
  <g transform="matrix(0.064622, -0.000004, 0.000001, 0.039856, -56.121811, -30.454449)" style="transform-origin: 197.5px 197.5px;">
    <g>
      <path d="M162.595,215.213c10.282,0,18.619-8.329,18.619-18.61c0-10.28-8.337-18.617-18.619-18.617&#10;&#9;&#9;&#9;c-10.278,0-18.62,8.337-18.62,18.617C143.975,206.884,152.317,215.213,162.595,215.213z" style=""/>
      <path d="M162.597,217.82c-22.292,0-28.766,9.367-31.487,45.558c-0.245,3.253,2.194,6.088,5.447,6.333&#10;&#9;&#9;&#9;c0.151,0.011,0.3,0.017,0.449,0.017c3.061,0,5.65-2.362,5.884-5.464c1.004-13.358,2.317-21.55,4.262-26.59&#10;&#9;&#9;&#9;c-0.198,0.997-0.306,2.026-0.306,3.082v22.722c0,1.22,0.152,2.4,0.414,3.54v49.899c0,3.806,3.085,6.891,6.891,6.891&#10;&#9;&#9;&#9;c3.806,0,6.891-3.085,6.891-6.891V279.15c0.512,0.05,1.03,0.078,1.555,0.078c0.522,0,1.038-0.028,1.547-0.078v37.767&#10;&#9;&#9;&#9;c0,3.806,3.086,6.891,6.891,6.891c3.806,0,6.891-3.085,6.891-6.891v-49.87c0.267-1.148,0.421-2.34,0.421-3.569v-22.722&#10;&#9;&#9;&#9;c0-1.054-0.108-2.082-0.305-3.077c1.943,5.04,3.255,13.23,4.258,26.584c0.245,3.253,3.085,5.69,6.332,5.448&#10;&#9;&#9;&#9;c3.253-0.245,5.692-3.08,5.448-6.333C191.362,227.188,184.888,217.82,162.597,217.82z" style=""/>
      <path d="M232.403,215.213c10.28,0,18.622-8.329,18.622-18.61c0-10.28-8.342-18.617-18.622-18.617&#10;&#9;&#9;&#9;c-10.28,0-18.617,8.337-18.617,18.617C213.786,206.884,222.123,215.213,232.403,215.213z" style=""/>
      <path d="M232.403,217.82c-22.291,0-28.765,9.367-31.484,45.558c-0.244,3.253,2.194,6.088,5.448,6.333&#10;&#9;&#9;&#9;c0.15,0.011,0.3,0.017,0.449,0.017c3.061,0,5.65-2.362,5.884-5.465c0.95-12.643,2.176-20.655,3.953-25.752v18.059l-5.862,26.342&#10;&#9;&#9;&#9;c-0.114,0.513,0.011,1.049,0.339,1.459c0.329,0.41,0.825,0.648,1.351,0.648h4.589v31.898c0,3.806,3.085,6.891,6.891,6.891&#10;&#9;&#9;&#9;c3.806,0,6.891-3.085,6.891-6.891v-31.898h3.104v31.898c0,3.806,3.085,6.891,6.891,6.891c3.806,0,6.891-3.085,6.891-6.891v-31.898&#10;&#9;&#9;&#9;h4.594c0.007,0,0.013,0,0.02,0c0.956,0,1.731-0.775,1.731-1.731c0-0.222-0.041-0.434-0.117-0.628l-5.812-26.111v-18.049&#10;&#9;&#9;&#9;c1.779,5.096,3.006,13.111,3.956,25.764c0.244,3.253,3.083,5.693,6.333,5.448c3.253-0.244,5.692-3.08,5.448-6.333&#10;&#9;&#9;&#9;C261.173,227.188,254.699,217.82,232.403,217.82z" style=""/>
      <path d="M277.102,135.343H117.898c-17.925,0-32.508,14.583-32.508,32.508v159.204c0,17.925,14.583,32.509,32.508,32.509h159.204&#10;&#9;&#9;&#9;c17.925,0,32.509-14.584,32.509-32.509V167.851C309.61,149.926,295.027,135.343,277.102,135.343z M289.61,327.055&#10;&#9;&#9;&#9;c0,6.897-5.611,12.509-12.509,12.509H117.898c-6.897,0-12.508-5.611-12.508-12.509V167.851c0-6.896,5.611-12.508,12.508-12.508&#10;&#9;&#9;&#9;h159.204c6.897,0,12.509,5.611,12.509,12.508V327.055z" style=""/>
      <path d="M149.674,72.483c0.976-0.977,1.953-1.953,2.929-2.929v36.549c0,1.647-0.051,3.267,0.445,4.87&#10;&#9;&#9;&#9;c1.341,4.338,5.583,7.275,10.113,7.026c4.511-0.248,8.398-3.633,9.258-8.068c0.267-1.376,0.184-2.821,0.184-4.217v-36.16&#10;&#9;&#9;&#9;c2.332,2.331,4.477,4.891,7.864,5.628c5.099,1.109,10.35-2.028,11.763-7.057c1.014-3.606-0.121-7.351-2.738-9.969l-19.815-19.815&#10;&#9;&#9;&#9;c-3.076-3.075-7.951-3.794-11.789-1.747c-1.587,0.85-2.783,2.174-4.038,3.429l-17.556,17.556c-0.871,0.87-1.715,1.733-2.342,2.813&#10;&#9;&#9;&#9;c-1.588,2.731-1.777,6.146-0.508,9.04C136.225,75.774,144.783,77.374,149.674,72.483z" style=""/>
      <path d="M225.325,115.109c3.076,3.076,7.951,3.794,11.789,1.748c1.587-0.851,2.783-2.174,4.038-3.429l17.556-17.556&#10;&#9;&#9;&#9;c0.871-0.871,1.715-1.733,2.342-2.813c1.588-2.732,1.777-6.147,0.508-9.041c-2.782-6.343-11.34-7.941-16.231-3.051&#10;&#9;&#9;&#9;c-0.976,0.975-1.953,1.952-2.929,2.929V47.349c0-1.648,0.051-3.267-0.445-4.87c-1.341-4.338-5.583-7.276-10.113-7.027&#10;&#9;&#9;&#9;c-4.511,0.248-8.398,3.633-9.258,8.069c-0.267,1.375-0.184,2.821-0.184,4.217v36.16c-2.332-2.332-4.477-4.891-7.864-5.628&#10;&#9;&#9;&#9;c-5.099-1.11-10.35,2.028-11.763,7.056c-1.014,3.606,0.121,7.352,2.738,9.969L225.325,115.109z" style=""/>
    </g>
  </g>
  <g transform="matrix(0.064622, -0.000004, 0.000001, 0.039856, -56.53553, -8.439332)" style="transform-origin: 197.5px 197.5px;">
    <g>
      <path d="M162.595,215.213c10.282,0,18.619-8.329,18.619-18.61c0-10.28-8.337-18.617-18.619-18.617&#10;&#9;&#9;&#9;c-10.278,0-18.62,8.337-18.62,18.617C143.975,206.884,152.317,215.213,162.595,215.213z"/>
      <path d="M162.597,217.82c-22.292,0-28.766,9.367-31.487,45.558c-0.245,3.253,2.194,6.088,5.447,6.333&#10;&#9;&#9;&#9;c0.151,0.011,0.3,0.017,0.449,0.017c3.061,0,5.65-2.362,5.884-5.464c1.004-13.358,2.317-21.55,4.262-26.59&#10;&#9;&#9;&#9;c-0.198,0.997-0.306,2.026-0.306,3.082v22.722c0,1.22,0.152,2.4,0.414,3.54v49.899c0,3.806,3.085,6.891,6.891,6.891&#10;&#9;&#9;&#9;c3.806,0,6.891-3.085,6.891-6.891V279.15c0.512,0.05,1.03,0.078,1.555,0.078c0.522,0,1.038-0.028,1.547-0.078v37.767&#10;&#9;&#9;&#9;c0,3.806,3.086,6.891,6.891,6.891c3.806,0,6.891-3.085,6.891-6.891v-49.87c0.267-1.148,0.421-2.34,0.421-3.569v-22.722&#10;&#9;&#9;&#9;c0-1.054-0.108-2.082-0.305-3.077c1.943,5.04,3.255,13.23,4.258,26.584c0.245,3.253,3.085,5.69,6.332,5.448&#10;&#9;&#9;&#9;c3.253-0.245,5.692-3.08,5.448-6.333C191.362,227.188,184.888,217.82,162.597,217.82z"/>
      <path d="M232.403,215.213c10.28,0,18.622-8.329,18.622-18.61c0-10.28-8.342-18.617-18.622-18.617&#10;&#9;&#9;&#9;c-10.28,0-18.617,8.337-18.617,18.617C213.786,206.884,222.123,215.213,232.403,215.213z"/>
      <path d="M232.403,217.82c-22.291,0-28.765,9.367-31.484,45.558c-0.244,3.253,2.194,6.088,5.448,6.333&#10;&#9;&#9;&#9;c0.15,0.011,0.3,0.017,0.449,0.017c3.061,0,5.65-2.362,5.884-5.465c0.95-12.643,2.176-20.655,3.953-25.752v18.059l-5.862,26.342&#10;&#9;&#9;&#9;c-0.114,0.513,0.011,1.049,0.339,1.459c0.329,0.41,0.825,0.648,1.351,0.648h4.589v31.898c0,3.806,3.085,6.891,6.891,6.891&#10;&#9;&#9;&#9;c3.806,0,6.891-3.085,6.891-6.891v-31.898h3.104v31.898c0,3.806,3.085,6.891,6.891,6.891c3.806,0,6.891-3.085,6.891-6.891v-31.898&#10;&#9;&#9;&#9;h4.594c0.007,0,0.013,0,0.02,0c0.956,0,1.731-0.775,1.731-1.731c0-0.222-0.041-0.434-0.117-0.628l-5.812-26.111v-18.049&#10;&#9;&#9;&#9;c1.779,5.096,3.006,13.111,3.956,25.764c0.244,3.253,3.083,5.693,6.333,5.448c3.253-0.244,5.692-3.08,5.448-6.333&#10;&#9;&#9;&#9;C261.173,227.188,254.699,217.82,232.403,217.82z"/>
      <path d="M277.102,135.343H117.898c-17.925,0-32.508,14.583-32.508,32.508v159.204c0,17.925,14.583,32.509,32.508,32.509h159.204&#10;&#9;&#9;&#9;c17.925,0,32.509-14.584,32.509-32.509V167.851C309.61,149.926,295.027,135.343,277.102,135.343z M289.61,327.055&#10;&#9;&#9;&#9;c0,6.897-5.611,12.509-12.509,12.509H117.898c-6.897,0-12.508-5.611-12.508-12.509V167.851c0-6.896,5.611-12.508,12.508-12.508&#10;&#9;&#9;&#9;h159.204c6.897,0,12.509,5.611,12.509,12.508V327.055z"/>
      <path d="M149.674,72.483c0.976-0.977,1.953-1.953,2.929-2.929v36.549c0,1.647-0.051,3.267,0.445,4.87&#10;&#9;&#9;&#9;c1.341,4.338,5.583,7.275,10.113,7.026c4.511-0.248,8.398-3.633,9.258-8.068c0.267-1.376,0.184-2.821,0.184-4.217v-36.16&#10;&#9;&#9;&#9;c2.332,2.331,4.477,4.891,7.864,5.628c5.099,1.109,10.35-2.028,11.763-7.057c1.014-3.606-0.121-7.351-2.738-9.969l-19.815-19.815&#10;&#9;&#9;&#9;c-3.076-3.075-7.951-3.794-11.789-1.747c-1.587,0.85-2.783,2.174-4.038,3.429l-17.556,17.556c-0.871,0.87-1.715,1.733-2.342,2.813&#10;&#9;&#9;&#9;c-1.588,2.731-1.777,6.146-0.508,9.04C136.225,75.774,144.783,77.374,149.674,72.483z"/>
      <path d="M225.325,115.109c3.076,3.076,7.951,3.794,11.789,1.748c1.587-0.851,2.783-2.174,4.038-3.429l17.556-17.556&#10;&#9;&#9;&#9;c0.871-0.871,1.715-1.733,2.342-2.813c1.588-2.732,1.777-6.147,0.508-9.041c-2.782-6.343-11.34-7.941-16.231-3.051&#10;&#9;&#9;&#9;c-0.976,0.975-1.953,1.952-2.929,2.929V47.349c0-1.648,0.051-3.267-0.445-4.87c-1.341-4.338-5.583-7.276-10.113-7.027&#10;&#9;&#9;&#9;c-4.511,0.248-8.398,3.633-9.258,8.069c-0.267,1.375-0.184,2.821-0.184,4.217v36.16c-2.332-2.332-4.477-4.891-7.864-5.628&#10;&#9;&#9;&#9;c-5.099-1.11-10.35,2.028-11.763,7.056c-1.014,3.606,0.121,7.352,2.738,9.969L225.325,115.109z"/>
    </g>
  </g>
  <path style="stroke: rgb(0, 0, 0); fill: rgba(216, 216, 216, 0.647); transform-box: fill-box; transform-origin: 50% 50%;" d="M 417.197 95.204 L 416.954 67.755 C 417.66 62.881 447.557 73.241 444.405 94.998" transform="matrix(0.017228, 0.999852, -0.999852, 0.017228, 0.00001, -0.000014)"/>
  <g id="XMLID_1500_" transform="matrix(0.041642, 0, 0, 0.044102, 289.268311, 133.749603)" style="">
    <g>
      <g>
        <path d="M21.067,139.301l15.336-38.143l13.554-8.399l-13.682,59.382l0.162,0.037c-0.355,1.495-0.456,3.076-0.231,4.689&#10;&#9;&#9;&#9;&#9;l2.824,20.293l23.907-12.884l-0.862-6.191l2.903,0.669l2.581,3.031c5.94-3.201,23.256-12.533,29.196-15.735l-0.369-0.042&#10;&#9;&#9;&#9;&#9;c-9.662-1.099-16.193-8.547-17.487-13.779L68.168,88.865l20.914,40.846c1.669,3.257,4.855,5.463,8.491,5.877l43.375,4.935&#10;&#9;&#9;&#9;&#9;c5.675,0.646,10.867-3.188,11.956-8.744c1.23-6.28-3.151-12.249-9.485-12.969l-37.554-4.273l-18.94-36.99l23.674,26.54&#10;&#9;&#9;&#9;&#9;l4.506-19.56c2.02-8.768-3.45-17.514-12.218-19.533c-24.214-5.489-29.606-7.188-32.562-7.439&#10;&#9;&#9;&#9;&#9;c-2.712-0.23-5.619,0.358-8.115,1.905L21.846,84.471c-1.979,1.226-3.514,3.052-4.382,5.212L0.792,131.15&#10;&#9;&#9;&#9;&#9;c-2.251,5.599,0.463,11.963,6.062,14.214C12.46,147.617,18.819,144.893,21.067,139.301z" style=""/>
        <path d="M44.29,225.318l-5.547,52.959c-0.785,7.497,5.086,14.054,12.674,14.054c6.433-0.001,11.957-4.863,12.643-11.402&#10;&#9;&#9;&#9;&#9;l6.329-60.42c0.207-1.979-0.01-2.774-0.848-8.799L44.29,225.318z" style=""/>
        <circle cx="100.175" cy="30.684" r="24.117" style=""/>
        <path d="M298.85,64.512c0-7.28-7.808-11.935-14.216-8.449l-122.242,66.496c1.063,3.016,1.441,6.257,1.069,9.528&#10;&#9;&#9;&#9;&#9;c-1.331,11.701-11.909,20.199-23.7,18.858l-24.441-2.781L10.822,205.008c-3.095,1.684-5.023,4.926-5.023,8.449&#10;&#9;&#9;&#9;&#9;c0,8.407,0,61.724,0,69.255c0,5.313,4.306,9.619,9.619,9.619c5.312,0,9.619-4.306,9.619-9.619c0-7.121,0-56.302,0-63.537&#10;&#9;&#9;&#9;&#9;L279.612,80.694c0,4.789,0,101.721,0,106.473h-32.958c-1.761,0-3.189,1.427-3.189,3.189v23.102h-52.244&#10;&#9;&#9;&#9;&#9;c-1.761,0-3.189,1.427-3.189,3.189v23.102h-52.244c-1.761,0-3.189,1.427-3.189,3.189v23.102h-27.492&#10;&#9;&#9;&#9;&#9;c2.727-1.791,4.772-4.62,5.481-8.068l12.816-62.301c0.777-3.776-0.06-7.625-3.173-11.281l-23.05,12.422l-11.526,56.032&#10;&#9;&#9;&#9;&#9;c-1.082,5.258,1.255,10.417,5.483,13.196H80.355c-1.761,0-3.189,1.427-3.189,3.189v19.914c0,1.761,1.427,3.189,3.189,3.189&#10;&#9;&#9;&#9;&#9;H295.71c1.761,0,3.189-1.427,3.189-3.189C298.899,178.359,298.85,221.994,298.85,64.512z" style=""/>
      </g>
    </g>
  </g>
  <g transform="matrix(0.107104, 0, 0, 0.104379, 223.637726, 77.131729)" style=""/>
  <g transform="matrix(0.107104, 0, 0, 0.104379, 223.637726, 77.131729)" style=""/>
  <g transform="matrix(0.107104, 0, 0, 0.104379, 223.637726, 77.131729)" style=""/>
  <g transform="matrix(0.107104, 0, 0, 0.104379, 223.637726, 77.131729)" style=""/>
  <g transform="matrix(0.107104, 0, 0, 0.104379, 223.637726, 77.131729)" style=""/>
  <g transform="matrix(0.107104, 0, 0, 0.104379, 223.637726, 77.131729)" style=""/>
  <g transform="matrix(0.107104, 0, 0, 0.104379, 223.637726, 77.131729)" style=""/>
  <g transform="matrix(0.107104, 0, 0, 0.104379, 223.637726, 77.131729)" style=""/>
  <g transform="matrix(0.107104, 0, 0, 0.104379, 223.637726, 77.131729)" style=""/>
  <g transform="matrix(0.107104, 0, 0, 0.104379, 223.637726, 77.131729)" style=""/>
  <g transform="matrix(0.107104, 0, 0, 0.104379, 223.637726, 77.131729)" style=""/>
  <g transform="matrix(0.107104, 0, 0, 0.104379, 223.637726, 77.131729)" style=""/>
  <g transform="matrix(0.107104, 0, 0, 0.104379, 223.637726, 77.131729)" style=""/>
  <g transform="matrix(0.107104, 0, 0, 0.104379, 223.637726, 77.131729)" style=""/>
  <g transform="matrix(0.107104, 0, 0, 0.104379, 223.637726, 77.131729)" style=""/>
</svg>