<?xml version="1.0" encoding="utf-8"?>
<svg viewBox="0 0 500 500" xmlns="http://www.w3.org/2000/svg">
  <defs/>
  <path class="cls-1" d="M 400 161.642 C 400 156.132 396.91 151.092 392 148.602 L 247.93 75.422 C 243.71 73.272 238.7 73.312 234.51 75.512 L 90.22 151.262 C 85.41 153.792 82.39 158.772 82.39 164.212 L 82.39 178.712 L 169.47 154.702 L 82.39 191.952 L 82.39 223.762 L 170.1 211.972 L 82.39 236.862 L 82.39 266.952 L 169.38 280.822 L 82.39 279.342 L 82.39 310.162 L 170.1 341.282 L 82.39 323.482 L 82.39 349.582 C 82.39 356.302 86.97 362.162 93.49 363.782 L 237.61 399.572 C 239.92 400.142 242.34 400.142 244.66 399.572 L 388.89 363.782 C 395.41 362.162 399.99 356.312 399.99 349.582 L 399.99 321.972 L 304.84 341.282 L 399.99 307.532 L 399.99 279.222 L 305.57 280.832 L 399.99 265.772 L 399.99 238.982 L 304.84 211.982 L 399.99 224.772 L 399.99 195.142 L 305.48 154.712 L 399.99 180.772 L 399.99 161.642 L 400 161.642 Z M 207.3 214.642 C 208.48 211.412 210.12 208.452 212.4 205.862 C 214.56 203.412 217.14 201.512 220.04 200.032 C 222.16 198.952 224.37 198.132 226.64 197.432 C 226.74 197.402 226.84 197.372 226.93 197.302 C 223.73 197.052 220.56 197.102 217.4 197.732 C 214.25 198.362 211.31 199.522 208.55 201.162 C 208.59 201.102 208.63 201.032 208.68 200.972 C 211.16 197.742 214.19 195.202 217.97 193.612 C 219.91 192.802 221.92 192.282 224 191.992 C 226.06 191.712 228.12 191.662 230.2 191.772 C 230.96 191.812 231.72 191.892 232.48 191.952 C 232.54 191.952 232.59 191.952 232.65 191.932 C 228.81 189.972 224.75 189.162 220.43 189.722 C 221.18 188.522 226.09 186.812 229.08 186.682 C 232.26 186.552 235.23 187.312 238.03 188.802 C 238.07 188.712 238.11 188.642 238.14 188.572 C 239.12 186.112 240.09 183.652 241.07 181.182 C 241.09 181.132 241.1 181.072 241.11 181.012 L 241.17 181.012 C 241.83 182.692 242.49 184.372 243.15 186.052 C 243.47 186.872 243.8 187.692 244.12 188.512 C 244.16 188.602 244.2 188.692 244.24 188.772 C 250.29 185.772 256.17 185.852 261.86 189.642 C 257.57 189.142 253.53 189.942 249.69 191.862 C 249.69 191.892 249.69 191.912 249.69 191.942 C 250.03 191.912 250.37 191.892 250.71 191.862 C 252.67 191.692 254.62 191.652 256.58 191.802 C 258.98 191.982 261.31 192.452 263.56 193.302 C 267.59 194.822 270.82 197.412 273.46 200.782 C 273.54 200.882 273.62 200.992 273.7 201.092 C 273.71 201.102 273.71 201.132 273.74 201.212 C 268.07 197.682 261.88 196.762 255.37 197.332 C 255.46 197.362 255.56 197.392 255.65 197.422 C 258.5 198.292 261.26 199.372 263.84 200.882 C 268.44 203.582 271.79 207.402 274.02 212.232 C 274.74 213.792 275.32 215.402 275.81 217.052 C 275.82 217.092 275.82 217.132 275.81 217.192 C 271.13 210.992 265.19 206.562 257.74 204.232 C 257.83 204.292 257.92 204.362 258.01 204.422 C 261.08 206.522 263.86 208.932 266.2 211.852 C 269.21 215.602 271.19 219.842 272.15 224.542 C 272.45 226.022 272.6 227.532 272.82 229.032 C 272.82 229.062 272.82 229.102 272.82 229.232 C 270.3 224.102 267 219.662 262.91 215.802 C 261.21 214.192 259.4 212.702 257.46 211.352 C 264.64 220.352 267.11 230.562 265.32 241.882 C 263.43 232.702 259.26 224.662 253.15 217.572 C 253.19 217.682 253.22 217.782 253.26 217.892 C 254.23 220.552 254.91 223.282 255.26 226.092 C 255.64 229.092 255.64 232.102 255.28 235.112 C 254.78 239.322 253.61 243.342 251.94 247.222 C 251.93 247.252 251.9 247.282 251.92 247.252 C 251.92 246.612 251.9 245.912 251.92 245.222 C 252 243.042 251.92 240.862 251.73 238.692 C 251.45 235.462 250.86 232.292 249.91 229.192 C 248.88 225.822 247.45 222.642 245.55 219.672 C 245.5 219.592 245.44 219.512 245.32 219.432 C 244.99 222.692 244.66 225.962 244.33 229.262 L 245.49 229.262 C 245.1 233.132 244.72 236.962 244.33 240.832 L 245.49 240.832 C 245.1 244.712 244.72 248.552 244.33 252.422 L 245.49 252.422 C 245.38 253.512 245.28 254.572 245.17 255.632 C 245.02 257.142 244.87 258.652 244.71 260.162 C 244.6 261.282 244.49 262.402 244.37 263.522 C 244.34 263.822 244.37 264.042 244.61 264.272 C 245.52 265.142 246.4 266.042 247.29 266.922 C 247.37 267.002 247.44 267.072 247.55 267.202 L 234.73 267.202 C 234.83 267.092 234.9 267.012 234.97 266.942 C 235.89 266.022 236.8 265.112 237.73 264.202 C 237.88 264.052 237.94 263.902 237.91 263.702 C 237.76 262.202 237.61 260.702 237.46 259.202 C 237.31 257.692 237.15 256.182 237 254.672 C 236.93 253.992 236.87 253.312 236.8 252.632 C 236.8 252.572 236.8 252.512 236.8 252.422 L 237.93 252.422 C 237.54 248.552 237.16 244.722 236.77 240.852 L 237.93 240.852 C 237.54 236.972 237.16 233.142 236.77 229.262 L 237.93 229.262 C 237.6 225.952 237.27 222.692 236.93 219.332 C 236.81 219.502 236.74 219.592 236.68 219.692 C 234.18 223.622 232.5 227.882 231.48 232.422 C 230.47 236.932 230.17 241.502 230.35 246.102 C 230.37 246.502 230.39 246.902 230.38 247.302 C 226.15 237.542 225.37 227.632 229.1 217.522 C 223.02 224.632 218.84 232.672 216.94 241.872 C 216.05 236.452 216.14 231.062 217.51 225.732 C 218.87 220.402 221.38 215.642 224.81 211.352 C 218.25 216.052 213.04 221.902 209.44 229.252 C 210.26 218.322 215.57 210.202 224.48 204.232 C 220.85 205.382 217.5 207.032 214.43 209.262 C 211.36 211.502 208.75 214.202 206.39 217.182 C 206.68 216.332 206.94 215.472 207.25 214.632 L 207.3 214.642 Z M 295.17 259.582 C 292.97 259.672 290.78 259.892 288.61 260.222 C 280.51 261.452 272.99 264.282 265.85 268.222 C 260.7 271.062 255.87 274.382 251.23 277.982 C 249.32 279.462 247.46 280.982 245.57 282.492 C 245.49 282.552 245.42 282.622 245.3 282.732 C 248.21 285.362 251.08 287.962 253.93 290.532 C 254.01 290.522 254.04 290.522 254.05 290.512 C 255.11 289.382 256.16 288.242 256.72 286.752 C 257.16 285.592 257.22 284.402 256.91 283.202 C 256.88 283.082 256.85 282.972 256.81 282.822 C 257.68 282.842 258.39 283.152 258.94 283.802 C 259.62 284.622 259.82 285.592 259.78 286.622 C 259.7 288.712 258.78 290.462 257.52 292.062 C 257.3 292.332 257.07 292.602 256.84 292.862 C 256.86 292.902 256.87 292.932 256.89 292.952 C 258.44 294.262 259.98 295.592 261.76 296.592 C 262.44 296.972 263.16 297.312 263.91 297.502 C 265.58 297.932 266.92 296.992 267.25 295.252 C 267.41 294.392 267.73 293.632 268.46 293.102 C 270.03 291.942 272.27 292.612 273.08 294.482 C 273.64 295.772 273.58 297.102 273.17 298.402 C 272.43 300.792 270.72 302.232 268.39 302.922 C 265.08 303.902 261.97 303.322 259.19 301.312 C 257.45 300.052 255.83 298.642 254.15 297.292 C 253.95 297.132 253.75 296.962 253.51 296.762 C 253.07 297.272 252.62 297.752 252.2 298.262 C 251.37 299.272 250.73 300.392 250.51 301.712 C 250.37 302.532 250.43 303.332 250.63 304.132 C 250.66 304.242 250.69 304.362 250.72 304.502 C 249.83 304.462 249.11 304.152 248.57 303.482 C 247.91 302.672 247.72 301.722 247.75 300.712 C 247.81 298.812 248.59 297.182 249.69 295.672 C 250 295.242 250.36 294.842 250.71 294.402 C 247.54 291.672 244.36 288.932 241.17 286.182 C 237.97 288.932 234.8 291.672 231.64 294.392 C 232.09 294.972 232.54 295.512 232.94 296.082 C 233.74 297.242 234.32 298.512 234.52 299.912 C 234.69 301.082 234.61 302.222 233.93 303.242 C 233.39 304.052 232.61 304.442 231.63 304.492 C 231.71 304.102 231.8 303.732 231.85 303.362 C 232.06 301.912 231.68 300.592 230.94 299.362 C 230.36 298.402 229.6 297.592 228.82 296.752 C 228.36 297.132 227.92 297.512 227.46 297.872 C 225.88 299.122 224.37 300.462 222.71 301.572 C 219.86 303.472 216.73 303.902 213.48 302.742 C 211.18 301.922 209.6 300.352 209.04 297.902 C 208.77 296.732 208.77 295.572 209.26 294.442 C 210.03 292.702 212.03 291.992 213.61 292.902 C 214.38 293.342 214.81 294.032 215.01 294.882 C 215.08 295.162 215.12 295.452 215.22 295.732 C 215.71 297.172 216.99 297.892 218.49 297.462 C 219.22 297.262 219.92 296.932 220.58 296.562 C 222.38 295.562 223.92 294.202 225.52 292.872 C 225.29 292.592 225.06 292.342 224.85 292.082 C 223.79 290.772 222.98 289.322 222.66 287.642 C 222.46 286.592 222.47 285.542 222.91 284.542 C 223.36 283.552 224.12 282.962 225.2 282.812 C 225.29 282.802 225.38 282.812 225.48 282.812 C 225.4 283.252 225.31 283.672 225.26 284.112 C 225.11 285.422 225.45 286.622 226.09 287.742 C 226.68 288.782 227.49 289.642 228.33 290.562 C 231.23 287.942 234.11 285.342 237.01 282.722 C 236.94 282.642 236.89 282.582 236.84 282.542 C 232.38 278.852 227.8 275.312 222.96 272.132 C 217.92 268.822 212.66 265.942 207.02 263.762 C 202.93 262.182 198.72 261.012 194.39 260.302 C 191.93 259.902 189.46 259.642 186.96 259.552 C 186.53 259.542 186.11 259.512 185.67 259.432 C 186.53 259.162 187.38 258.882 188.24 258.632 C 190.87 257.882 193.55 257.402 196.29 257.212 C 202.04 256.812 207.57 257.772 212.95 259.772 C 217.42 261.432 221.56 263.722 225.51 266.362 C 230.32 269.572 234.76 273.242 239.09 277.062 C 239.77 277.662 240.46 278.272 241.16 278.902 C 241.79 278.342 242.41 277.782 243.04 277.232 C 247.01 273.722 251.07 270.332 255.43 267.302 C 259.5 264.472 263.76 261.992 268.37 260.162 C 271.19 259.042 274.09 258.182 277.09 257.672 C 280.01 257.172 282.95 257.012 285.91 257.212 C 289.53 257.452 293.04 258.202 296.46 259.392 C 296.51 259.412 296.57 259.432 296.7 259.492 C 296.13 259.522 295.65 259.542 295.16 259.562 L 295.17 259.582 Z" style="fill: rgb(255, 255, 255);"/>
</svg>