<?xml version="1.0" encoding="UTF-8"?>
<svg id="Layer_1" data-name="Layer 1" xmlns="http://www.w3.org/2000/svg" viewBox="0 0 1473.22 440.29">
  <defs>
    <style>
      .cls-1, .cls-2 {
        fill: #fff;
      }

      .cls-2 {
        stroke: #fff;
        stroke-miterlimit: 10;
        stroke-width: .89px;
      }
    </style>
  </defs>
  <path class="cls-1" d="m1390.39,144.87c0-5.51-3.09-10.55-8-13.04l-144.07-73.18c-4.22-2.15-9.23-2.11-13.42.09l-144.29,75.75c-4.81,2.53-7.83,7.51-7.83,12.95v14.5l87.08-24.01-87.08,37.25v31.81l87.71-11.79-87.71,24.89v30.09l86.99,13.87-86.99-1.48v30.82l87.71,31.12-87.71-17.8v26.1c0,6.72,4.58,12.58,11.1,14.2l144.12,35.79c2.31.57,4.73.57,7.05,0l144.23-35.79c6.52-1.62,11.1-7.47,11.1-14.2v-27.61l-95.15,19.31,95.15-33.75v-28.31l-94.42,1.61,94.42-15.06v-26.79l-95.15-27,95.15,12.79v-29.63l-94.51-40.43,94.51,26.06v-19.13Zm-192.7,53c1.18-3.23,2.82-6.19,5.1-8.78,2.16-2.45,4.74-4.35,7.64-5.83,2.12-1.08,4.33-1.9,6.6-2.6.1-.03.2-.06.29-.13-3.2-.25-6.37-.2-9.53.43-3.15.63-6.09,1.79-8.85,3.43.04-.06.08-.13.13-.19,2.48-3.23,5.51-5.77,9.29-7.36,1.94-.81,3.95-1.33,6.03-1.62,2.06-.28,4.12-.33,6.2-.22.76.04,1.52.12,2.28.18.06,0,.11,0,.17-.02-3.84-1.96-7.9-2.77-12.22-2.21.75-1.2,5.66-2.91,8.65-3.04,3.18-.13,6.15.63,8.95,2.12.04-.09.08-.16.11-.23.98-2.46,1.95-4.92,2.93-7.39.02-.05.03-.11.04-.17h.06c.66,1.68,1.32,3.36,1.98,5.04.32.82.65,1.64.97,2.46.04.09.08.18.12.26,6.05-3,11.93-2.92,17.62.87-4.29-.5-8.33.3-12.17,2.22,0,.03,0,.05,0,.08.34-.03.68-.05,1.02-.08,1.96-.17,3.91-.21,5.87-.06,2.4.18,4.73.65,6.98,1.5,4.03,1.52,7.26,4.11,9.9,7.48.08.1.16.21.24.31.01.01.01.04.04.12-5.67-3.53-11.86-4.45-18.37-3.88.09.03.19.06.28.09,2.85.87,5.61,1.95,8.19,3.46,4.6,2.7,7.95,6.52,10.18,11.35.72,1.56,1.3,3.17,1.79,4.82.01.04.01.08,0,.14-4.68-6.2-10.62-10.63-18.07-12.96.09.06.18.13.27.19,3.07,2.1,5.85,4.51,8.19,7.43,3.01,3.75,4.99,7.99,5.95,12.69.3,1.48.45,2.99.67,4.49,0,.03,0,.07,0,.2-2.52-5.13-5.82-9.57-9.91-13.43-1.7-1.61-3.51-3.1-5.45-4.45,7.18,9,9.65,19.21,7.86,30.53-1.89-9.18-6.06-17.22-12.17-24.31.04.11.07.21.11.32.97,2.66,1.65,5.39,2,8.2.38,3,.38,6.01.02,9.02-.5,4.21-1.67,8.23-3.34,12.11-.01.03-.04.06-.02.03,0-.64-.02-1.34,0-2.03.08-2.18,0-4.36-.19-6.53-.28-3.23-.87-6.4-1.82-9.5-1.03-3.37-2.46-6.55-4.36-9.52-.05-.08-.11-.16-.23-.24-.33,3.26-.66,6.53-.99,9.83h1.16c-.39,3.87-.77,7.7-1.16,11.57h1.16c-.39,3.88-.77,7.72-1.16,11.59h1.16c-.11,1.09-.21,2.15-.32,3.21-.15,1.51-.3,3.02-.46,4.53-.11,1.12-.22,2.24-.34,3.36-.03.3,0,.52.24.75.91.87,1.79,1.77,2.68,2.65.08.08.15.15.26.28h-12.82c.1-.11.17-.19.24-.26.92-.92,1.83-1.83,2.76-2.74.15-.15.21-.3.18-.5-.15-1.5-.3-3-.45-4.5-.15-1.51-.31-3.02-.46-4.53-.07-.68-.13-1.36-.2-2.04,0-.06,0-.12,0-.21h1.13c-.39-3.87-.77-7.7-1.16-11.57h1.16c-.39-3.88-.77-7.71-1.16-11.59h1.16c-.33-3.31-.66-6.57-1-9.93-.12.17-.19.26-.25.36-2.5,3.93-4.18,8.19-5.2,12.73-1.01,4.51-1.31,9.08-1.13,13.68.02.4.04.8.03,1.2-4.23-9.76-5.01-19.67-1.28-29.78-6.08,7.11-10.26,15.15-12.16,24.35-.89-5.42-.8-10.81.57-16.14,1.36-5.33,3.87-10.09,7.3-14.38-6.56,4.7-11.77,10.55-15.37,17.9.82-10.93,6.13-19.05,15.04-25.02-3.63,1.15-6.98,2.8-10.05,5.03-3.07,2.24-5.68,4.94-8.04,7.92.29-.85.55-1.71.86-2.55Zm87.87,44.94c-2.2.09-4.39.31-6.56.64-8.1,1.23-15.62,4.06-22.76,8-5.15,2.84-9.98,6.16-14.62,9.76-1.91,1.48-3.77,3-5.66,4.51-.08.06-.15.13-.27.24,2.91,2.63,5.78,5.23,8.63,7.8.08-.01.11-.01.12-.02,1.06-1.13,2.11-2.27,2.67-3.76.44-1.16.5-2.35.19-3.55-.03-.12-.06-.23-.1-.38.87.02,1.58.33,2.13.98.68.82.88,1.79.84,2.82-.08,2.09-1,3.84-2.26,5.44-.22.27-.45.54-.68.8.02.04.03.07.05.09,1.55,1.31,3.09,2.64,4.87,3.64.68.38,1.4.72,2.15.91,1.67.43,3.01-.51,3.34-2.25.16-.86.48-1.62,1.21-2.15,1.57-1.16,3.81-.49,4.62,1.38.56,1.29.5,2.62.09,3.92-.74,2.39-2.45,3.83-4.78,4.52-3.31.98-6.42.4-9.2-1.61-1.74-1.26-3.36-2.67-5.04-4.02-.2-.16-.4-.33-.64-.53-.44.51-.89.99-1.31,1.5-.83,1.01-1.47,2.13-1.69,3.45-.14.82-.08,1.62.12,2.42.03.11.06.23.09.37-.89-.04-1.61-.35-2.15-1.02-.66-.81-.85-1.76-.82-2.77.06-1.9.84-3.53,1.94-5.04.31-.43.67-.83,1.02-1.27-3.17-2.73-6.35-5.47-9.54-8.22-3.2,2.75-6.37,5.49-9.53,8.21.45.58.9,1.12,1.3,1.69.8,1.16,1.38,2.43,1.58,3.83.17,1.17.09,2.31-.59,3.33-.54.81-1.32,1.2-2.3,1.25.08-.39.17-.76.22-1.13.21-1.45-.17-2.77-.91-4-.58-.96-1.34-1.77-2.12-2.61-.46.38-.9.76-1.36,1.12-1.58,1.25-3.09,2.59-4.75,3.7-2.85,1.9-5.98,2.33-9.23,1.17-2.3-.82-3.88-2.39-4.44-4.84-.27-1.17-.27-2.33.22-3.46.77-1.74,2.77-2.45,4.35-1.54.77.44,1.2,1.13,1.4,1.98.07.28.11.57.21.85.49,1.44,1.77,2.16,3.27,1.73.73-.2,1.43-.53,2.09-.9,1.8-1,3.34-2.36,4.94-3.69-.23-.28-.46-.53-.67-.79-1.06-1.31-1.87-2.76-2.19-4.44-.2-1.05-.19-2.1.25-3.1.45-.99,1.21-1.58,2.29-1.73.09-.01.18,0,.28,0-.08.44-.17.86-.22,1.3-.15,1.31.19,2.51.83,3.63.59,1.04,1.4,1.9,2.24,2.82,2.9-2.62,5.78-5.22,8.68-7.84-.07-.08-.12-.14-.17-.18-4.46-3.69-9.04-7.23-13.88-10.41-5.04-3.31-10.3-6.19-15.94-8.37-4.09-1.58-8.3-2.75-12.63-3.46-2.46-.4-4.93-.66-7.43-.75-.43-.01-.85-.04-1.29-.12.86-.27,1.71-.55,2.57-.8,2.63-.75,5.31-1.23,8.05-1.42,5.75-.4,11.28.56,16.66,2.56,4.47,1.66,8.61,3.95,12.56,6.59,4.81,3.21,9.25,6.88,13.58,10.7.68.6,1.37,1.21,2.07,1.84.63-.56,1.25-1.12,1.88-1.67,3.97-3.51,8.03-6.9,12.39-9.93,4.07-2.83,8.33-5.31,12.94-7.14,2.82-1.12,5.72-1.98,8.72-2.49,2.92-.5,5.86-.66,8.82-.46,3.62.24,7.13.99,10.55,2.18.05.02.11.04.24.1-.57.03-1.05.05-1.54.07Z"/>
  <g>
    <g>
      <path class="cls-1" d="m112.53,298.61h-16.78v19.21h-8.98v-45.89h8.98v18.68h16.78v-18.68h8.98v45.89h-8.98v-19.21Z"/>
      <path class="cls-1" d="m130.62,294.87c0-7.65,1.68-13.54,5.05-17.67,3.37-4.13,8.17-6.2,14.42-6.2,3.28,0,6.14.57,8.59,1.7,2.45,1.14,4.48,2.75,6.1,4.85,1.62,2.1,2.82,4.61,3.61,7.54.79,2.93,1.18,6.19,1.18,9.77,0,7.65-1.69,13.54-5.08,17.67s-8.18,6.2-14.39,6.2c-3.32,0-6.21-.57-8.65-1.71-2.45-1.14-4.47-2.75-6.06-4.85-1.6-2.1-2.79-4.61-3.57-7.54-.79-2.93-1.18-6.18-1.18-9.77Zm9.44,0c0,2.32.2,4.45.59,6.39.39,1.95.99,3.62,1.8,5.02.81,1.4,1.85,2.49,3.11,3.28,1.27.79,2.78,1.18,4.52,1.18,3.19,0,5.66-1.25,7.41-3.74,1.75-2.49,2.62-6.53,2.62-12.13,0-2.23-.19-4.3-.56-6.23-.37-1.92-.95-3.61-1.74-5.05-.79-1.44-1.81-2.57-3.08-3.38-1.27-.81-2.82-1.21-4.65-1.21-3.19,0-5.66,1.28-7.41,3.83s-2.62,6.57-2.62,12.03Z"/>
      <path class="cls-1" d="m207.65,317.82h-29.04v-45.89h8.98v37.89h20.06v8Z"/>
      <path class="cls-1" d="m222.01,300.77l-15.08-28.85h10.69l8.39,17.24.92,4.85h.33l.98-4.98,8.13-17.11h9.64l-15.01,28.78v17.11h-8.98v-17.04Z"/>
      <path class="cls-1" d="m302.84,294.02l.98-9.11h-.39l-2.82,7.34-9.77,17.11h-2.88l-10.29-17.18-2.88-7.28h-.33l1.31,9.05v23.86h-8.52v-45.89h8.19l12.26,20.98,2.16,5.25h.26l1.97-5.38,11.6-20.85h8.13v45.89h-8.98v-23.8Z"/>
      <path class="cls-1" d="m342.31,307.66h-14.09l-3.47,10.16h-8.98l16.52-46.22h6.62l16.52,46.22h-9.44l-3.67-10.16Zm-11.8-7.21h9.83l-3.41-10.23-1.38-7.21h-.33l-1.38,7.28-3.34,10.16Z"/>
      <path class="cls-1" d="m373.32,298.22h-2.36v19.6h-8.98v-45.89h8.98v20.32l2.1-.92,12.65-19.41h10.23l-13.37,19.27-3.54,2.49,3.67,2.56,15.28,21.57h-11.08l-13.57-19.6Z"/>
      <path class="cls-1" d="m413.97,298.22h-2.36v19.6h-8.98v-45.89h8.98v20.32l2.1-.92,12.65-19.41h10.23l-13.37,19.27-3.54,2.49,3.67,2.56,15.28,21.57h-11.08l-13.57-19.6Z"/>
      <path class="cls-1" d="m469.82,307.66h-14.09l-3.47,10.16h-8.98l16.52-46.22h6.62l16.52,46.22h-9.44l-3.67-10.16Zm-11.8-7.21h9.83l-3.41-10.23-1.38-7.21h-.33l-1.38,7.28-3.34,10.16Z"/>
      <path class="cls-1" d="m513.94,298.61h-16.78v19.21h-8.98v-45.89h8.98v18.68h16.78v-18.68h8.98v45.89h-8.98v-19.21Z"/>
      <path class="cls-1" d="m585.66,294.02l.98-9.11h-.39l-2.82,7.34-9.77,17.11h-2.88l-10.29-17.18-2.88-7.28h-.33l1.31,9.05v23.86h-8.52v-45.89h8.19l12.26,20.98,2.16,5.25h.26l1.97-5.38,11.6-20.85h8.13v45.89h-8.98v-23.8Z"/>
      <path class="cls-1" d="m627.42,271.93h8.52v29.63c0,2.97-.39,5.53-1.18,7.67-.79,2.14-1.88,3.91-3.28,5.31-1.4,1.4-3.1,2.43-5.11,3.08-2.01.66-4.22.98-6.62.98-11.63,0-17.44-5.31-17.44-15.93v-30.75h8.98v28.98c0,1.79.16,3.31.49,4.56.33,1.25.84,2.25,1.54,3.02.7.76,1.57,1.31,2.62,1.64s2.27.49,3.67.49c2.75,0,4.74-.76,5.97-2.29,1.22-1.53,1.84-4,1.84-7.41v-28.98Z"/>
      <path class="cls-1" d="m656.33,293.89l-3.61-7.21h-.33l1.05,7.21v23.93h-8.52v-46.22h6.56l17.37,24.45,3.47,7.01h.33l-1.05-7.01v-24.12h8.52v46.22h-6.56l-17.24-24.26Z"/>
      <path class="cls-1" d="m690.23,271.93h8.98v45.89h-8.98v-45.89Z"/>
      <path class="cls-1" d="m740.38,315.94c-1.4,1-3.18,1.71-5.34,2.15-2.16.43-4.38.65-6.65.65-2.75,0-5.37-.43-7.83-1.28-2.47-.85-4.64-2.23-6.52-4.13-1.88-1.9-3.38-4.37-4.49-7.41-1.11-3.04-1.67-6.72-1.67-11.05s.62-8.27,1.87-11.31c1.25-3.04,2.86-5.48,4.85-7.34,1.99-1.86,4.21-3.19,6.65-4,2.45-.81,4.89-1.21,7.34-1.21,2.62,0,4.84.17,6.65.52,1.81.35,3.31.77,4.49,1.25l-1.77,7.6c-1.01-.48-2.2-.83-3.57-1.05s-3.05-.33-5.02-.33c-3.63,0-6.55,1.29-8.75,3.88-2.21,2.58-3.31,6.59-3.31,12.02,0,2.36.26,4.52.79,6.47.52,1.95,1.32,3.61,2.39,4.99,1.07,1.38,2.4,2.45,4,3.22,1.59.77,3.44,1.15,5.54,1.15,1.97,0,3.63-.2,4.98-.59,1.35-.39,2.54-.9,3.54-1.51l1.83,7.3Z"/>
      <path class="cls-1" d="m748.18,271.93h8.98v45.89h-8.98v-45.89Z"/>
      <path class="cls-1" d="m767.26,272.39c1.84-.35,3.86-.62,6.06-.82,2.21-.2,4.4-.29,6.59-.29s4.56.19,6.85.56c2.29.37,4.36,1.11,6.19,2.23,1.84,1.11,3.33,2.67,4.49,4.65,1.16,1.99,1.74,4.58,1.74,7.77,0,2.88-.5,5.32-1.51,7.31-1.01,1.99-2.34,3.62-4,4.88-1.66,1.27-3.55,2.19-5.67,2.75-2.12.57-4.32.85-6.59.85h-1.05c-.48,0-.98-.01-1.51-.03-.52-.02-1.04-.05-1.54-.1-.5-.04-.86-.09-1.08-.13v15.8h-8.98v-45.43Zm13.37,6.62c-.88,0-1.71.03-2.49.1-.79.07-1.42.14-1.9.23v14.88c.17.04.44.09.79.13.35.04.72.08,1.11.1.39.02.78.03,1.15.03h.82c1.18,0,2.35-.11,3.51-.33,1.16-.22,2.2-.62,3.11-1.21.92-.59,1.65-1.41,2.2-2.46.55-1.05.82-2.43.82-4.13,0-1.44-.26-2.63-.79-3.57-.52-.94-1.21-1.69-2.06-2.26-.85-.57-1.83-.96-2.92-1.18s-2.21-.33-3.34-.33Z"/>
      <path class="cls-1" d="m823.64,307.66h-14.09l-3.47,10.16h-8.98l16.52-46.22h6.62l16.52,46.22h-9.44l-3.67-10.16Zm-11.8-7.21h9.83l-3.41-10.23-1.38-7.21h-.33l-1.38,7.28-3.34,10.16Z"/>
      <path class="cls-1" d="m871.04,317.82h-29.04v-45.89h8.98v37.89h20.06v8Z"/>
      <path class="cls-1" d="m879.23,271.93h8.98v45.89h-8.98v-45.89Z"/>
      <path class="cls-1" d="m930.89,279.93h-13.37v37.89h-8.98v-37.89h-13.44v-8h35.79v8Z"/>
      <path class="cls-1" d="m951.81,300.77l-15.08-28.85h10.69l8.39,17.24.92,4.85h.33l.98-4.98,8.13-17.11h9.64l-15.01,28.78v17.11h-8.98v-17.04Z"/>
    </g>
    <g>
      <path class="cls-2" d="m100.94,237.14c-7.15,0-14.12-6.61-13.94-15.66.27-13.76,11.23-18.74,26.89-17.65v-3.89l4.89-1.54.09,27.88c.27,6.97,4.16,10.86,10.77,10.86h4.98v4.62h-6.25c-10.23,0-13.22-6.97-14.03-12.4,0,0-3.62,7.79-13.4,7.79Zm.81-4.35c13.22,0,12.31-14.48,12.13-24.44-5.88.18-21-1.99-21.82,13.04-.18,3.26,1.81,11.41,9.69,11.41Zm.72-46.99h-5.7v6.16h5.7v-6.16Zm12.4,0h-5.7v6.16h5.7v-6.16Z"/>
      <path class="cls-2" d="m134.16,241.75v-4.62h7.79c6.7,0,10.77-3.98,10.77-11.13v-21.73h4.89v19.92c0,7.33,3.62,14.03,11.68,14.03,6.7,0,10.77-4.17,10.77-11.23v-22.72h4.89v19.92c0,7.33,3.62,14.03,11.68,14.03,6.7,0,10.77-4.17,10.77-11.23v-25.62h4.89v24.81c0,4.71-1.09,16.57-14.39,16.57-6.34,0-11.04-4.17-14.12-8.96-1.72,5.34-6.79,8.96-13.22,8.96-5.34,0-9.96-2.35-12.76-7.42-.54-.72-1-1.54-1.45-2.35-1.54,4.44-5.07,8.78-13.13,8.78h-9.05Z"/>
      <path class="cls-2" d="m249.49,214.59c-.54-6.7-3.71-8.78-9.42-8.78-5.16,0-9.78,1.54-10.5,7.06h-4.8c1.27-8.42,7.51-11.59,15.3-11.59,9.05,0,14.48,4.16,14.48,13.49v22.36h12.86v4.62h-43.73v-4.62h25.8v-22.54Z"/>
      <path class="cls-2" d="m310.96,217.49c-.09,9.69-5.61,15.75-11.68,19.28,1.09.27,1.81.36,2.17.36h18.65v4.62h-17.11c-1.54,0-5.34-.54-9.69-2.08-4.25,1.54-8.24,2.08-9.69,2.08h-17.02v-4.62h18.56c.36,0,1.18-.09,2.26-.36-6.25-3.53-11.77-9.6-11.77-19.28,0-9.14,6.61-18.02,17.65-18.02s17.65,8.87,17.65,18.02Zm-17.65,17.38c5.79-2.63,12.67-7.97,12.76-17.29,0-6.16-4.71-14.03-12.76-14.03s-12.77,7.88-12.77,14.03c.18,9.33,6.97,14.67,12.77,17.29Zm-3.35-45.81h-5.7v-6.07h5.7v6.07Zm12.4,0h-5.7v-6.07h5.7v6.07Z"/>
      <path class="cls-2" d="m322.46,237.14c3.26,0,10.5-1.9,10.86-10.86.54-9.87,6.61-20.82,19.01-20.82s18.65,10.86,19.1,20.55c.91,5.97,3.98,11.13,11.59,11.13h4.62v4.62h-3.89c-6.25,0-11.68-4.62-13.22-7.7-2.26,8.15-8.51,14.67-18.2,14.67-8.78,0-14.94-5.43-17.47-12.4-1.63,2.62-5.43,5.43-11.59,5.43h-3.89v-4.62h3.08Zm29.88-27.25c-9.78,0-13.76,9.69-13.76,17.2s3.98,17.2,13.76,17.2,13.85-9.6,13.85-17.2-3.98-17.2-13.85-17.2Z"/>
      <path class="cls-2" d="m387.19,241.75v-4.62h7.79c6.7,0,10.77-3.98,10.77-11.13v-43h4.89v42.28c0,4.71-1.09,16.48-14.39,16.48h-9.05Z"/>
      <path class="cls-2" d="m428.56,241.75h-4.89v-58.75h4.89v58.75Z"/>
      <path class="cls-2" d="m468.12,237.14c-7.15,0-14.12-6.61-13.94-15.66.27-13.76,11.23-18.74,26.89-17.65v-3.89l4.89-1.54.09,27.88c.27,6.97,4.16,10.86,10.77,10.86h4.98v4.62h-6.25c-10.23,0-13.22-6.97-14.03-12.4,0,0-3.62,7.79-13.4,7.79Zm.81-4.35c13.22,0,12.31-14.48,12.13-24.44-5.88.18-21-1.99-21.82,13.04-.18,3.26,1.81,11.41,9.69,11.41Zm.72-46.99h-5.7v6.16h5.7v-6.16Zm12.4,0h-5.7v6.16h5.7v-6.16Z"/>
      <path class="cls-2" d="m504.06,237.14c3.26,0,10.5-1.9,10.86-10.86.54-9.87,6.61-20.82,19.01-20.82s18.65,10.86,19.1,20.55c.91,5.97,3.98,11.13,11.59,11.13h4.62v4.62h-3.89c-6.25,0-11.68-4.62-13.22-7.7-2.26,8.15-8.51,14.67-18.2,14.67-8.78,0-14.94-5.43-17.47-12.4-1.63,2.62-5.43,5.43-11.59,5.43h-3.89v-4.62h3.08Zm29.88-27.25c-9.78,0-13.76,9.69-13.76,17.2s3.98,17.2,13.76,17.2,13.85-9.6,13.85-17.2-3.98-17.2-13.85-17.2Z"/>
      <path class="cls-2" d="m568.79,237.14h13.04v-27.79h4.89l-1.09,11.77c6.52-14.39,19.37-18.11,29.51-18.11,10.86,0,23.27,6.16,23.27,20.19,0,11.59-8.6,18.56-20.1,18.56h-49.52v-4.62Zm49.52,0c8.42,0,14.76-6.25,14.76-13.94,0-11.68-10.95-15.84-17.11-15.84-24.44,0-30.06,20.28-30.69,29.78h33.04Z"/>
      <path class="cls-2" d="m665.83,241.75c-13.31,0-14.39-11.77-14.39-16.48v-42.28h4.89v43c0,7.15,4.07,11.13,10.68,11.13h4.35v4.62h-5.52Z"/>
      <path class="cls-2" d="m720.42,217.49c-3.26,5.79-8.87,13.31-16.48,18.65,1.9.63,3.89,1,6.16,1h18.56v4.62h-17.02c-4.35,0-8.42-1.18-12.04-2.99-3.62,1.81-7.6,2.99-11.95,2.99h-17.02v-4.62h18.56c2.17,0,4.17-.36,6.16-1-7.7-5.34-13.31-12.85-16.48-18.65,2.9-16.02,13.58-18.11,20.73-18.2,7.24.09,17.92,2.17,20.82,18.2Zm-20.82,16.75c9.33-5.25,14.67-15.57,15.39-17.83-2.63-12.13-12.86-13.04-15.39-13.04s-12.67.91-15.3,13.04c.72,2.26,5.98,12.58,15.3,17.83Z"/>
      <path class="cls-2" d="m728.3,241.75v-4.62h7.79c6.7,0,10.77-3.98,10.77-11.13v-43h4.89v42.28c0,4.71-1.09,16.48-14.39,16.48h-9.05Z"/>
      <path class="cls-2" d="m769.67,241.75h-4.89v-58.75h4.89v58.75Z"/>
      <path class="cls-2" d="m809.23,237.14c-7.15,0-14.12-6.61-13.94-15.66.27-13.76,11.23-18.74,26.89-17.65v-3.89l4.89-1.54.09,27.88c.27,6.97,4.16,10.86,10.77,10.86h4.98v4.62h-6.25c-10.23,0-13.22-6.97-14.03-12.4,0,0-3.62,7.79-13.4,7.79Zm.81-4.35c13.22,0,12.31-14.48,12.13-24.44-5.88.18-21-1.99-21.82,13.04-.18,3.26,1.81,11.41,9.69,11.41Zm.72-46.99h-5.7v6.16h5.7v-6.16Zm12.4,0h-5.7v6.16h5.7v-6.16Z"/>
      <path class="cls-2" d="m842.45,241.75v-4.62h7.79c6.7,0,10.77-3.98,10.77-11.13v-24.62h4.89v23.9c0,4.71-1.09,16.48-14.39,16.48h-9.05Zm13.76-52.69h-5.7v-6.07h5.7v6.07Z"/>
      <path class="cls-2" d="m893.33,241.75c-13.31,0-14.39-11.77-14.39-16.48v-42.28h4.89v43c0,7.15,4.07,11.13,10.68,11.13h4.35v4.62h-5.52Z"/>
      <path class="cls-2" d="m898.49,241.75v-4.62h7.24c6.7,0,10.77-4.16,10.77-11.23v-4.98c0-9.96,5.97-21.64,19.01-21.64s19.01,11.68,19.01,21.64-5.97,21.64-19.01,21.64c-7.51,0-12.67-3.71-15.66-8.78-1.72,4.07-5.43,7.97-12.95,7.97h-8.42Zm37.03-38.02c-9.87,0-13.94,9.6-13.94,17.2s4.07,17.2,13.94,17.2,13.76-8.96,13.76-17.2c0-7.6-3.89-17.2-13.76-17.2Z"/>
      <path class="cls-2" d="m960.59,177.84l1.09-2.9h2.26v-3.08c0-3.62,1.72-7.06,5.79-7.06,3.08,0,5.34,2.72,5.52,5.61h-3.08c-.09-1.54-.72-2.81-2.54-2.81-2.08,0-2.81,1.99-2.81,4.25v3.08h4.89c.36,0,1.45,0,1.99-1l2.08,1.9c-1.27,1.72-2.81,1.99-4.35,1.99h-10.86Zm11.86,5.16h-4.89v58.75h4.89v-58.75Z"/>
    </g>
  </g>
</svg>